M48
; DRILL file {KiCad (5.1.0-0)} date 2019 June 09, Sunday 21:10:41
; FORMAT={-:-/ absolute / inch / decimal}
; #@! TF.CreationDate,2019-06-09T21:10:41+02:00
; #@! TF.GenerationSoftware,Kicad,Pcbnew,(5.1.0-0)
FMAT,2
INCH
T1C0.0157
T2C0.0300
T3C0.0335
T4C0.0394
T5C0.0472
T6C0.1378
%
G90
G05
T1
X3.3071Y-2.2146
X3.5335Y-2.0866
T2
X3.8795Y-4.353
T3
X3.1795Y-2.953
X3.1795Y-3.053
X3.1795Y-3.153
X3.1795Y-3.253
X3.1795Y-3.353
X3.1795Y-3.453
X3.1795Y-3.553
X3.1795Y-3.653
X3.1795Y-3.753
X3.1795Y-3.853
X3.1795Y-3.953
X3.1795Y-4.053
X3.1795Y-4.153
X3.1795Y-4.253
X3.1795Y-4.353
X3.1795Y-4.453
X3.1795Y-4.553
X3.8795Y-2.953
X3.8795Y-3.053
X3.8795Y-3.153
X3.8795Y-3.253
X3.8795Y-3.353
X3.8795Y-3.453
X3.8795Y-3.553
X3.8795Y-3.653
X3.8795Y-3.753
X3.8795Y-3.853
X3.8795Y-3.953
X3.8795Y-4.053
X3.8795Y-4.153
X3.8795Y-4.253
X3.8795Y-4.453
X3.8795Y-4.553
T5
X3.8878Y-2.0866
X3.8878Y-2.3622
X3.1693Y-2.0866
X3.1693Y-2.3622
T6
X3.1496Y-4.7736
X3.9075Y-2.7165
X3.1496Y-2.7165
X3.9075Y-4.7736
T4
G00X3.0866Y-2.1673
M15
G01X3.0866Y-2.1476
M16
G05
G00X3.0866Y-2.2854
M15
G01X3.0866Y-2.2657
M16
G05
G00X3.0866Y-2.4429
M15
G01X3.0866Y-2.4232
M16
G05
G00X3.8051Y-2.1673
M15
G01X3.8051Y-2.1476
M16
G05
G00X3.8051Y-2.2854
M15
G01X3.8051Y-2.2657
M16
G05
G00X3.9705Y-2.502
M15
G01X3.9705Y-2.4823
M16
G05
G00X3.252Y-2.502
M15
G01X3.252Y-2.4823
M16
G05
G00X3.8051Y-2.4429
M15
G01X3.8051Y-2.4232
M16
G05
T0
M30
