G04 #@! TF.GenerationSoftware,KiCad,Pcbnew,(5.1.0-0)*
G04 #@! TF.CreationDate,2019-06-09T21:10:29+02:00*
G04 #@! TF.ProjectId,blackpill-pendant,626c6163-6b70-4696-9c6c-2d70656e6461,rev?*
G04 #@! TF.SameCoordinates,Original*
G04 #@! TF.FileFunction,Copper,L1,Top*
G04 #@! TF.FilePolarity,Positive*
%FSLAX46Y46*%
G04 Gerber Fmt 4.6, Leading zero omitted, Abs format (unit mm)*
G04 Created by KiCad (PCBNEW (5.1.0-0)) date 2019-06-09 21:10:29*
%MOMM*%
%LPD*%
G04 APERTURE LIST*
%ADD10O,1.700000X2.500000*%
%ADD11C,1.524000*%
%ADD12C,0.800000*%
%ADD13C,0.400000*%
%ADD14C,0.254000*%
G04 APERTURE END LIST*
D10*
X100850000Y-63300000D03*
X96650000Y-61800000D03*
X96650000Y-57800000D03*
X96650000Y-54800000D03*
X82600000Y-63300000D03*
X78400000Y-61800000D03*
X78400000Y-57800000D03*
X78400000Y-54800000D03*
D11*
X80760000Y-75005001D03*
X80760000Y-77545001D03*
X80760000Y-80085001D03*
X80760000Y-82625001D03*
X80760000Y-85165001D03*
X80760000Y-87705001D03*
X80760000Y-90245001D03*
X80760000Y-92785001D03*
X80760000Y-95325001D03*
X80760000Y-97865001D03*
X80760000Y-100405001D03*
X80760000Y-102945001D03*
X80760000Y-105485001D03*
X80760000Y-108025001D03*
X80760000Y-110565001D03*
X80760000Y-113105001D03*
X80760000Y-115645001D03*
X98540000Y-115645001D03*
X98540000Y-113105001D03*
X98540000Y-110565001D03*
X98540000Y-108025001D03*
X98540000Y-105485001D03*
X98540000Y-102945001D03*
X98540000Y-100405001D03*
X98540000Y-97865001D03*
X98540000Y-95325001D03*
X98540000Y-92785001D03*
X98540000Y-90245001D03*
X98540000Y-87705001D03*
X98540000Y-85165001D03*
X98540000Y-82625001D03*
X98540000Y-80085001D03*
X98540000Y-77545001D03*
X98540000Y-75005001D03*
D12*
X89750000Y-53000000D03*
X84000000Y-56249998D03*
D13*
X79500000Y-61800000D02*
X78400000Y-61800000D01*
X84000000Y-59000000D02*
X81200000Y-61800000D01*
X81200000Y-61800000D02*
X79500000Y-61800000D01*
X96650000Y-61800000D02*
X96650000Y-61650000D01*
X96650000Y-61650000D02*
X94000000Y-59000000D01*
X94000000Y-59000000D02*
X84000000Y-59000000D01*
X78400000Y-61800000D02*
X78400000Y-60300000D01*
X78400000Y-60300000D02*
X82450002Y-56249998D01*
X83434315Y-56249998D02*
X84000000Y-56249998D01*
X82450002Y-56249998D02*
X83434315Y-56249998D01*
D14*
G36*
X97962733Y-52040713D02*
G01*
X97790713Y-52212733D01*
X97655557Y-52415008D01*
X97562460Y-52639764D01*
X97515000Y-52878363D01*
X97515000Y-53121637D01*
X97530972Y-53201935D01*
X97479014Y-53159294D01*
X97221034Y-53021401D01*
X96941111Y-52936487D01*
X96650000Y-52907815D01*
X96358890Y-52936487D01*
X96078967Y-53021401D01*
X95820987Y-53159294D01*
X95594866Y-53344866D01*
X95409294Y-53570986D01*
X95271401Y-53828966D01*
X95186487Y-54108889D01*
X95165000Y-54327050D01*
X95165000Y-55272949D01*
X95186487Y-55491110D01*
X95271401Y-55771033D01*
X95409294Y-56029013D01*
X95594866Y-56255134D01*
X95649535Y-56300000D01*
X95594866Y-56344866D01*
X95409294Y-56570986D01*
X95271401Y-56828966D01*
X95186487Y-57108889D01*
X95165000Y-57327050D01*
X95165000Y-58272949D01*
X95186487Y-58491110D01*
X95271401Y-58771033D01*
X95409294Y-59029013D01*
X95594866Y-59255134D01*
X95820986Y-59440706D01*
X96078966Y-59578599D01*
X96358889Y-59663513D01*
X96650000Y-59692185D01*
X96941110Y-59663513D01*
X97221033Y-59578599D01*
X97479013Y-59440706D01*
X97705134Y-59255134D01*
X97890706Y-59029014D01*
X98028599Y-58771034D01*
X98113513Y-58491111D01*
X98135000Y-58272950D01*
X98135000Y-57327051D01*
X98113513Y-57108889D01*
X98028599Y-56828966D01*
X97890706Y-56570986D01*
X97705134Y-56344866D01*
X97650465Y-56300000D01*
X97705134Y-56255134D01*
X97890706Y-56029014D01*
X98028599Y-55771034D01*
X98113513Y-55491111D01*
X98135000Y-55272950D01*
X98135000Y-54327051D01*
X98113513Y-54108889D01*
X98094926Y-54047616D01*
X98165008Y-54094443D01*
X98389764Y-54187540D01*
X98628363Y-54235000D01*
X98871637Y-54235000D01*
X99110236Y-54187540D01*
X99334992Y-54094443D01*
X99537267Y-53959287D01*
X99709287Y-53787267D01*
X99844443Y-53584992D01*
X99937540Y-53360236D01*
X99985000Y-53121637D01*
X99985000Y-52878363D01*
X99937540Y-52639764D01*
X99844443Y-52415008D01*
X99709287Y-52212733D01*
X99537267Y-52040713D01*
X99341641Y-51910000D01*
X101340001Y-51910000D01*
X101340001Y-61496203D01*
X101300953Y-61479437D01*
X101206890Y-61458524D01*
X100977000Y-61579845D01*
X100977000Y-63173000D01*
X100997000Y-63173000D01*
X100997000Y-63427000D01*
X100977000Y-63427000D01*
X100977000Y-65020155D01*
X101206890Y-65141476D01*
X101300953Y-65120563D01*
X101340001Y-65103797D01*
X101340001Y-67835020D01*
X101102550Y-67479651D01*
X100770349Y-67147450D01*
X100379721Y-66886440D01*
X99945679Y-66706654D01*
X99484902Y-66615000D01*
X99015098Y-66615000D01*
X98554321Y-66706654D01*
X98120279Y-66886440D01*
X97729651Y-67147450D01*
X97397450Y-67479651D01*
X97136440Y-67870279D01*
X96956654Y-68304321D01*
X96865000Y-68765098D01*
X96865000Y-69234902D01*
X96956654Y-69695679D01*
X97136440Y-70129721D01*
X97397450Y-70520349D01*
X97729651Y-70852550D01*
X98120279Y-71113560D01*
X98554321Y-71293346D01*
X99015098Y-71385000D01*
X99484902Y-71385000D01*
X99945679Y-71293346D01*
X100379721Y-71113560D01*
X100770349Y-70852550D01*
X101102550Y-70520349D01*
X101340001Y-70164980D01*
X101340000Y-120085019D01*
X101102550Y-119729651D01*
X100770349Y-119397450D01*
X100379721Y-119136440D01*
X99945679Y-118956654D01*
X99484902Y-118865000D01*
X99015098Y-118865000D01*
X98554321Y-118956654D01*
X98120279Y-119136440D01*
X97729651Y-119397450D01*
X97397450Y-119729651D01*
X97136440Y-120120279D01*
X96956654Y-120554321D01*
X96865000Y-121015098D01*
X96865000Y-121484902D01*
X96956654Y-121945679D01*
X97136440Y-122379721D01*
X97397450Y-122770349D01*
X97729651Y-123102550D01*
X98085019Y-123340000D01*
X81164981Y-123340000D01*
X81520349Y-123102550D01*
X81852550Y-122770349D01*
X82113560Y-122379721D01*
X82293346Y-121945679D01*
X82385000Y-121484902D01*
X82385000Y-121015098D01*
X82293346Y-120554321D01*
X82113560Y-120120279D01*
X81852550Y-119729651D01*
X81520349Y-119397450D01*
X81129721Y-119136440D01*
X80695679Y-118956654D01*
X80234902Y-118865000D01*
X79765098Y-118865000D01*
X79304321Y-118956654D01*
X78870279Y-119136440D01*
X78479651Y-119397450D01*
X78147450Y-119729651D01*
X77910000Y-120085019D01*
X77910000Y-116610566D01*
X79974040Y-116610566D01*
X80041020Y-116850657D01*
X80290048Y-116967757D01*
X80557135Y-117034024D01*
X80832017Y-117046911D01*
X81104133Y-117005923D01*
X81363023Y-116912637D01*
X81478980Y-116850657D01*
X81545960Y-116610566D01*
X97754040Y-116610566D01*
X97821020Y-116850657D01*
X98070048Y-116967757D01*
X98337135Y-117034024D01*
X98612017Y-117046911D01*
X98884133Y-117005923D01*
X99143023Y-116912637D01*
X99258980Y-116850657D01*
X99325960Y-116610566D01*
X98540000Y-115824606D01*
X97754040Y-116610566D01*
X81545960Y-116610566D01*
X80760000Y-115824606D01*
X79974040Y-116610566D01*
X77910000Y-116610566D01*
X77910000Y-115717018D01*
X79358090Y-115717018D01*
X79399078Y-115989134D01*
X79492364Y-116248024D01*
X79554344Y-116363981D01*
X79794435Y-116430961D01*
X80580395Y-115645001D01*
X80939605Y-115645001D01*
X81725565Y-116430961D01*
X81965656Y-116363981D01*
X82082756Y-116114953D01*
X82149023Y-115847866D01*
X82155157Y-115717018D01*
X97138090Y-115717018D01*
X97179078Y-115989134D01*
X97272364Y-116248024D01*
X97334344Y-116363981D01*
X97574435Y-116430961D01*
X98360395Y-115645001D01*
X98719605Y-115645001D01*
X99505565Y-116430961D01*
X99745656Y-116363981D01*
X99862756Y-116114953D01*
X99929023Y-115847866D01*
X99941910Y-115572984D01*
X99900922Y-115300868D01*
X99807636Y-115041978D01*
X99745656Y-114926021D01*
X99505565Y-114859041D01*
X98719605Y-115645001D01*
X98360395Y-115645001D01*
X97574435Y-114859041D01*
X97334344Y-114926021D01*
X97217244Y-115175049D01*
X97150977Y-115442136D01*
X97138090Y-115717018D01*
X82155157Y-115717018D01*
X82161910Y-115572984D01*
X82120922Y-115300868D01*
X82027636Y-115041978D01*
X81965656Y-114926021D01*
X81725565Y-114859041D01*
X80939605Y-115645001D01*
X80580395Y-115645001D01*
X79794435Y-114859041D01*
X79554344Y-114926021D01*
X79437244Y-115175049D01*
X79370977Y-115442136D01*
X79358090Y-115717018D01*
X77910000Y-115717018D01*
X77910000Y-74867409D01*
X79363000Y-74867409D01*
X79363000Y-75142593D01*
X79416686Y-75412491D01*
X79521995Y-75666728D01*
X79674880Y-75895536D01*
X79869465Y-76090121D01*
X80098273Y-76243006D01*
X80175515Y-76275001D01*
X80098273Y-76306996D01*
X79869465Y-76459881D01*
X79674880Y-76654466D01*
X79521995Y-76883274D01*
X79416686Y-77137511D01*
X79363000Y-77407409D01*
X79363000Y-77682593D01*
X79416686Y-77952491D01*
X79521995Y-78206728D01*
X79674880Y-78435536D01*
X79869465Y-78630121D01*
X80098273Y-78783006D01*
X80175515Y-78815001D01*
X80098273Y-78846996D01*
X79869465Y-78999881D01*
X79674880Y-79194466D01*
X79521995Y-79423274D01*
X79416686Y-79677511D01*
X79363000Y-79947409D01*
X79363000Y-80222593D01*
X79416686Y-80492491D01*
X79521995Y-80746728D01*
X79674880Y-80975536D01*
X79869465Y-81170121D01*
X80098273Y-81323006D01*
X80175515Y-81355001D01*
X80098273Y-81386996D01*
X79869465Y-81539881D01*
X79674880Y-81734466D01*
X79521995Y-81963274D01*
X79416686Y-82217511D01*
X79363000Y-82487409D01*
X79363000Y-82762593D01*
X79416686Y-83032491D01*
X79521995Y-83286728D01*
X79674880Y-83515536D01*
X79869465Y-83710121D01*
X80098273Y-83863006D01*
X80175515Y-83895001D01*
X80098273Y-83926996D01*
X79869465Y-84079881D01*
X79674880Y-84274466D01*
X79521995Y-84503274D01*
X79416686Y-84757511D01*
X79363000Y-85027409D01*
X79363000Y-85302593D01*
X79416686Y-85572491D01*
X79521995Y-85826728D01*
X79674880Y-86055536D01*
X79869465Y-86250121D01*
X80098273Y-86403006D01*
X80175515Y-86435001D01*
X80098273Y-86466996D01*
X79869465Y-86619881D01*
X79674880Y-86814466D01*
X79521995Y-87043274D01*
X79416686Y-87297511D01*
X79363000Y-87567409D01*
X79363000Y-87842593D01*
X79416686Y-88112491D01*
X79521995Y-88366728D01*
X79674880Y-88595536D01*
X79869465Y-88790121D01*
X80098273Y-88943006D01*
X80175515Y-88975001D01*
X80098273Y-89006996D01*
X79869465Y-89159881D01*
X79674880Y-89354466D01*
X79521995Y-89583274D01*
X79416686Y-89837511D01*
X79363000Y-90107409D01*
X79363000Y-90382593D01*
X79416686Y-90652491D01*
X79521995Y-90906728D01*
X79674880Y-91135536D01*
X79869465Y-91330121D01*
X80098273Y-91483006D01*
X80175515Y-91515001D01*
X80098273Y-91546996D01*
X79869465Y-91699881D01*
X79674880Y-91894466D01*
X79521995Y-92123274D01*
X79416686Y-92377511D01*
X79363000Y-92647409D01*
X79363000Y-92922593D01*
X79416686Y-93192491D01*
X79521995Y-93446728D01*
X79674880Y-93675536D01*
X79869465Y-93870121D01*
X80098273Y-94023006D01*
X80175515Y-94055001D01*
X80098273Y-94086996D01*
X79869465Y-94239881D01*
X79674880Y-94434466D01*
X79521995Y-94663274D01*
X79416686Y-94917511D01*
X79363000Y-95187409D01*
X79363000Y-95462593D01*
X79416686Y-95732491D01*
X79521995Y-95986728D01*
X79674880Y-96215536D01*
X79869465Y-96410121D01*
X80098273Y-96563006D01*
X80175515Y-96595001D01*
X80098273Y-96626996D01*
X79869465Y-96779881D01*
X79674880Y-96974466D01*
X79521995Y-97203274D01*
X79416686Y-97457511D01*
X79363000Y-97727409D01*
X79363000Y-98002593D01*
X79416686Y-98272491D01*
X79521995Y-98526728D01*
X79674880Y-98755536D01*
X79869465Y-98950121D01*
X80098273Y-99103006D01*
X80175515Y-99135001D01*
X80098273Y-99166996D01*
X79869465Y-99319881D01*
X79674880Y-99514466D01*
X79521995Y-99743274D01*
X79416686Y-99997511D01*
X79363000Y-100267409D01*
X79363000Y-100542593D01*
X79416686Y-100812491D01*
X79521995Y-101066728D01*
X79674880Y-101295536D01*
X79869465Y-101490121D01*
X80098273Y-101643006D01*
X80175515Y-101675001D01*
X80098273Y-101706996D01*
X79869465Y-101859881D01*
X79674880Y-102054466D01*
X79521995Y-102283274D01*
X79416686Y-102537511D01*
X79363000Y-102807409D01*
X79363000Y-103082593D01*
X79416686Y-103352491D01*
X79521995Y-103606728D01*
X79674880Y-103835536D01*
X79869465Y-104030121D01*
X80098273Y-104183006D01*
X80175515Y-104215001D01*
X80098273Y-104246996D01*
X79869465Y-104399881D01*
X79674880Y-104594466D01*
X79521995Y-104823274D01*
X79416686Y-105077511D01*
X79363000Y-105347409D01*
X79363000Y-105622593D01*
X79416686Y-105892491D01*
X79521995Y-106146728D01*
X79674880Y-106375536D01*
X79869465Y-106570121D01*
X80098273Y-106723006D01*
X80175515Y-106755001D01*
X80098273Y-106786996D01*
X79869465Y-106939881D01*
X79674880Y-107134466D01*
X79521995Y-107363274D01*
X79416686Y-107617511D01*
X79363000Y-107887409D01*
X79363000Y-108162593D01*
X79416686Y-108432491D01*
X79521995Y-108686728D01*
X79674880Y-108915536D01*
X79869465Y-109110121D01*
X80098273Y-109263006D01*
X80175515Y-109295001D01*
X80098273Y-109326996D01*
X79869465Y-109479881D01*
X79674880Y-109674466D01*
X79521995Y-109903274D01*
X79416686Y-110157511D01*
X79363000Y-110427409D01*
X79363000Y-110702593D01*
X79416686Y-110972491D01*
X79521995Y-111226728D01*
X79674880Y-111455536D01*
X79869465Y-111650121D01*
X80098273Y-111803006D01*
X80175515Y-111835001D01*
X80098273Y-111866996D01*
X79869465Y-112019881D01*
X79674880Y-112214466D01*
X79521995Y-112443274D01*
X79416686Y-112697511D01*
X79363000Y-112967409D01*
X79363000Y-113242593D01*
X79416686Y-113512491D01*
X79521995Y-113766728D01*
X79674880Y-113995536D01*
X79869465Y-114190121D01*
X80098273Y-114343006D01*
X80169943Y-114372693D01*
X80156977Y-114377365D01*
X80041020Y-114439345D01*
X79974040Y-114679436D01*
X80760000Y-115465396D01*
X81545960Y-114679436D01*
X81478980Y-114439345D01*
X81343240Y-114375516D01*
X81421727Y-114343006D01*
X81650535Y-114190121D01*
X81845120Y-113995536D01*
X81998005Y-113766728D01*
X82103314Y-113512491D01*
X82157000Y-113242593D01*
X82157000Y-112967409D01*
X82103314Y-112697511D01*
X81998005Y-112443274D01*
X81845120Y-112214466D01*
X81650535Y-112019881D01*
X81421727Y-111866996D01*
X81344485Y-111835001D01*
X81421727Y-111803006D01*
X81650535Y-111650121D01*
X81845120Y-111455536D01*
X81998005Y-111226728D01*
X82103314Y-110972491D01*
X82157000Y-110702593D01*
X82157000Y-110427409D01*
X82103314Y-110157511D01*
X81998005Y-109903274D01*
X81845120Y-109674466D01*
X81650535Y-109479881D01*
X81421727Y-109326996D01*
X81344485Y-109295001D01*
X81421727Y-109263006D01*
X81650535Y-109110121D01*
X81845120Y-108915536D01*
X81998005Y-108686728D01*
X82103314Y-108432491D01*
X82157000Y-108162593D01*
X82157000Y-107887409D01*
X82103314Y-107617511D01*
X81998005Y-107363274D01*
X81845120Y-107134466D01*
X81650535Y-106939881D01*
X81421727Y-106786996D01*
X81344485Y-106755001D01*
X81421727Y-106723006D01*
X81650535Y-106570121D01*
X81845120Y-106375536D01*
X81998005Y-106146728D01*
X82103314Y-105892491D01*
X82157000Y-105622593D01*
X82157000Y-105347409D01*
X82103314Y-105077511D01*
X81998005Y-104823274D01*
X81845120Y-104594466D01*
X81650535Y-104399881D01*
X81421727Y-104246996D01*
X81344485Y-104215001D01*
X81421727Y-104183006D01*
X81650535Y-104030121D01*
X81845120Y-103835536D01*
X81998005Y-103606728D01*
X82103314Y-103352491D01*
X82157000Y-103082593D01*
X82157000Y-102807409D01*
X82103314Y-102537511D01*
X81998005Y-102283274D01*
X81845120Y-102054466D01*
X81650535Y-101859881D01*
X81421727Y-101706996D01*
X81344485Y-101675001D01*
X81421727Y-101643006D01*
X81650535Y-101490121D01*
X81845120Y-101295536D01*
X81998005Y-101066728D01*
X82103314Y-100812491D01*
X82157000Y-100542593D01*
X82157000Y-100267409D01*
X82103314Y-99997511D01*
X81998005Y-99743274D01*
X81845120Y-99514466D01*
X81650535Y-99319881D01*
X81421727Y-99166996D01*
X81344485Y-99135001D01*
X81421727Y-99103006D01*
X81650535Y-98950121D01*
X81845120Y-98755536D01*
X81998005Y-98526728D01*
X82103314Y-98272491D01*
X82157000Y-98002593D01*
X82157000Y-97727409D01*
X82103314Y-97457511D01*
X81998005Y-97203274D01*
X81845120Y-96974466D01*
X81650535Y-96779881D01*
X81421727Y-96626996D01*
X81344485Y-96595001D01*
X81421727Y-96563006D01*
X81650535Y-96410121D01*
X81845120Y-96215536D01*
X81998005Y-95986728D01*
X82103314Y-95732491D01*
X82157000Y-95462593D01*
X82157000Y-95187409D01*
X82103314Y-94917511D01*
X81998005Y-94663274D01*
X81845120Y-94434466D01*
X81650535Y-94239881D01*
X81421727Y-94086996D01*
X81344485Y-94055001D01*
X81421727Y-94023006D01*
X81650535Y-93870121D01*
X81845120Y-93675536D01*
X81998005Y-93446728D01*
X82103314Y-93192491D01*
X82157000Y-92922593D01*
X82157000Y-92647409D01*
X82103314Y-92377511D01*
X81998005Y-92123274D01*
X81845120Y-91894466D01*
X81650535Y-91699881D01*
X81421727Y-91546996D01*
X81344485Y-91515001D01*
X81421727Y-91483006D01*
X81650535Y-91330121D01*
X81845120Y-91135536D01*
X81998005Y-90906728D01*
X82103314Y-90652491D01*
X82157000Y-90382593D01*
X82157000Y-90107409D01*
X82103314Y-89837511D01*
X81998005Y-89583274D01*
X81845120Y-89354466D01*
X81650535Y-89159881D01*
X81421727Y-89006996D01*
X81344485Y-88975001D01*
X81421727Y-88943006D01*
X81650535Y-88790121D01*
X81845120Y-88595536D01*
X81998005Y-88366728D01*
X82103314Y-88112491D01*
X82157000Y-87842593D01*
X82157000Y-87567409D01*
X82103314Y-87297511D01*
X81998005Y-87043274D01*
X81845120Y-86814466D01*
X81650535Y-86619881D01*
X81421727Y-86466996D01*
X81344485Y-86435001D01*
X81421727Y-86403006D01*
X81650535Y-86250121D01*
X81845120Y-86055536D01*
X81998005Y-85826728D01*
X82103314Y-85572491D01*
X82157000Y-85302593D01*
X82157000Y-85027409D01*
X82103314Y-84757511D01*
X81998005Y-84503274D01*
X81845120Y-84274466D01*
X81650535Y-84079881D01*
X81421727Y-83926996D01*
X81344485Y-83895001D01*
X81421727Y-83863006D01*
X81650535Y-83710121D01*
X81845120Y-83515536D01*
X81998005Y-83286728D01*
X82103314Y-83032491D01*
X82157000Y-82762593D01*
X82157000Y-82487409D01*
X82103314Y-82217511D01*
X81998005Y-81963274D01*
X81845120Y-81734466D01*
X81650535Y-81539881D01*
X81421727Y-81386996D01*
X81344485Y-81355001D01*
X81421727Y-81323006D01*
X81650535Y-81170121D01*
X81845120Y-80975536D01*
X81998005Y-80746728D01*
X82103314Y-80492491D01*
X82157000Y-80222593D01*
X82157000Y-79947409D01*
X82103314Y-79677511D01*
X81998005Y-79423274D01*
X81845120Y-79194466D01*
X81650535Y-78999881D01*
X81421727Y-78846996D01*
X81344485Y-78815001D01*
X81421727Y-78783006D01*
X81650535Y-78630121D01*
X81845120Y-78435536D01*
X81998005Y-78206728D01*
X82103314Y-77952491D01*
X82157000Y-77682593D01*
X82157000Y-77407409D01*
X82103314Y-77137511D01*
X81998005Y-76883274D01*
X81845120Y-76654466D01*
X81650535Y-76459881D01*
X81421727Y-76306996D01*
X81344485Y-76275001D01*
X81421727Y-76243006D01*
X81650535Y-76090121D01*
X81845120Y-75895536D01*
X81998005Y-75666728D01*
X82103314Y-75412491D01*
X82157000Y-75142593D01*
X82157000Y-74867409D01*
X82103314Y-74597511D01*
X81998005Y-74343274D01*
X81845120Y-74114466D01*
X81650535Y-73919881D01*
X81421727Y-73766996D01*
X81167490Y-73661687D01*
X80897592Y-73608001D01*
X80622408Y-73608001D01*
X80352510Y-73661687D01*
X80098273Y-73766996D01*
X79869465Y-73919881D01*
X79674880Y-74114466D01*
X79521995Y-74343274D01*
X79416686Y-74597511D01*
X79363000Y-74867409D01*
X77910000Y-74867409D01*
X77910000Y-70164981D01*
X78147450Y-70520349D01*
X78479651Y-70852550D01*
X78870279Y-71113560D01*
X79304321Y-71293346D01*
X79765098Y-71385000D01*
X80234902Y-71385000D01*
X80695679Y-71293346D01*
X81129721Y-71113560D01*
X81520349Y-70852550D01*
X81852550Y-70520349D01*
X82113560Y-70129721D01*
X82293346Y-69695679D01*
X82385000Y-69234902D01*
X82385000Y-68765098D01*
X82293346Y-68304321D01*
X82113560Y-67870279D01*
X81852550Y-67479651D01*
X81520349Y-67147450D01*
X81129721Y-66886440D01*
X80695679Y-66706654D01*
X80234902Y-66615000D01*
X79765098Y-66615000D01*
X79304321Y-66706654D01*
X78870279Y-66886440D01*
X78479651Y-67147450D01*
X78147450Y-67479651D01*
X77910000Y-67835019D01*
X77910000Y-63603180D01*
X78108889Y-63663513D01*
X78400000Y-63692185D01*
X78691110Y-63663513D01*
X78971033Y-63578599D01*
X79229013Y-63440706D01*
X79245713Y-63427000D01*
X81115000Y-63427000D01*
X81115000Y-63827000D01*
X81168310Y-64114269D01*
X81276639Y-64385618D01*
X81435824Y-64630619D01*
X81639748Y-64839857D01*
X81880574Y-65005291D01*
X82149047Y-65120563D01*
X82243110Y-65141476D01*
X82473000Y-65020155D01*
X82473000Y-63427000D01*
X81115000Y-63427000D01*
X79245713Y-63427000D01*
X79455134Y-63255134D01*
X79640706Y-63029014D01*
X79778599Y-62771034D01*
X79819865Y-62635000D01*
X81140609Y-62635000D01*
X81115000Y-62773000D01*
X81115000Y-63173000D01*
X82473000Y-63173000D01*
X82473000Y-63153000D01*
X82727000Y-63153000D01*
X82727000Y-63173000D01*
X82747000Y-63173000D01*
X82747000Y-63427000D01*
X82727000Y-63427000D01*
X82727000Y-65020155D01*
X82956890Y-65141476D01*
X83050953Y-65120563D01*
X83319426Y-65005291D01*
X83560252Y-64839857D01*
X83764176Y-64630619D01*
X83840001Y-64513917D01*
X83840000Y-84532418D01*
X83842818Y-84561027D01*
X83842753Y-84570288D01*
X83843652Y-84579460D01*
X83874252Y-84870605D01*
X83886283Y-84929217D01*
X83897489Y-84987963D01*
X83900153Y-84996784D01*
X83986721Y-85276440D01*
X84009899Y-85331578D01*
X84032311Y-85387050D01*
X84036638Y-85395186D01*
X84175877Y-85652702D01*
X84209304Y-85702259D01*
X84242080Y-85752347D01*
X84247905Y-85759488D01*
X84434510Y-85985056D01*
X84476965Y-86027215D01*
X84518809Y-86069945D01*
X84525909Y-86075819D01*
X84752773Y-86260845D01*
X84802566Y-86293927D01*
X84851955Y-86327745D01*
X84860061Y-86332127D01*
X85118542Y-86469564D01*
X85173836Y-86492355D01*
X85228829Y-86515925D01*
X85237632Y-86518650D01*
X85517887Y-86603264D01*
X85576564Y-86614882D01*
X85635079Y-86627320D01*
X85644242Y-86628283D01*
X85644244Y-86628283D01*
X85935596Y-86656850D01*
X85935598Y-86656850D01*
X85967581Y-86660000D01*
X93282419Y-86660000D01*
X93311028Y-86657182D01*
X93320288Y-86657247D01*
X93329460Y-86656348D01*
X93620605Y-86625748D01*
X93679217Y-86613717D01*
X93737963Y-86602511D01*
X93746784Y-86599847D01*
X94026440Y-86513279D01*
X94081578Y-86490101D01*
X94137050Y-86467689D01*
X94145181Y-86463365D01*
X94145185Y-86463363D01*
X94145188Y-86463361D01*
X94402702Y-86324123D01*
X94452259Y-86290696D01*
X94502347Y-86257920D01*
X94509488Y-86252095D01*
X94735056Y-86065490D01*
X94777215Y-86023035D01*
X94819945Y-85981191D01*
X94825819Y-85974091D01*
X95010845Y-85747227D01*
X95043927Y-85697434D01*
X95077745Y-85648045D01*
X95082127Y-85639939D01*
X95219564Y-85381458D01*
X95242355Y-85326164D01*
X95265925Y-85271171D01*
X95268650Y-85262368D01*
X95353264Y-84982113D01*
X95364882Y-84923436D01*
X95377320Y-84864921D01*
X95378283Y-84855756D01*
X95406850Y-84564404D01*
X95406850Y-84564402D01*
X95410000Y-84532419D01*
X95410000Y-74867409D01*
X97143000Y-74867409D01*
X97143000Y-75142593D01*
X97196686Y-75412491D01*
X97301995Y-75666728D01*
X97454880Y-75895536D01*
X97649465Y-76090121D01*
X97878273Y-76243006D01*
X97955515Y-76275001D01*
X97878273Y-76306996D01*
X97649465Y-76459881D01*
X97454880Y-76654466D01*
X97301995Y-76883274D01*
X97196686Y-77137511D01*
X97143000Y-77407409D01*
X97143000Y-77682593D01*
X97196686Y-77952491D01*
X97301995Y-78206728D01*
X97454880Y-78435536D01*
X97649465Y-78630121D01*
X97878273Y-78783006D01*
X97955515Y-78815001D01*
X97878273Y-78846996D01*
X97649465Y-78999881D01*
X97454880Y-79194466D01*
X97301995Y-79423274D01*
X97196686Y-79677511D01*
X97143000Y-79947409D01*
X97143000Y-80222593D01*
X97196686Y-80492491D01*
X97301995Y-80746728D01*
X97454880Y-80975536D01*
X97649465Y-81170121D01*
X97878273Y-81323006D01*
X97955515Y-81355001D01*
X97878273Y-81386996D01*
X97649465Y-81539881D01*
X97454880Y-81734466D01*
X97301995Y-81963274D01*
X97196686Y-82217511D01*
X97143000Y-82487409D01*
X97143000Y-82762593D01*
X97196686Y-83032491D01*
X97301995Y-83286728D01*
X97454880Y-83515536D01*
X97649465Y-83710121D01*
X97878273Y-83863006D01*
X97955515Y-83895001D01*
X97878273Y-83926996D01*
X97649465Y-84079881D01*
X97454880Y-84274466D01*
X97301995Y-84503274D01*
X97196686Y-84757511D01*
X97143000Y-85027409D01*
X97143000Y-85302593D01*
X97196686Y-85572491D01*
X97301995Y-85826728D01*
X97454880Y-86055536D01*
X97649465Y-86250121D01*
X97878273Y-86403006D01*
X97955515Y-86435001D01*
X97878273Y-86466996D01*
X97649465Y-86619881D01*
X97454880Y-86814466D01*
X97301995Y-87043274D01*
X97196686Y-87297511D01*
X97143000Y-87567409D01*
X97143000Y-87842593D01*
X97196686Y-88112491D01*
X97301995Y-88366728D01*
X97454880Y-88595536D01*
X97649465Y-88790121D01*
X97878273Y-88943006D01*
X97955515Y-88975001D01*
X97878273Y-89006996D01*
X97649465Y-89159881D01*
X97454880Y-89354466D01*
X97301995Y-89583274D01*
X97196686Y-89837511D01*
X97143000Y-90107409D01*
X97143000Y-90382593D01*
X97196686Y-90652491D01*
X97301995Y-90906728D01*
X97454880Y-91135536D01*
X97649465Y-91330121D01*
X97878273Y-91483006D01*
X97955515Y-91515001D01*
X97878273Y-91546996D01*
X97649465Y-91699881D01*
X97454880Y-91894466D01*
X97301995Y-92123274D01*
X97196686Y-92377511D01*
X97143000Y-92647409D01*
X97143000Y-92922593D01*
X97196686Y-93192491D01*
X97301995Y-93446728D01*
X97454880Y-93675536D01*
X97649465Y-93870121D01*
X97878273Y-94023006D01*
X97955515Y-94055001D01*
X97878273Y-94086996D01*
X97649465Y-94239881D01*
X97454880Y-94434466D01*
X97301995Y-94663274D01*
X97196686Y-94917511D01*
X97143000Y-95187409D01*
X97143000Y-95462593D01*
X97196686Y-95732491D01*
X97301995Y-95986728D01*
X97454880Y-96215536D01*
X97649465Y-96410121D01*
X97878273Y-96563006D01*
X97955515Y-96595001D01*
X97878273Y-96626996D01*
X97649465Y-96779881D01*
X97454880Y-96974466D01*
X97301995Y-97203274D01*
X97196686Y-97457511D01*
X97143000Y-97727409D01*
X97143000Y-98002593D01*
X97196686Y-98272491D01*
X97301995Y-98526728D01*
X97454880Y-98755536D01*
X97649465Y-98950121D01*
X97878273Y-99103006D01*
X97955515Y-99135001D01*
X97878273Y-99166996D01*
X97649465Y-99319881D01*
X97454880Y-99514466D01*
X97301995Y-99743274D01*
X97196686Y-99997511D01*
X97143000Y-100267409D01*
X97143000Y-100542593D01*
X97196686Y-100812491D01*
X97301995Y-101066728D01*
X97454880Y-101295536D01*
X97649465Y-101490121D01*
X97878273Y-101643006D01*
X97955515Y-101675001D01*
X97878273Y-101706996D01*
X97649465Y-101859881D01*
X97454880Y-102054466D01*
X97301995Y-102283274D01*
X97196686Y-102537511D01*
X97143000Y-102807409D01*
X97143000Y-103082593D01*
X97196686Y-103352491D01*
X97301995Y-103606728D01*
X97454880Y-103835536D01*
X97649465Y-104030121D01*
X97878273Y-104183006D01*
X97955515Y-104215001D01*
X97878273Y-104246996D01*
X97649465Y-104399881D01*
X97454880Y-104594466D01*
X97301995Y-104823274D01*
X97196686Y-105077511D01*
X97143000Y-105347409D01*
X97143000Y-105622593D01*
X97196686Y-105892491D01*
X97301995Y-106146728D01*
X97454880Y-106375536D01*
X97649465Y-106570121D01*
X97878273Y-106723006D01*
X97955515Y-106755001D01*
X97878273Y-106786996D01*
X97649465Y-106939881D01*
X97454880Y-107134466D01*
X97301995Y-107363274D01*
X97196686Y-107617511D01*
X97143000Y-107887409D01*
X97143000Y-108162593D01*
X97196686Y-108432491D01*
X97301995Y-108686728D01*
X97454880Y-108915536D01*
X97649465Y-109110121D01*
X97878273Y-109263006D01*
X97955515Y-109295001D01*
X97878273Y-109326996D01*
X97649465Y-109479881D01*
X97454880Y-109674466D01*
X97301995Y-109903274D01*
X97196686Y-110157511D01*
X97143000Y-110427409D01*
X97143000Y-110702593D01*
X97196686Y-110972491D01*
X97301995Y-111226728D01*
X97454880Y-111455536D01*
X97649465Y-111650121D01*
X97878273Y-111803006D01*
X97955515Y-111835001D01*
X97878273Y-111866996D01*
X97649465Y-112019881D01*
X97454880Y-112214466D01*
X97301995Y-112443274D01*
X97196686Y-112697511D01*
X97143000Y-112967409D01*
X97143000Y-113242593D01*
X97196686Y-113512491D01*
X97301995Y-113766728D01*
X97454880Y-113995536D01*
X97649465Y-114190121D01*
X97878273Y-114343006D01*
X97949943Y-114372693D01*
X97936977Y-114377365D01*
X97821020Y-114439345D01*
X97754040Y-114679436D01*
X98540000Y-115465396D01*
X99325960Y-114679436D01*
X99258980Y-114439345D01*
X99123240Y-114375516D01*
X99201727Y-114343006D01*
X99430535Y-114190121D01*
X99625120Y-113995536D01*
X99778005Y-113766728D01*
X99883314Y-113512491D01*
X99937000Y-113242593D01*
X99937000Y-112967409D01*
X99883314Y-112697511D01*
X99778005Y-112443274D01*
X99625120Y-112214466D01*
X99430535Y-112019881D01*
X99201727Y-111866996D01*
X99124485Y-111835001D01*
X99201727Y-111803006D01*
X99430535Y-111650121D01*
X99625120Y-111455536D01*
X99778005Y-111226728D01*
X99883314Y-110972491D01*
X99937000Y-110702593D01*
X99937000Y-110427409D01*
X99883314Y-110157511D01*
X99778005Y-109903274D01*
X99625120Y-109674466D01*
X99430535Y-109479881D01*
X99201727Y-109326996D01*
X99124485Y-109295001D01*
X99201727Y-109263006D01*
X99430535Y-109110121D01*
X99625120Y-108915536D01*
X99778005Y-108686728D01*
X99883314Y-108432491D01*
X99937000Y-108162593D01*
X99937000Y-107887409D01*
X99883314Y-107617511D01*
X99778005Y-107363274D01*
X99625120Y-107134466D01*
X99430535Y-106939881D01*
X99201727Y-106786996D01*
X99124485Y-106755001D01*
X99201727Y-106723006D01*
X99430535Y-106570121D01*
X99625120Y-106375536D01*
X99778005Y-106146728D01*
X99883314Y-105892491D01*
X99937000Y-105622593D01*
X99937000Y-105347409D01*
X99883314Y-105077511D01*
X99778005Y-104823274D01*
X99625120Y-104594466D01*
X99430535Y-104399881D01*
X99201727Y-104246996D01*
X99124485Y-104215001D01*
X99201727Y-104183006D01*
X99430535Y-104030121D01*
X99625120Y-103835536D01*
X99778005Y-103606728D01*
X99883314Y-103352491D01*
X99937000Y-103082593D01*
X99937000Y-102807409D01*
X99883314Y-102537511D01*
X99778005Y-102283274D01*
X99625120Y-102054466D01*
X99430535Y-101859881D01*
X99201727Y-101706996D01*
X99124485Y-101675001D01*
X99201727Y-101643006D01*
X99430535Y-101490121D01*
X99625120Y-101295536D01*
X99778005Y-101066728D01*
X99883314Y-100812491D01*
X99937000Y-100542593D01*
X99937000Y-100267409D01*
X99883314Y-99997511D01*
X99778005Y-99743274D01*
X99625120Y-99514466D01*
X99430535Y-99319881D01*
X99201727Y-99166996D01*
X99124485Y-99135001D01*
X99201727Y-99103006D01*
X99430535Y-98950121D01*
X99625120Y-98755536D01*
X99778005Y-98526728D01*
X99883314Y-98272491D01*
X99937000Y-98002593D01*
X99937000Y-97727409D01*
X99883314Y-97457511D01*
X99778005Y-97203274D01*
X99625120Y-96974466D01*
X99430535Y-96779881D01*
X99201727Y-96626996D01*
X99124485Y-96595001D01*
X99201727Y-96563006D01*
X99430535Y-96410121D01*
X99625120Y-96215536D01*
X99778005Y-95986728D01*
X99883314Y-95732491D01*
X99937000Y-95462593D01*
X99937000Y-95187409D01*
X99883314Y-94917511D01*
X99778005Y-94663274D01*
X99625120Y-94434466D01*
X99430535Y-94239881D01*
X99201727Y-94086996D01*
X99124485Y-94055001D01*
X99201727Y-94023006D01*
X99430535Y-93870121D01*
X99625120Y-93675536D01*
X99778005Y-93446728D01*
X99883314Y-93192491D01*
X99937000Y-92922593D01*
X99937000Y-92647409D01*
X99883314Y-92377511D01*
X99778005Y-92123274D01*
X99625120Y-91894466D01*
X99430535Y-91699881D01*
X99201727Y-91546996D01*
X99124485Y-91515001D01*
X99201727Y-91483006D01*
X99430535Y-91330121D01*
X99625120Y-91135536D01*
X99778005Y-90906728D01*
X99883314Y-90652491D01*
X99937000Y-90382593D01*
X99937000Y-90107409D01*
X99883314Y-89837511D01*
X99778005Y-89583274D01*
X99625120Y-89354466D01*
X99430535Y-89159881D01*
X99201727Y-89006996D01*
X99124485Y-88975001D01*
X99201727Y-88943006D01*
X99430535Y-88790121D01*
X99625120Y-88595536D01*
X99778005Y-88366728D01*
X99883314Y-88112491D01*
X99937000Y-87842593D01*
X99937000Y-87567409D01*
X99883314Y-87297511D01*
X99778005Y-87043274D01*
X99625120Y-86814466D01*
X99430535Y-86619881D01*
X99201727Y-86466996D01*
X99124485Y-86435001D01*
X99201727Y-86403006D01*
X99430535Y-86250121D01*
X99625120Y-86055536D01*
X99778005Y-85826728D01*
X99883314Y-85572491D01*
X99937000Y-85302593D01*
X99937000Y-85027409D01*
X99883314Y-84757511D01*
X99778005Y-84503274D01*
X99625120Y-84274466D01*
X99430535Y-84079881D01*
X99201727Y-83926996D01*
X99124485Y-83895001D01*
X99201727Y-83863006D01*
X99430535Y-83710121D01*
X99625120Y-83515536D01*
X99778005Y-83286728D01*
X99883314Y-83032491D01*
X99937000Y-82762593D01*
X99937000Y-82487409D01*
X99883314Y-82217511D01*
X99778005Y-81963274D01*
X99625120Y-81734466D01*
X99430535Y-81539881D01*
X99201727Y-81386996D01*
X99124485Y-81355001D01*
X99201727Y-81323006D01*
X99430535Y-81170121D01*
X99625120Y-80975536D01*
X99778005Y-80746728D01*
X99883314Y-80492491D01*
X99937000Y-80222593D01*
X99937000Y-79947409D01*
X99883314Y-79677511D01*
X99778005Y-79423274D01*
X99625120Y-79194466D01*
X99430535Y-78999881D01*
X99201727Y-78846996D01*
X99124485Y-78815001D01*
X99201727Y-78783006D01*
X99430535Y-78630121D01*
X99625120Y-78435536D01*
X99778005Y-78206728D01*
X99883314Y-77952491D01*
X99937000Y-77682593D01*
X99937000Y-77407409D01*
X99883314Y-77137511D01*
X99778005Y-76883274D01*
X99625120Y-76654466D01*
X99430535Y-76459881D01*
X99201727Y-76306996D01*
X99124485Y-76275001D01*
X99201727Y-76243006D01*
X99430535Y-76090121D01*
X99625120Y-75895536D01*
X99778005Y-75666728D01*
X99883314Y-75412491D01*
X99937000Y-75142593D01*
X99937000Y-74867409D01*
X99883314Y-74597511D01*
X99778005Y-74343274D01*
X99625120Y-74114466D01*
X99430535Y-73919881D01*
X99201727Y-73766996D01*
X98947490Y-73661687D01*
X98677592Y-73608001D01*
X98402408Y-73608001D01*
X98132510Y-73661687D01*
X97878273Y-73766996D01*
X97649465Y-73919881D01*
X97454880Y-74114466D01*
X97301995Y-74343274D01*
X97196686Y-74597511D01*
X97143000Y-74867409D01*
X95410000Y-74867409D01*
X95410000Y-63029873D01*
X95594866Y-63255134D01*
X95820986Y-63440706D01*
X96078966Y-63578599D01*
X96358889Y-63663513D01*
X96650000Y-63692185D01*
X96941110Y-63663513D01*
X97221033Y-63578599D01*
X97479013Y-63440706D01*
X97495713Y-63427000D01*
X99365000Y-63427000D01*
X99365000Y-63827000D01*
X99418310Y-64114269D01*
X99526639Y-64385618D01*
X99685824Y-64630619D01*
X99889748Y-64839857D01*
X100130574Y-65005291D01*
X100399047Y-65120563D01*
X100493110Y-65141476D01*
X100723000Y-65020155D01*
X100723000Y-63427000D01*
X99365000Y-63427000D01*
X97495713Y-63427000D01*
X97705134Y-63255134D01*
X97890706Y-63029014D01*
X98027548Y-62773000D01*
X99365000Y-62773000D01*
X99365000Y-63173000D01*
X100723000Y-63173000D01*
X100723000Y-61579845D01*
X100493110Y-61458524D01*
X100399047Y-61479437D01*
X100130574Y-61594709D01*
X99889748Y-61760143D01*
X99685824Y-61969381D01*
X99526639Y-62214382D01*
X99418310Y-62485731D01*
X99365000Y-62773000D01*
X98027548Y-62773000D01*
X98028599Y-62771034D01*
X98113513Y-62491111D01*
X98135000Y-62272950D01*
X98135000Y-61327051D01*
X98113513Y-61108889D01*
X98094926Y-61047616D01*
X98165008Y-61094443D01*
X98389764Y-61187540D01*
X98628363Y-61235000D01*
X98871637Y-61235000D01*
X99110236Y-61187540D01*
X99334992Y-61094443D01*
X99537267Y-60959287D01*
X99709287Y-60787267D01*
X99844443Y-60584992D01*
X99937540Y-60360236D01*
X99985000Y-60121637D01*
X99985000Y-59878363D01*
X99937540Y-59639764D01*
X99844443Y-59415008D01*
X99709287Y-59212733D01*
X99537267Y-59040713D01*
X99334992Y-58905557D01*
X99110236Y-58812460D01*
X98871637Y-58765000D01*
X98628363Y-58765000D01*
X98389764Y-58812460D01*
X98165008Y-58905557D01*
X97962733Y-59040713D01*
X97790713Y-59212733D01*
X97655557Y-59415008D01*
X97562460Y-59639764D01*
X97515000Y-59878363D01*
X97515000Y-60121637D01*
X97530972Y-60201935D01*
X97479014Y-60159294D01*
X97221034Y-60021401D01*
X96941111Y-59936487D01*
X96650000Y-59907815D01*
X96358890Y-59936487D01*
X96173571Y-59992703D01*
X94619446Y-58438579D01*
X94593291Y-58406709D01*
X94466146Y-58302364D01*
X94321087Y-58224828D01*
X94163689Y-58177082D01*
X94041019Y-58165000D01*
X94041018Y-58165000D01*
X94000000Y-58160960D01*
X93958982Y-58165000D01*
X84041018Y-58165000D01*
X84000000Y-58160960D01*
X83958981Y-58165000D01*
X83836311Y-58177082D01*
X83678913Y-58224828D01*
X83533854Y-58302364D01*
X83406709Y-58406709D01*
X83380559Y-58438573D01*
X81735000Y-60084133D01*
X81735000Y-59878363D01*
X81687540Y-59639764D01*
X81594443Y-59415008D01*
X81459287Y-59212733D01*
X81287267Y-59040713D01*
X81084992Y-58905557D01*
X81007436Y-58873432D01*
X82795871Y-57084998D01*
X83386715Y-57084998D01*
X83509744Y-57167203D01*
X83698102Y-57245224D01*
X83898061Y-57284998D01*
X84101939Y-57284998D01*
X84301898Y-57245224D01*
X84490256Y-57167203D01*
X84659774Y-57053935D01*
X84803937Y-56909772D01*
X84917205Y-56740254D01*
X84995226Y-56551896D01*
X85035000Y-56351937D01*
X85035000Y-56148059D01*
X84995226Y-55948100D01*
X84917205Y-55759742D01*
X84803937Y-55590224D01*
X84659774Y-55446061D01*
X84490256Y-55332793D01*
X84301898Y-55254772D01*
X84101939Y-55214998D01*
X83898061Y-55214998D01*
X83698102Y-55254772D01*
X83509744Y-55332793D01*
X83386715Y-55414998D01*
X82491020Y-55414998D01*
X82450002Y-55410958D01*
X82408984Y-55414998D01*
X82408983Y-55414998D01*
X82286313Y-55427080D01*
X82128915Y-55474826D01*
X81983856Y-55552362D01*
X81856711Y-55656707D01*
X81830565Y-55688566D01*
X79885000Y-57634132D01*
X79885000Y-57327051D01*
X79863513Y-57108889D01*
X79778599Y-56828966D01*
X79640706Y-56570986D01*
X79455134Y-56344866D01*
X79400465Y-56300000D01*
X79455134Y-56255134D01*
X79640706Y-56029014D01*
X79778599Y-55771034D01*
X79863513Y-55491111D01*
X79885000Y-55272950D01*
X79885000Y-54327051D01*
X79863513Y-54108889D01*
X79844926Y-54047616D01*
X79915008Y-54094443D01*
X80139764Y-54187540D01*
X80378363Y-54235000D01*
X80621637Y-54235000D01*
X80860236Y-54187540D01*
X81084992Y-54094443D01*
X81287267Y-53959287D01*
X81459287Y-53787267D01*
X81594443Y-53584992D01*
X81687540Y-53360236D01*
X81735000Y-53121637D01*
X81735000Y-52878363D01*
X81687540Y-52639764D01*
X81594443Y-52415008D01*
X81459287Y-52212733D01*
X81287267Y-52040713D01*
X81091641Y-51910000D01*
X98158359Y-51910000D01*
X97962733Y-52040713D01*
X97962733Y-52040713D01*
G37*
X97962733Y-52040713D02*
X97790713Y-52212733D01*
X97655557Y-52415008D01*
X97562460Y-52639764D01*
X97515000Y-52878363D01*
X97515000Y-53121637D01*
X97530972Y-53201935D01*
X97479014Y-53159294D01*
X97221034Y-53021401D01*
X96941111Y-52936487D01*
X96650000Y-52907815D01*
X96358890Y-52936487D01*
X96078967Y-53021401D01*
X95820987Y-53159294D01*
X95594866Y-53344866D01*
X95409294Y-53570986D01*
X95271401Y-53828966D01*
X95186487Y-54108889D01*
X95165000Y-54327050D01*
X95165000Y-55272949D01*
X95186487Y-55491110D01*
X95271401Y-55771033D01*
X95409294Y-56029013D01*
X95594866Y-56255134D01*
X95649535Y-56300000D01*
X95594866Y-56344866D01*
X95409294Y-56570986D01*
X95271401Y-56828966D01*
X95186487Y-57108889D01*
X95165000Y-57327050D01*
X95165000Y-58272949D01*
X95186487Y-58491110D01*
X95271401Y-58771033D01*
X95409294Y-59029013D01*
X95594866Y-59255134D01*
X95820986Y-59440706D01*
X96078966Y-59578599D01*
X96358889Y-59663513D01*
X96650000Y-59692185D01*
X96941110Y-59663513D01*
X97221033Y-59578599D01*
X97479013Y-59440706D01*
X97705134Y-59255134D01*
X97890706Y-59029014D01*
X98028599Y-58771034D01*
X98113513Y-58491111D01*
X98135000Y-58272950D01*
X98135000Y-57327051D01*
X98113513Y-57108889D01*
X98028599Y-56828966D01*
X97890706Y-56570986D01*
X97705134Y-56344866D01*
X97650465Y-56300000D01*
X97705134Y-56255134D01*
X97890706Y-56029014D01*
X98028599Y-55771034D01*
X98113513Y-55491111D01*
X98135000Y-55272950D01*
X98135000Y-54327051D01*
X98113513Y-54108889D01*
X98094926Y-54047616D01*
X98165008Y-54094443D01*
X98389764Y-54187540D01*
X98628363Y-54235000D01*
X98871637Y-54235000D01*
X99110236Y-54187540D01*
X99334992Y-54094443D01*
X99537267Y-53959287D01*
X99709287Y-53787267D01*
X99844443Y-53584992D01*
X99937540Y-53360236D01*
X99985000Y-53121637D01*
X99985000Y-52878363D01*
X99937540Y-52639764D01*
X99844443Y-52415008D01*
X99709287Y-52212733D01*
X99537267Y-52040713D01*
X99341641Y-51910000D01*
X101340001Y-51910000D01*
X101340001Y-61496203D01*
X101300953Y-61479437D01*
X101206890Y-61458524D01*
X100977000Y-61579845D01*
X100977000Y-63173000D01*
X100997000Y-63173000D01*
X100997000Y-63427000D01*
X100977000Y-63427000D01*
X100977000Y-65020155D01*
X101206890Y-65141476D01*
X101300953Y-65120563D01*
X101340001Y-65103797D01*
X101340001Y-67835020D01*
X101102550Y-67479651D01*
X100770349Y-67147450D01*
X100379721Y-66886440D01*
X99945679Y-66706654D01*
X99484902Y-66615000D01*
X99015098Y-66615000D01*
X98554321Y-66706654D01*
X98120279Y-66886440D01*
X97729651Y-67147450D01*
X97397450Y-67479651D01*
X97136440Y-67870279D01*
X96956654Y-68304321D01*
X96865000Y-68765098D01*
X96865000Y-69234902D01*
X96956654Y-69695679D01*
X97136440Y-70129721D01*
X97397450Y-70520349D01*
X97729651Y-70852550D01*
X98120279Y-71113560D01*
X98554321Y-71293346D01*
X99015098Y-71385000D01*
X99484902Y-71385000D01*
X99945679Y-71293346D01*
X100379721Y-71113560D01*
X100770349Y-70852550D01*
X101102550Y-70520349D01*
X101340001Y-70164980D01*
X101340000Y-120085019D01*
X101102550Y-119729651D01*
X100770349Y-119397450D01*
X100379721Y-119136440D01*
X99945679Y-118956654D01*
X99484902Y-118865000D01*
X99015098Y-118865000D01*
X98554321Y-118956654D01*
X98120279Y-119136440D01*
X97729651Y-119397450D01*
X97397450Y-119729651D01*
X97136440Y-120120279D01*
X96956654Y-120554321D01*
X96865000Y-121015098D01*
X96865000Y-121484902D01*
X96956654Y-121945679D01*
X97136440Y-122379721D01*
X97397450Y-122770349D01*
X97729651Y-123102550D01*
X98085019Y-123340000D01*
X81164981Y-123340000D01*
X81520349Y-123102550D01*
X81852550Y-122770349D01*
X82113560Y-122379721D01*
X82293346Y-121945679D01*
X82385000Y-121484902D01*
X82385000Y-121015098D01*
X82293346Y-120554321D01*
X82113560Y-120120279D01*
X81852550Y-119729651D01*
X81520349Y-119397450D01*
X81129721Y-119136440D01*
X80695679Y-118956654D01*
X80234902Y-118865000D01*
X79765098Y-118865000D01*
X79304321Y-118956654D01*
X78870279Y-119136440D01*
X78479651Y-119397450D01*
X78147450Y-119729651D01*
X77910000Y-120085019D01*
X77910000Y-116610566D01*
X79974040Y-116610566D01*
X80041020Y-116850657D01*
X80290048Y-116967757D01*
X80557135Y-117034024D01*
X80832017Y-117046911D01*
X81104133Y-117005923D01*
X81363023Y-116912637D01*
X81478980Y-116850657D01*
X81545960Y-116610566D01*
X97754040Y-116610566D01*
X97821020Y-116850657D01*
X98070048Y-116967757D01*
X98337135Y-117034024D01*
X98612017Y-117046911D01*
X98884133Y-117005923D01*
X99143023Y-116912637D01*
X99258980Y-116850657D01*
X99325960Y-116610566D01*
X98540000Y-115824606D01*
X97754040Y-116610566D01*
X81545960Y-116610566D01*
X80760000Y-115824606D01*
X79974040Y-116610566D01*
X77910000Y-116610566D01*
X77910000Y-115717018D01*
X79358090Y-115717018D01*
X79399078Y-115989134D01*
X79492364Y-116248024D01*
X79554344Y-116363981D01*
X79794435Y-116430961D01*
X80580395Y-115645001D01*
X80939605Y-115645001D01*
X81725565Y-116430961D01*
X81965656Y-116363981D01*
X82082756Y-116114953D01*
X82149023Y-115847866D01*
X82155157Y-115717018D01*
X97138090Y-115717018D01*
X97179078Y-115989134D01*
X97272364Y-116248024D01*
X97334344Y-116363981D01*
X97574435Y-116430961D01*
X98360395Y-115645001D01*
X98719605Y-115645001D01*
X99505565Y-116430961D01*
X99745656Y-116363981D01*
X99862756Y-116114953D01*
X99929023Y-115847866D01*
X99941910Y-115572984D01*
X99900922Y-115300868D01*
X99807636Y-115041978D01*
X99745656Y-114926021D01*
X99505565Y-114859041D01*
X98719605Y-115645001D01*
X98360395Y-115645001D01*
X97574435Y-114859041D01*
X97334344Y-114926021D01*
X97217244Y-115175049D01*
X97150977Y-115442136D01*
X97138090Y-115717018D01*
X82155157Y-115717018D01*
X82161910Y-115572984D01*
X82120922Y-115300868D01*
X82027636Y-115041978D01*
X81965656Y-114926021D01*
X81725565Y-114859041D01*
X80939605Y-115645001D01*
X80580395Y-115645001D01*
X79794435Y-114859041D01*
X79554344Y-114926021D01*
X79437244Y-115175049D01*
X79370977Y-115442136D01*
X79358090Y-115717018D01*
X77910000Y-115717018D01*
X77910000Y-74867409D01*
X79363000Y-74867409D01*
X79363000Y-75142593D01*
X79416686Y-75412491D01*
X79521995Y-75666728D01*
X79674880Y-75895536D01*
X79869465Y-76090121D01*
X80098273Y-76243006D01*
X80175515Y-76275001D01*
X80098273Y-76306996D01*
X79869465Y-76459881D01*
X79674880Y-76654466D01*
X79521995Y-76883274D01*
X79416686Y-77137511D01*
X79363000Y-77407409D01*
X79363000Y-77682593D01*
X79416686Y-77952491D01*
X79521995Y-78206728D01*
X79674880Y-78435536D01*
X79869465Y-78630121D01*
X80098273Y-78783006D01*
X80175515Y-78815001D01*
X80098273Y-78846996D01*
X79869465Y-78999881D01*
X79674880Y-79194466D01*
X79521995Y-79423274D01*
X79416686Y-79677511D01*
X79363000Y-79947409D01*
X79363000Y-80222593D01*
X79416686Y-80492491D01*
X79521995Y-80746728D01*
X79674880Y-80975536D01*
X79869465Y-81170121D01*
X80098273Y-81323006D01*
X80175515Y-81355001D01*
X80098273Y-81386996D01*
X79869465Y-81539881D01*
X79674880Y-81734466D01*
X79521995Y-81963274D01*
X79416686Y-82217511D01*
X79363000Y-82487409D01*
X79363000Y-82762593D01*
X79416686Y-83032491D01*
X79521995Y-83286728D01*
X79674880Y-83515536D01*
X79869465Y-83710121D01*
X80098273Y-83863006D01*
X80175515Y-83895001D01*
X80098273Y-83926996D01*
X79869465Y-84079881D01*
X79674880Y-84274466D01*
X79521995Y-84503274D01*
X79416686Y-84757511D01*
X79363000Y-85027409D01*
X79363000Y-85302593D01*
X79416686Y-85572491D01*
X79521995Y-85826728D01*
X79674880Y-86055536D01*
X79869465Y-86250121D01*
X80098273Y-86403006D01*
X80175515Y-86435001D01*
X80098273Y-86466996D01*
X79869465Y-86619881D01*
X79674880Y-86814466D01*
X79521995Y-87043274D01*
X79416686Y-87297511D01*
X79363000Y-87567409D01*
X79363000Y-87842593D01*
X79416686Y-88112491D01*
X79521995Y-88366728D01*
X79674880Y-88595536D01*
X79869465Y-88790121D01*
X80098273Y-88943006D01*
X80175515Y-88975001D01*
X80098273Y-89006996D01*
X79869465Y-89159881D01*
X79674880Y-89354466D01*
X79521995Y-89583274D01*
X79416686Y-89837511D01*
X79363000Y-90107409D01*
X79363000Y-90382593D01*
X79416686Y-90652491D01*
X79521995Y-90906728D01*
X79674880Y-91135536D01*
X79869465Y-91330121D01*
X80098273Y-91483006D01*
X80175515Y-91515001D01*
X80098273Y-91546996D01*
X79869465Y-91699881D01*
X79674880Y-91894466D01*
X79521995Y-92123274D01*
X79416686Y-92377511D01*
X79363000Y-92647409D01*
X79363000Y-92922593D01*
X79416686Y-93192491D01*
X79521995Y-93446728D01*
X79674880Y-93675536D01*
X79869465Y-93870121D01*
X80098273Y-94023006D01*
X80175515Y-94055001D01*
X80098273Y-94086996D01*
X79869465Y-94239881D01*
X79674880Y-94434466D01*
X79521995Y-94663274D01*
X79416686Y-94917511D01*
X79363000Y-95187409D01*
X79363000Y-95462593D01*
X79416686Y-95732491D01*
X79521995Y-95986728D01*
X79674880Y-96215536D01*
X79869465Y-96410121D01*
X80098273Y-96563006D01*
X80175515Y-96595001D01*
X80098273Y-96626996D01*
X79869465Y-96779881D01*
X79674880Y-96974466D01*
X79521995Y-97203274D01*
X79416686Y-97457511D01*
X79363000Y-97727409D01*
X79363000Y-98002593D01*
X79416686Y-98272491D01*
X79521995Y-98526728D01*
X79674880Y-98755536D01*
X79869465Y-98950121D01*
X80098273Y-99103006D01*
X80175515Y-99135001D01*
X80098273Y-99166996D01*
X79869465Y-99319881D01*
X79674880Y-99514466D01*
X79521995Y-99743274D01*
X79416686Y-99997511D01*
X79363000Y-100267409D01*
X79363000Y-100542593D01*
X79416686Y-100812491D01*
X79521995Y-101066728D01*
X79674880Y-101295536D01*
X79869465Y-101490121D01*
X80098273Y-101643006D01*
X80175515Y-101675001D01*
X80098273Y-101706996D01*
X79869465Y-101859881D01*
X79674880Y-102054466D01*
X79521995Y-102283274D01*
X79416686Y-102537511D01*
X79363000Y-102807409D01*
X79363000Y-103082593D01*
X79416686Y-103352491D01*
X79521995Y-103606728D01*
X79674880Y-103835536D01*
X79869465Y-104030121D01*
X80098273Y-104183006D01*
X80175515Y-104215001D01*
X80098273Y-104246996D01*
X79869465Y-104399881D01*
X79674880Y-104594466D01*
X79521995Y-104823274D01*
X79416686Y-105077511D01*
X79363000Y-105347409D01*
X79363000Y-105622593D01*
X79416686Y-105892491D01*
X79521995Y-106146728D01*
X79674880Y-106375536D01*
X79869465Y-106570121D01*
X80098273Y-106723006D01*
X80175515Y-106755001D01*
X80098273Y-106786996D01*
X79869465Y-106939881D01*
X79674880Y-107134466D01*
X79521995Y-107363274D01*
X79416686Y-107617511D01*
X79363000Y-107887409D01*
X79363000Y-108162593D01*
X79416686Y-108432491D01*
X79521995Y-108686728D01*
X79674880Y-108915536D01*
X79869465Y-109110121D01*
X80098273Y-109263006D01*
X80175515Y-109295001D01*
X80098273Y-109326996D01*
X79869465Y-109479881D01*
X79674880Y-109674466D01*
X79521995Y-109903274D01*
X79416686Y-110157511D01*
X79363000Y-110427409D01*
X79363000Y-110702593D01*
X79416686Y-110972491D01*
X79521995Y-111226728D01*
X79674880Y-111455536D01*
X79869465Y-111650121D01*
X80098273Y-111803006D01*
X80175515Y-111835001D01*
X80098273Y-111866996D01*
X79869465Y-112019881D01*
X79674880Y-112214466D01*
X79521995Y-112443274D01*
X79416686Y-112697511D01*
X79363000Y-112967409D01*
X79363000Y-113242593D01*
X79416686Y-113512491D01*
X79521995Y-113766728D01*
X79674880Y-113995536D01*
X79869465Y-114190121D01*
X80098273Y-114343006D01*
X80169943Y-114372693D01*
X80156977Y-114377365D01*
X80041020Y-114439345D01*
X79974040Y-114679436D01*
X80760000Y-115465396D01*
X81545960Y-114679436D01*
X81478980Y-114439345D01*
X81343240Y-114375516D01*
X81421727Y-114343006D01*
X81650535Y-114190121D01*
X81845120Y-113995536D01*
X81998005Y-113766728D01*
X82103314Y-113512491D01*
X82157000Y-113242593D01*
X82157000Y-112967409D01*
X82103314Y-112697511D01*
X81998005Y-112443274D01*
X81845120Y-112214466D01*
X81650535Y-112019881D01*
X81421727Y-111866996D01*
X81344485Y-111835001D01*
X81421727Y-111803006D01*
X81650535Y-111650121D01*
X81845120Y-111455536D01*
X81998005Y-111226728D01*
X82103314Y-110972491D01*
X82157000Y-110702593D01*
X82157000Y-110427409D01*
X82103314Y-110157511D01*
X81998005Y-109903274D01*
X81845120Y-109674466D01*
X81650535Y-109479881D01*
X81421727Y-109326996D01*
X81344485Y-109295001D01*
X81421727Y-109263006D01*
X81650535Y-109110121D01*
X81845120Y-108915536D01*
X81998005Y-108686728D01*
X82103314Y-108432491D01*
X82157000Y-108162593D01*
X82157000Y-107887409D01*
X82103314Y-107617511D01*
X81998005Y-107363274D01*
X81845120Y-107134466D01*
X81650535Y-106939881D01*
X81421727Y-106786996D01*
X81344485Y-106755001D01*
X81421727Y-106723006D01*
X81650535Y-106570121D01*
X81845120Y-106375536D01*
X81998005Y-106146728D01*
X82103314Y-105892491D01*
X82157000Y-105622593D01*
X82157000Y-105347409D01*
X82103314Y-105077511D01*
X81998005Y-104823274D01*
X81845120Y-104594466D01*
X81650535Y-104399881D01*
X81421727Y-104246996D01*
X81344485Y-104215001D01*
X81421727Y-104183006D01*
X81650535Y-104030121D01*
X81845120Y-103835536D01*
X81998005Y-103606728D01*
X82103314Y-103352491D01*
X82157000Y-103082593D01*
X82157000Y-102807409D01*
X82103314Y-102537511D01*
X81998005Y-102283274D01*
X81845120Y-102054466D01*
X81650535Y-101859881D01*
X81421727Y-101706996D01*
X81344485Y-101675001D01*
X81421727Y-101643006D01*
X81650535Y-101490121D01*
X81845120Y-101295536D01*
X81998005Y-101066728D01*
X82103314Y-100812491D01*
X82157000Y-100542593D01*
X82157000Y-100267409D01*
X82103314Y-99997511D01*
X81998005Y-99743274D01*
X81845120Y-99514466D01*
X81650535Y-99319881D01*
X81421727Y-99166996D01*
X81344485Y-99135001D01*
X81421727Y-99103006D01*
X81650535Y-98950121D01*
X81845120Y-98755536D01*
X81998005Y-98526728D01*
X82103314Y-98272491D01*
X82157000Y-98002593D01*
X82157000Y-97727409D01*
X82103314Y-97457511D01*
X81998005Y-97203274D01*
X81845120Y-96974466D01*
X81650535Y-96779881D01*
X81421727Y-96626996D01*
X81344485Y-96595001D01*
X81421727Y-96563006D01*
X81650535Y-96410121D01*
X81845120Y-96215536D01*
X81998005Y-95986728D01*
X82103314Y-95732491D01*
X82157000Y-95462593D01*
X82157000Y-95187409D01*
X82103314Y-94917511D01*
X81998005Y-94663274D01*
X81845120Y-94434466D01*
X81650535Y-94239881D01*
X81421727Y-94086996D01*
X81344485Y-94055001D01*
X81421727Y-94023006D01*
X81650535Y-93870121D01*
X81845120Y-93675536D01*
X81998005Y-93446728D01*
X82103314Y-93192491D01*
X82157000Y-92922593D01*
X82157000Y-92647409D01*
X82103314Y-92377511D01*
X81998005Y-92123274D01*
X81845120Y-91894466D01*
X81650535Y-91699881D01*
X81421727Y-91546996D01*
X81344485Y-91515001D01*
X81421727Y-91483006D01*
X81650535Y-91330121D01*
X81845120Y-91135536D01*
X81998005Y-90906728D01*
X82103314Y-90652491D01*
X82157000Y-90382593D01*
X82157000Y-90107409D01*
X82103314Y-89837511D01*
X81998005Y-89583274D01*
X81845120Y-89354466D01*
X81650535Y-89159881D01*
X81421727Y-89006996D01*
X81344485Y-88975001D01*
X81421727Y-88943006D01*
X81650535Y-88790121D01*
X81845120Y-88595536D01*
X81998005Y-88366728D01*
X82103314Y-88112491D01*
X82157000Y-87842593D01*
X82157000Y-87567409D01*
X82103314Y-87297511D01*
X81998005Y-87043274D01*
X81845120Y-86814466D01*
X81650535Y-86619881D01*
X81421727Y-86466996D01*
X81344485Y-86435001D01*
X81421727Y-86403006D01*
X81650535Y-86250121D01*
X81845120Y-86055536D01*
X81998005Y-85826728D01*
X82103314Y-85572491D01*
X82157000Y-85302593D01*
X82157000Y-85027409D01*
X82103314Y-84757511D01*
X81998005Y-84503274D01*
X81845120Y-84274466D01*
X81650535Y-84079881D01*
X81421727Y-83926996D01*
X81344485Y-83895001D01*
X81421727Y-83863006D01*
X81650535Y-83710121D01*
X81845120Y-83515536D01*
X81998005Y-83286728D01*
X82103314Y-83032491D01*
X82157000Y-82762593D01*
X82157000Y-82487409D01*
X82103314Y-82217511D01*
X81998005Y-81963274D01*
X81845120Y-81734466D01*
X81650535Y-81539881D01*
X81421727Y-81386996D01*
X81344485Y-81355001D01*
X81421727Y-81323006D01*
X81650535Y-81170121D01*
X81845120Y-80975536D01*
X81998005Y-80746728D01*
X82103314Y-80492491D01*
X82157000Y-80222593D01*
X82157000Y-79947409D01*
X82103314Y-79677511D01*
X81998005Y-79423274D01*
X81845120Y-79194466D01*
X81650535Y-78999881D01*
X81421727Y-78846996D01*
X81344485Y-78815001D01*
X81421727Y-78783006D01*
X81650535Y-78630121D01*
X81845120Y-78435536D01*
X81998005Y-78206728D01*
X82103314Y-77952491D01*
X82157000Y-77682593D01*
X82157000Y-77407409D01*
X82103314Y-77137511D01*
X81998005Y-76883274D01*
X81845120Y-76654466D01*
X81650535Y-76459881D01*
X81421727Y-76306996D01*
X81344485Y-76275001D01*
X81421727Y-76243006D01*
X81650535Y-76090121D01*
X81845120Y-75895536D01*
X81998005Y-75666728D01*
X82103314Y-75412491D01*
X82157000Y-75142593D01*
X82157000Y-74867409D01*
X82103314Y-74597511D01*
X81998005Y-74343274D01*
X81845120Y-74114466D01*
X81650535Y-73919881D01*
X81421727Y-73766996D01*
X81167490Y-73661687D01*
X80897592Y-73608001D01*
X80622408Y-73608001D01*
X80352510Y-73661687D01*
X80098273Y-73766996D01*
X79869465Y-73919881D01*
X79674880Y-74114466D01*
X79521995Y-74343274D01*
X79416686Y-74597511D01*
X79363000Y-74867409D01*
X77910000Y-74867409D01*
X77910000Y-70164981D01*
X78147450Y-70520349D01*
X78479651Y-70852550D01*
X78870279Y-71113560D01*
X79304321Y-71293346D01*
X79765098Y-71385000D01*
X80234902Y-71385000D01*
X80695679Y-71293346D01*
X81129721Y-71113560D01*
X81520349Y-70852550D01*
X81852550Y-70520349D01*
X82113560Y-70129721D01*
X82293346Y-69695679D01*
X82385000Y-69234902D01*
X82385000Y-68765098D01*
X82293346Y-68304321D01*
X82113560Y-67870279D01*
X81852550Y-67479651D01*
X81520349Y-67147450D01*
X81129721Y-66886440D01*
X80695679Y-66706654D01*
X80234902Y-66615000D01*
X79765098Y-66615000D01*
X79304321Y-66706654D01*
X78870279Y-66886440D01*
X78479651Y-67147450D01*
X78147450Y-67479651D01*
X77910000Y-67835019D01*
X77910000Y-63603180D01*
X78108889Y-63663513D01*
X78400000Y-63692185D01*
X78691110Y-63663513D01*
X78971033Y-63578599D01*
X79229013Y-63440706D01*
X79245713Y-63427000D01*
X81115000Y-63427000D01*
X81115000Y-63827000D01*
X81168310Y-64114269D01*
X81276639Y-64385618D01*
X81435824Y-64630619D01*
X81639748Y-64839857D01*
X81880574Y-65005291D01*
X82149047Y-65120563D01*
X82243110Y-65141476D01*
X82473000Y-65020155D01*
X82473000Y-63427000D01*
X81115000Y-63427000D01*
X79245713Y-63427000D01*
X79455134Y-63255134D01*
X79640706Y-63029014D01*
X79778599Y-62771034D01*
X79819865Y-62635000D01*
X81140609Y-62635000D01*
X81115000Y-62773000D01*
X81115000Y-63173000D01*
X82473000Y-63173000D01*
X82473000Y-63153000D01*
X82727000Y-63153000D01*
X82727000Y-63173000D01*
X82747000Y-63173000D01*
X82747000Y-63427000D01*
X82727000Y-63427000D01*
X82727000Y-65020155D01*
X82956890Y-65141476D01*
X83050953Y-65120563D01*
X83319426Y-65005291D01*
X83560252Y-64839857D01*
X83764176Y-64630619D01*
X83840001Y-64513917D01*
X83840000Y-84532418D01*
X83842818Y-84561027D01*
X83842753Y-84570288D01*
X83843652Y-84579460D01*
X83874252Y-84870605D01*
X83886283Y-84929217D01*
X83897489Y-84987963D01*
X83900153Y-84996784D01*
X83986721Y-85276440D01*
X84009899Y-85331578D01*
X84032311Y-85387050D01*
X84036638Y-85395186D01*
X84175877Y-85652702D01*
X84209304Y-85702259D01*
X84242080Y-85752347D01*
X84247905Y-85759488D01*
X84434510Y-85985056D01*
X84476965Y-86027215D01*
X84518809Y-86069945D01*
X84525909Y-86075819D01*
X84752773Y-86260845D01*
X84802566Y-86293927D01*
X84851955Y-86327745D01*
X84860061Y-86332127D01*
X85118542Y-86469564D01*
X85173836Y-86492355D01*
X85228829Y-86515925D01*
X85237632Y-86518650D01*
X85517887Y-86603264D01*
X85576564Y-86614882D01*
X85635079Y-86627320D01*
X85644242Y-86628283D01*
X85644244Y-86628283D01*
X85935596Y-86656850D01*
X85935598Y-86656850D01*
X85967581Y-86660000D01*
X93282419Y-86660000D01*
X93311028Y-86657182D01*
X93320288Y-86657247D01*
X93329460Y-86656348D01*
X93620605Y-86625748D01*
X93679217Y-86613717D01*
X93737963Y-86602511D01*
X93746784Y-86599847D01*
X94026440Y-86513279D01*
X94081578Y-86490101D01*
X94137050Y-86467689D01*
X94145181Y-86463365D01*
X94145185Y-86463363D01*
X94145188Y-86463361D01*
X94402702Y-86324123D01*
X94452259Y-86290696D01*
X94502347Y-86257920D01*
X94509488Y-86252095D01*
X94735056Y-86065490D01*
X94777215Y-86023035D01*
X94819945Y-85981191D01*
X94825819Y-85974091D01*
X95010845Y-85747227D01*
X95043927Y-85697434D01*
X95077745Y-85648045D01*
X95082127Y-85639939D01*
X95219564Y-85381458D01*
X95242355Y-85326164D01*
X95265925Y-85271171D01*
X95268650Y-85262368D01*
X95353264Y-84982113D01*
X95364882Y-84923436D01*
X95377320Y-84864921D01*
X95378283Y-84855756D01*
X95406850Y-84564404D01*
X95406850Y-84564402D01*
X95410000Y-84532419D01*
X95410000Y-74867409D01*
X97143000Y-74867409D01*
X97143000Y-75142593D01*
X97196686Y-75412491D01*
X97301995Y-75666728D01*
X97454880Y-75895536D01*
X97649465Y-76090121D01*
X97878273Y-76243006D01*
X97955515Y-76275001D01*
X97878273Y-76306996D01*
X97649465Y-76459881D01*
X97454880Y-76654466D01*
X97301995Y-76883274D01*
X97196686Y-77137511D01*
X97143000Y-77407409D01*
X97143000Y-77682593D01*
X97196686Y-77952491D01*
X97301995Y-78206728D01*
X97454880Y-78435536D01*
X97649465Y-78630121D01*
X97878273Y-78783006D01*
X97955515Y-78815001D01*
X97878273Y-78846996D01*
X97649465Y-78999881D01*
X97454880Y-79194466D01*
X97301995Y-79423274D01*
X97196686Y-79677511D01*
X97143000Y-79947409D01*
X97143000Y-80222593D01*
X97196686Y-80492491D01*
X97301995Y-80746728D01*
X97454880Y-80975536D01*
X97649465Y-81170121D01*
X97878273Y-81323006D01*
X97955515Y-81355001D01*
X97878273Y-81386996D01*
X97649465Y-81539881D01*
X97454880Y-81734466D01*
X97301995Y-81963274D01*
X97196686Y-82217511D01*
X97143000Y-82487409D01*
X97143000Y-82762593D01*
X97196686Y-83032491D01*
X97301995Y-83286728D01*
X97454880Y-83515536D01*
X97649465Y-83710121D01*
X97878273Y-83863006D01*
X97955515Y-83895001D01*
X97878273Y-83926996D01*
X97649465Y-84079881D01*
X97454880Y-84274466D01*
X97301995Y-84503274D01*
X97196686Y-84757511D01*
X97143000Y-85027409D01*
X97143000Y-85302593D01*
X97196686Y-85572491D01*
X97301995Y-85826728D01*
X97454880Y-86055536D01*
X97649465Y-86250121D01*
X97878273Y-86403006D01*
X97955515Y-86435001D01*
X97878273Y-86466996D01*
X97649465Y-86619881D01*
X97454880Y-86814466D01*
X97301995Y-87043274D01*
X97196686Y-87297511D01*
X97143000Y-87567409D01*
X97143000Y-87842593D01*
X97196686Y-88112491D01*
X97301995Y-88366728D01*
X97454880Y-88595536D01*
X97649465Y-88790121D01*
X97878273Y-88943006D01*
X97955515Y-88975001D01*
X97878273Y-89006996D01*
X97649465Y-89159881D01*
X97454880Y-89354466D01*
X97301995Y-89583274D01*
X97196686Y-89837511D01*
X97143000Y-90107409D01*
X97143000Y-90382593D01*
X97196686Y-90652491D01*
X97301995Y-90906728D01*
X97454880Y-91135536D01*
X97649465Y-91330121D01*
X97878273Y-91483006D01*
X97955515Y-91515001D01*
X97878273Y-91546996D01*
X97649465Y-91699881D01*
X97454880Y-91894466D01*
X97301995Y-92123274D01*
X97196686Y-92377511D01*
X97143000Y-92647409D01*
X97143000Y-92922593D01*
X97196686Y-93192491D01*
X97301995Y-93446728D01*
X97454880Y-93675536D01*
X97649465Y-93870121D01*
X97878273Y-94023006D01*
X97955515Y-94055001D01*
X97878273Y-94086996D01*
X97649465Y-94239881D01*
X97454880Y-94434466D01*
X97301995Y-94663274D01*
X97196686Y-94917511D01*
X97143000Y-95187409D01*
X97143000Y-95462593D01*
X97196686Y-95732491D01*
X97301995Y-95986728D01*
X97454880Y-96215536D01*
X97649465Y-96410121D01*
X97878273Y-96563006D01*
X97955515Y-96595001D01*
X97878273Y-96626996D01*
X97649465Y-96779881D01*
X97454880Y-96974466D01*
X97301995Y-97203274D01*
X97196686Y-97457511D01*
X97143000Y-97727409D01*
X97143000Y-98002593D01*
X97196686Y-98272491D01*
X97301995Y-98526728D01*
X97454880Y-98755536D01*
X97649465Y-98950121D01*
X97878273Y-99103006D01*
X97955515Y-99135001D01*
X97878273Y-99166996D01*
X97649465Y-99319881D01*
X97454880Y-99514466D01*
X97301995Y-99743274D01*
X97196686Y-99997511D01*
X97143000Y-100267409D01*
X97143000Y-100542593D01*
X97196686Y-100812491D01*
X97301995Y-101066728D01*
X97454880Y-101295536D01*
X97649465Y-101490121D01*
X97878273Y-101643006D01*
X97955515Y-101675001D01*
X97878273Y-101706996D01*
X97649465Y-101859881D01*
X97454880Y-102054466D01*
X97301995Y-102283274D01*
X97196686Y-102537511D01*
X97143000Y-102807409D01*
X97143000Y-103082593D01*
X97196686Y-103352491D01*
X97301995Y-103606728D01*
X97454880Y-103835536D01*
X97649465Y-104030121D01*
X97878273Y-104183006D01*
X97955515Y-104215001D01*
X97878273Y-104246996D01*
X97649465Y-104399881D01*
X97454880Y-104594466D01*
X97301995Y-104823274D01*
X97196686Y-105077511D01*
X97143000Y-105347409D01*
X97143000Y-105622593D01*
X97196686Y-105892491D01*
X97301995Y-106146728D01*
X97454880Y-106375536D01*
X97649465Y-106570121D01*
X97878273Y-106723006D01*
X97955515Y-106755001D01*
X97878273Y-106786996D01*
X97649465Y-106939881D01*
X97454880Y-107134466D01*
X97301995Y-107363274D01*
X97196686Y-107617511D01*
X97143000Y-107887409D01*
X97143000Y-108162593D01*
X97196686Y-108432491D01*
X97301995Y-108686728D01*
X97454880Y-108915536D01*
X97649465Y-109110121D01*
X97878273Y-109263006D01*
X97955515Y-109295001D01*
X97878273Y-109326996D01*
X97649465Y-109479881D01*
X97454880Y-109674466D01*
X97301995Y-109903274D01*
X97196686Y-110157511D01*
X97143000Y-110427409D01*
X97143000Y-110702593D01*
X97196686Y-110972491D01*
X97301995Y-111226728D01*
X97454880Y-111455536D01*
X97649465Y-111650121D01*
X97878273Y-111803006D01*
X97955515Y-111835001D01*
X97878273Y-111866996D01*
X97649465Y-112019881D01*
X97454880Y-112214466D01*
X97301995Y-112443274D01*
X97196686Y-112697511D01*
X97143000Y-112967409D01*
X97143000Y-113242593D01*
X97196686Y-113512491D01*
X97301995Y-113766728D01*
X97454880Y-113995536D01*
X97649465Y-114190121D01*
X97878273Y-114343006D01*
X97949943Y-114372693D01*
X97936977Y-114377365D01*
X97821020Y-114439345D01*
X97754040Y-114679436D01*
X98540000Y-115465396D01*
X99325960Y-114679436D01*
X99258980Y-114439345D01*
X99123240Y-114375516D01*
X99201727Y-114343006D01*
X99430535Y-114190121D01*
X99625120Y-113995536D01*
X99778005Y-113766728D01*
X99883314Y-113512491D01*
X99937000Y-113242593D01*
X99937000Y-112967409D01*
X99883314Y-112697511D01*
X99778005Y-112443274D01*
X99625120Y-112214466D01*
X99430535Y-112019881D01*
X99201727Y-111866996D01*
X99124485Y-111835001D01*
X99201727Y-111803006D01*
X99430535Y-111650121D01*
X99625120Y-111455536D01*
X99778005Y-111226728D01*
X99883314Y-110972491D01*
X99937000Y-110702593D01*
X99937000Y-110427409D01*
X99883314Y-110157511D01*
X99778005Y-109903274D01*
X99625120Y-109674466D01*
X99430535Y-109479881D01*
X99201727Y-109326996D01*
X99124485Y-109295001D01*
X99201727Y-109263006D01*
X99430535Y-109110121D01*
X99625120Y-108915536D01*
X99778005Y-108686728D01*
X99883314Y-108432491D01*
X99937000Y-108162593D01*
X99937000Y-107887409D01*
X99883314Y-107617511D01*
X99778005Y-107363274D01*
X99625120Y-107134466D01*
X99430535Y-106939881D01*
X99201727Y-106786996D01*
X99124485Y-106755001D01*
X99201727Y-106723006D01*
X99430535Y-106570121D01*
X99625120Y-106375536D01*
X99778005Y-106146728D01*
X99883314Y-105892491D01*
X99937000Y-105622593D01*
X99937000Y-105347409D01*
X99883314Y-105077511D01*
X99778005Y-104823274D01*
X99625120Y-104594466D01*
X99430535Y-104399881D01*
X99201727Y-104246996D01*
X99124485Y-104215001D01*
X99201727Y-104183006D01*
X99430535Y-104030121D01*
X99625120Y-103835536D01*
X99778005Y-103606728D01*
X99883314Y-103352491D01*
X99937000Y-103082593D01*
X99937000Y-102807409D01*
X99883314Y-102537511D01*
X99778005Y-102283274D01*
X99625120Y-102054466D01*
X99430535Y-101859881D01*
X99201727Y-101706996D01*
X99124485Y-101675001D01*
X99201727Y-101643006D01*
X99430535Y-101490121D01*
X99625120Y-101295536D01*
X99778005Y-101066728D01*
X99883314Y-100812491D01*
X99937000Y-100542593D01*
X99937000Y-100267409D01*
X99883314Y-99997511D01*
X99778005Y-99743274D01*
X99625120Y-99514466D01*
X99430535Y-99319881D01*
X99201727Y-99166996D01*
X99124485Y-99135001D01*
X99201727Y-99103006D01*
X99430535Y-98950121D01*
X99625120Y-98755536D01*
X99778005Y-98526728D01*
X99883314Y-98272491D01*
X99937000Y-98002593D01*
X99937000Y-97727409D01*
X99883314Y-97457511D01*
X99778005Y-97203274D01*
X99625120Y-96974466D01*
X99430535Y-96779881D01*
X99201727Y-96626996D01*
X99124485Y-96595001D01*
X99201727Y-96563006D01*
X99430535Y-96410121D01*
X99625120Y-96215536D01*
X99778005Y-95986728D01*
X99883314Y-95732491D01*
X99937000Y-95462593D01*
X99937000Y-95187409D01*
X99883314Y-94917511D01*
X99778005Y-94663274D01*
X99625120Y-94434466D01*
X99430535Y-94239881D01*
X99201727Y-94086996D01*
X99124485Y-94055001D01*
X99201727Y-94023006D01*
X99430535Y-93870121D01*
X99625120Y-93675536D01*
X99778005Y-93446728D01*
X99883314Y-93192491D01*
X99937000Y-92922593D01*
X99937000Y-92647409D01*
X99883314Y-92377511D01*
X99778005Y-92123274D01*
X99625120Y-91894466D01*
X99430535Y-91699881D01*
X99201727Y-91546996D01*
X99124485Y-91515001D01*
X99201727Y-91483006D01*
X99430535Y-91330121D01*
X99625120Y-91135536D01*
X99778005Y-90906728D01*
X99883314Y-90652491D01*
X99937000Y-90382593D01*
X99937000Y-90107409D01*
X99883314Y-89837511D01*
X99778005Y-89583274D01*
X99625120Y-89354466D01*
X99430535Y-89159881D01*
X99201727Y-89006996D01*
X99124485Y-88975001D01*
X99201727Y-88943006D01*
X99430535Y-88790121D01*
X99625120Y-88595536D01*
X99778005Y-88366728D01*
X99883314Y-88112491D01*
X99937000Y-87842593D01*
X99937000Y-87567409D01*
X99883314Y-87297511D01*
X99778005Y-87043274D01*
X99625120Y-86814466D01*
X99430535Y-86619881D01*
X99201727Y-86466996D01*
X99124485Y-86435001D01*
X99201727Y-86403006D01*
X99430535Y-86250121D01*
X99625120Y-86055536D01*
X99778005Y-85826728D01*
X99883314Y-85572491D01*
X99937000Y-85302593D01*
X99937000Y-85027409D01*
X99883314Y-84757511D01*
X99778005Y-84503274D01*
X99625120Y-84274466D01*
X99430535Y-84079881D01*
X99201727Y-83926996D01*
X99124485Y-83895001D01*
X99201727Y-83863006D01*
X99430535Y-83710121D01*
X99625120Y-83515536D01*
X99778005Y-83286728D01*
X99883314Y-83032491D01*
X99937000Y-82762593D01*
X99937000Y-82487409D01*
X99883314Y-82217511D01*
X99778005Y-81963274D01*
X99625120Y-81734466D01*
X99430535Y-81539881D01*
X99201727Y-81386996D01*
X99124485Y-81355001D01*
X99201727Y-81323006D01*
X99430535Y-81170121D01*
X99625120Y-80975536D01*
X99778005Y-80746728D01*
X99883314Y-80492491D01*
X99937000Y-80222593D01*
X99937000Y-79947409D01*
X99883314Y-79677511D01*
X99778005Y-79423274D01*
X99625120Y-79194466D01*
X99430535Y-78999881D01*
X99201727Y-78846996D01*
X99124485Y-78815001D01*
X99201727Y-78783006D01*
X99430535Y-78630121D01*
X99625120Y-78435536D01*
X99778005Y-78206728D01*
X99883314Y-77952491D01*
X99937000Y-77682593D01*
X99937000Y-77407409D01*
X99883314Y-77137511D01*
X99778005Y-76883274D01*
X99625120Y-76654466D01*
X99430535Y-76459881D01*
X99201727Y-76306996D01*
X99124485Y-76275001D01*
X99201727Y-76243006D01*
X99430535Y-76090121D01*
X99625120Y-75895536D01*
X99778005Y-75666728D01*
X99883314Y-75412491D01*
X99937000Y-75142593D01*
X99937000Y-74867409D01*
X99883314Y-74597511D01*
X99778005Y-74343274D01*
X99625120Y-74114466D01*
X99430535Y-73919881D01*
X99201727Y-73766996D01*
X98947490Y-73661687D01*
X98677592Y-73608001D01*
X98402408Y-73608001D01*
X98132510Y-73661687D01*
X97878273Y-73766996D01*
X97649465Y-73919881D01*
X97454880Y-74114466D01*
X97301995Y-74343274D01*
X97196686Y-74597511D01*
X97143000Y-74867409D01*
X95410000Y-74867409D01*
X95410000Y-63029873D01*
X95594866Y-63255134D01*
X95820986Y-63440706D01*
X96078966Y-63578599D01*
X96358889Y-63663513D01*
X96650000Y-63692185D01*
X96941110Y-63663513D01*
X97221033Y-63578599D01*
X97479013Y-63440706D01*
X97495713Y-63427000D01*
X99365000Y-63427000D01*
X99365000Y-63827000D01*
X99418310Y-64114269D01*
X99526639Y-64385618D01*
X99685824Y-64630619D01*
X99889748Y-64839857D01*
X100130574Y-65005291D01*
X100399047Y-65120563D01*
X100493110Y-65141476D01*
X100723000Y-65020155D01*
X100723000Y-63427000D01*
X99365000Y-63427000D01*
X97495713Y-63427000D01*
X97705134Y-63255134D01*
X97890706Y-63029014D01*
X98027548Y-62773000D01*
X99365000Y-62773000D01*
X99365000Y-63173000D01*
X100723000Y-63173000D01*
X100723000Y-61579845D01*
X100493110Y-61458524D01*
X100399047Y-61479437D01*
X100130574Y-61594709D01*
X99889748Y-61760143D01*
X99685824Y-61969381D01*
X99526639Y-62214382D01*
X99418310Y-62485731D01*
X99365000Y-62773000D01*
X98027548Y-62773000D01*
X98028599Y-62771034D01*
X98113513Y-62491111D01*
X98135000Y-62272950D01*
X98135000Y-61327051D01*
X98113513Y-61108889D01*
X98094926Y-61047616D01*
X98165008Y-61094443D01*
X98389764Y-61187540D01*
X98628363Y-61235000D01*
X98871637Y-61235000D01*
X99110236Y-61187540D01*
X99334992Y-61094443D01*
X99537267Y-60959287D01*
X99709287Y-60787267D01*
X99844443Y-60584992D01*
X99937540Y-60360236D01*
X99985000Y-60121637D01*
X99985000Y-59878363D01*
X99937540Y-59639764D01*
X99844443Y-59415008D01*
X99709287Y-59212733D01*
X99537267Y-59040713D01*
X99334992Y-58905557D01*
X99110236Y-58812460D01*
X98871637Y-58765000D01*
X98628363Y-58765000D01*
X98389764Y-58812460D01*
X98165008Y-58905557D01*
X97962733Y-59040713D01*
X97790713Y-59212733D01*
X97655557Y-59415008D01*
X97562460Y-59639764D01*
X97515000Y-59878363D01*
X97515000Y-60121637D01*
X97530972Y-60201935D01*
X97479014Y-60159294D01*
X97221034Y-60021401D01*
X96941111Y-59936487D01*
X96650000Y-59907815D01*
X96358890Y-59936487D01*
X96173571Y-59992703D01*
X94619446Y-58438579D01*
X94593291Y-58406709D01*
X94466146Y-58302364D01*
X94321087Y-58224828D01*
X94163689Y-58177082D01*
X94041019Y-58165000D01*
X94041018Y-58165000D01*
X94000000Y-58160960D01*
X93958982Y-58165000D01*
X84041018Y-58165000D01*
X84000000Y-58160960D01*
X83958981Y-58165000D01*
X83836311Y-58177082D01*
X83678913Y-58224828D01*
X83533854Y-58302364D01*
X83406709Y-58406709D01*
X83380559Y-58438573D01*
X81735000Y-60084133D01*
X81735000Y-59878363D01*
X81687540Y-59639764D01*
X81594443Y-59415008D01*
X81459287Y-59212733D01*
X81287267Y-59040713D01*
X81084992Y-58905557D01*
X81007436Y-58873432D01*
X82795871Y-57084998D01*
X83386715Y-57084998D01*
X83509744Y-57167203D01*
X83698102Y-57245224D01*
X83898061Y-57284998D01*
X84101939Y-57284998D01*
X84301898Y-57245224D01*
X84490256Y-57167203D01*
X84659774Y-57053935D01*
X84803937Y-56909772D01*
X84917205Y-56740254D01*
X84995226Y-56551896D01*
X85035000Y-56351937D01*
X85035000Y-56148059D01*
X84995226Y-55948100D01*
X84917205Y-55759742D01*
X84803937Y-55590224D01*
X84659774Y-55446061D01*
X84490256Y-55332793D01*
X84301898Y-55254772D01*
X84101939Y-55214998D01*
X83898061Y-55214998D01*
X83698102Y-55254772D01*
X83509744Y-55332793D01*
X83386715Y-55414998D01*
X82491020Y-55414998D01*
X82450002Y-55410958D01*
X82408984Y-55414998D01*
X82408983Y-55414998D01*
X82286313Y-55427080D01*
X82128915Y-55474826D01*
X81983856Y-55552362D01*
X81856711Y-55656707D01*
X81830565Y-55688566D01*
X79885000Y-57634132D01*
X79885000Y-57327051D01*
X79863513Y-57108889D01*
X79778599Y-56828966D01*
X79640706Y-56570986D01*
X79455134Y-56344866D01*
X79400465Y-56300000D01*
X79455134Y-56255134D01*
X79640706Y-56029014D01*
X79778599Y-55771034D01*
X79863513Y-55491111D01*
X79885000Y-55272950D01*
X79885000Y-54327051D01*
X79863513Y-54108889D01*
X79844926Y-54047616D01*
X79915008Y-54094443D01*
X80139764Y-54187540D01*
X80378363Y-54235000D01*
X80621637Y-54235000D01*
X80860236Y-54187540D01*
X81084992Y-54094443D01*
X81287267Y-53959287D01*
X81459287Y-53787267D01*
X81594443Y-53584992D01*
X81687540Y-53360236D01*
X81735000Y-53121637D01*
X81735000Y-52878363D01*
X81687540Y-52639764D01*
X81594443Y-52415008D01*
X81459287Y-52212733D01*
X81287267Y-52040713D01*
X81091641Y-51910000D01*
X98158359Y-51910000D01*
X97962733Y-52040713D01*
M02*
