G04 #@! TF.GenerationSoftware,KiCad,Pcbnew,(5.1.0-0)*
G04 #@! TF.CreationDate,2019-06-09T21:10:29+02:00*
G04 #@! TF.ProjectId,blackpill-pendant,626c6163-6b70-4696-9c6c-2d70656e6461,rev?*
G04 #@! TF.SameCoordinates,Original*
G04 #@! TF.FileFunction,Legend,Top*
G04 #@! TF.FilePolarity,Positive*
%FSLAX46Y46*%
G04 Gerber Fmt 4.6, Leading zero omitted, Abs format (unit mm)*
G04 Created by KiCad (PCBNEW (5.1.0-0)) date 2019-06-09 21:10:29*
%MOMM*%
%LPD*%
G04 APERTURE LIST*
%ADD10C,0.120000*%
%ADD11C,0.150000*%
%ADD12C,0.300000*%
G04 APERTURE END LIST*
D10*
X90500000Y-121500000D02*
X90500000Y-88500000D01*
D11*
X91600000Y-116288214D02*
X91600000Y-116002500D01*
X91771428Y-116345357D02*
X91171428Y-116145357D01*
X91771428Y-115945357D01*
X91771428Y-115402500D02*
X91485714Y-115602500D01*
X91771428Y-115745357D02*
X91171428Y-115745357D01*
X91171428Y-115516785D01*
X91200000Y-115459642D01*
X91228571Y-115431071D01*
X91285714Y-115402500D01*
X91371428Y-115402500D01*
X91428571Y-115431071D01*
X91457142Y-115459642D01*
X91485714Y-115516785D01*
X91485714Y-115745357D01*
X91771428Y-115145357D02*
X91171428Y-115145357D01*
X91600000Y-114945357D01*
X91171428Y-114745357D01*
X91771428Y-114745357D01*
X91714285Y-113659642D02*
X91742857Y-113688214D01*
X91771428Y-113773928D01*
X91771428Y-113831071D01*
X91742857Y-113916785D01*
X91685714Y-113973928D01*
X91628571Y-114002500D01*
X91514285Y-114031071D01*
X91428571Y-114031071D01*
X91314285Y-114002500D01*
X91257142Y-113973928D01*
X91200000Y-113916785D01*
X91171428Y-113831071D01*
X91171428Y-113773928D01*
X91200000Y-113688214D01*
X91228571Y-113659642D01*
X91771428Y-113316785D02*
X91742857Y-113373928D01*
X91714285Y-113402500D01*
X91657142Y-113431071D01*
X91485714Y-113431071D01*
X91428571Y-113402500D01*
X91400000Y-113373928D01*
X91371428Y-113316785D01*
X91371428Y-113231071D01*
X91400000Y-113173928D01*
X91428571Y-113145357D01*
X91485714Y-113116785D01*
X91657142Y-113116785D01*
X91714285Y-113145357D01*
X91742857Y-113173928D01*
X91771428Y-113231071D01*
X91771428Y-113316785D01*
X91771428Y-112859642D02*
X91371428Y-112859642D01*
X91485714Y-112859642D02*
X91428571Y-112831071D01*
X91400000Y-112802500D01*
X91371428Y-112745357D01*
X91371428Y-112688214D01*
X91371428Y-112573928D02*
X91371428Y-112345357D01*
X91171428Y-112488214D02*
X91685714Y-112488214D01*
X91742857Y-112459642D01*
X91771428Y-112402500D01*
X91771428Y-112345357D01*
X91742857Y-111916785D02*
X91771428Y-111973928D01*
X91771428Y-112088214D01*
X91742857Y-112145357D01*
X91685714Y-112173928D01*
X91457142Y-112173928D01*
X91400000Y-112145357D01*
X91371428Y-112088214D01*
X91371428Y-111973928D01*
X91400000Y-111916785D01*
X91457142Y-111888214D01*
X91514285Y-111888214D01*
X91571428Y-112173928D01*
X91771428Y-111688214D02*
X91371428Y-111373928D01*
X91371428Y-111688214D02*
X91771428Y-111373928D01*
X91542857Y-111145357D02*
X91542857Y-110688214D01*
X91771428Y-110402500D02*
X91171428Y-110402500D01*
X91600000Y-110202500D01*
X91171428Y-110002500D01*
X91771428Y-110002500D01*
X91171428Y-109773928D02*
X91171428Y-109402500D01*
X91400000Y-109602500D01*
X91400000Y-109516785D01*
X91428571Y-109459642D01*
X91457142Y-109431071D01*
X91514285Y-109402500D01*
X91657142Y-109402500D01*
X91714285Y-109431071D01*
X91742857Y-109459642D01*
X91771428Y-109516785D01*
X91771428Y-109688214D01*
X91742857Y-109745357D01*
X91714285Y-109773928D01*
X91771428Y-108345357D02*
X91485714Y-108545357D01*
X91771428Y-108688214D02*
X91171428Y-108688214D01*
X91171428Y-108459642D01*
X91200000Y-108402500D01*
X91228571Y-108373928D01*
X91285714Y-108345357D01*
X91371428Y-108345357D01*
X91428571Y-108373928D01*
X91457142Y-108402500D01*
X91485714Y-108459642D01*
X91485714Y-108688214D01*
X91771428Y-108088214D02*
X91171428Y-108088214D01*
X91742857Y-107831071D02*
X91771428Y-107745357D01*
X91771428Y-107602500D01*
X91742857Y-107545357D01*
X91714285Y-107516785D01*
X91657142Y-107488214D01*
X91600000Y-107488214D01*
X91542857Y-107516785D01*
X91514285Y-107545357D01*
X91485714Y-107602500D01*
X91457142Y-107716785D01*
X91428571Y-107773928D01*
X91400000Y-107802500D01*
X91342857Y-107831071D01*
X91285714Y-107831071D01*
X91228571Y-107802500D01*
X91200000Y-107773928D01*
X91171428Y-107716785D01*
X91171428Y-107573928D01*
X91200000Y-107488214D01*
X91714285Y-106888214D02*
X91742857Y-106916785D01*
X91771428Y-107002500D01*
X91771428Y-107059642D01*
X91742857Y-107145357D01*
X91685714Y-107202500D01*
X91628571Y-107231071D01*
X91514285Y-107259642D01*
X91428571Y-107259642D01*
X91314285Y-107231071D01*
X91257142Y-107202500D01*
X91200000Y-107145357D01*
X91171428Y-107059642D01*
X91171428Y-107002500D01*
X91200000Y-106916785D01*
X91228571Y-106888214D01*
X91771428Y-106173928D02*
X91171428Y-106173928D01*
X91600000Y-105973928D01*
X91171428Y-105773928D01*
X91771428Y-105773928D01*
X91714285Y-105145357D02*
X91742857Y-105173928D01*
X91771428Y-105259642D01*
X91771428Y-105316785D01*
X91742857Y-105402500D01*
X91685714Y-105459642D01*
X91628571Y-105488214D01*
X91514285Y-105516785D01*
X91428571Y-105516785D01*
X91314285Y-105488214D01*
X91257142Y-105459642D01*
X91200000Y-105402500D01*
X91171428Y-105316785D01*
X91171428Y-105259642D01*
X91200000Y-105173928D01*
X91228571Y-105145357D01*
X91171428Y-104888214D02*
X91657142Y-104888214D01*
X91714285Y-104859642D01*
X91742857Y-104831071D01*
X91771428Y-104773928D01*
X91771428Y-104659642D01*
X91742857Y-104602500D01*
X91714285Y-104573928D01*
X91657142Y-104545357D01*
X91171428Y-104545357D01*
D12*
X89678571Y-116352619D02*
X88178571Y-116352619D01*
X89250000Y-115019285D01*
X88178571Y-113685952D01*
X89678571Y-113685952D01*
X89678571Y-111209761D02*
X89607142Y-111590714D01*
X89535714Y-111781190D01*
X89392857Y-111971666D01*
X88964285Y-111971666D01*
X88821428Y-111781190D01*
X88750000Y-111590714D01*
X88678571Y-111209761D01*
X88678571Y-110638333D01*
X88750000Y-110257380D01*
X88821428Y-110066904D01*
X88964285Y-109876428D01*
X89392857Y-109876428D01*
X89535714Y-110066904D01*
X89607142Y-110257380D01*
X89678571Y-110638333D01*
X89678571Y-111209761D01*
X89678571Y-106447857D02*
X88178571Y-106447857D01*
X89607142Y-106447857D02*
X89678571Y-106828809D01*
X89678571Y-107590714D01*
X89607142Y-107971666D01*
X89535714Y-108162142D01*
X89392857Y-108352619D01*
X88964285Y-108352619D01*
X88821428Y-108162142D01*
X88750000Y-107971666D01*
X88678571Y-107590714D01*
X88678571Y-106828809D01*
X88750000Y-106447857D01*
X88678571Y-102828809D02*
X89678571Y-102828809D01*
X88678571Y-104543095D02*
X89464285Y-104543095D01*
X89607142Y-104352619D01*
X89678571Y-103971666D01*
X89678571Y-103400238D01*
X89607142Y-103019285D01*
X89535714Y-102828809D01*
X89678571Y-100352619D02*
X89607142Y-100733571D01*
X89464285Y-100924047D01*
X88178571Y-100924047D01*
X89678571Y-98257380D02*
X89607142Y-98638333D01*
X89535714Y-98828809D01*
X89392857Y-99019285D01*
X88964285Y-99019285D01*
X88821428Y-98828809D01*
X88750000Y-98638333D01*
X88678571Y-98257380D01*
X88678571Y-97685952D01*
X88750000Y-97305000D01*
X88821428Y-97114523D01*
X88964285Y-96924047D01*
X89392857Y-96924047D01*
X89535714Y-97114523D01*
X89607142Y-97305000D01*
X89678571Y-97685952D01*
X89678571Y-98257380D01*
D11*
X104238095Y-119452380D02*
X104238095Y-118452380D01*
X104238095Y-118928571D02*
X104809523Y-118928571D01*
X104809523Y-119452380D02*
X104809523Y-118452380D01*
X105714285Y-118785714D02*
X105714285Y-119452380D01*
X105476190Y-118404761D02*
X105238095Y-119119047D01*
X105857142Y-119119047D01*
X91988095Y-71202380D02*
X91988095Y-70202380D01*
X91988095Y-70678571D02*
X92559523Y-70678571D01*
X92559523Y-71202380D02*
X92559523Y-70202380D01*
X92940476Y-70202380D02*
X93559523Y-70202380D01*
X93226190Y-70583333D01*
X93369047Y-70583333D01*
X93464285Y-70630952D01*
X93511904Y-70678571D01*
X93559523Y-70773809D01*
X93559523Y-71011904D01*
X93511904Y-71107142D01*
X93464285Y-71154761D01*
X93369047Y-71202380D01*
X93083333Y-71202380D01*
X92988095Y-71154761D01*
X92940476Y-71107142D01*
X73738095Y-121202380D02*
X73738095Y-120202380D01*
X73738095Y-120678571D02*
X74309523Y-120678571D01*
X74309523Y-121202380D02*
X74309523Y-120202380D01*
X74738095Y-120297619D02*
X74785714Y-120250000D01*
X74880952Y-120202380D01*
X75119047Y-120202380D01*
X75214285Y-120250000D01*
X75261904Y-120297619D01*
X75309523Y-120392857D01*
X75309523Y-120488095D01*
X75261904Y-120630952D01*
X74690476Y-121202380D01*
X75309523Y-121202380D01*
X85988095Y-70702380D02*
X85988095Y-69702380D01*
X85988095Y-70178571D02*
X86559523Y-70178571D01*
X86559523Y-70702380D02*
X86559523Y-69702380D01*
X87559523Y-70702380D02*
X86988095Y-70702380D01*
X87273809Y-70702380D02*
X87273809Y-69702380D01*
X87178571Y-69845238D01*
X87083333Y-69940476D01*
X86988095Y-69988095D01*
X88988095Y-81702380D02*
X88988095Y-82511904D01*
X89035714Y-82607142D01*
X89083333Y-82654761D01*
X89178571Y-82702380D01*
X89369047Y-82702380D01*
X89464285Y-82654761D01*
X89511904Y-82607142D01*
X89559523Y-82511904D01*
X89559523Y-81702380D01*
X90559523Y-82702380D02*
X89988095Y-82702380D01*
X90273809Y-82702380D02*
X90273809Y-81702380D01*
X90178571Y-81845238D01*
X90083333Y-81940476D01*
X89988095Y-81988095D01*
M02*
