G04 #@! TF.GenerationSoftware,KiCad,Pcbnew,(5.1.0-0)*
G04 #@! TF.CreationDate,2019-06-09T21:10:29+02:00*
G04 #@! TF.ProjectId,blackpill-pendant,626c6163-6b70-4696-9c6c-2d70656e6461,rev?*
G04 #@! TF.SameCoordinates,Original*
G04 #@! TF.FileFunction,Soldermask,Bot*
G04 #@! TF.FilePolarity,Negative*
%FSLAX46Y46*%
G04 Gerber Fmt 4.6, Leading zero omitted, Abs format (unit mm)*
G04 Created by KiCad (PCBNEW (5.1.0-0)) date 2019-06-09 21:10:29*
%MOMM*%
%LPD*%
G04 APERTURE LIST*
%ADD10C,0.100000*%
G04 APERTURE END LIST*
D10*
G36*
X99775331Y-119518211D02*
G01*
X100103092Y-119653974D01*
X100398070Y-119851072D01*
X100648928Y-120101930D01*
X100846026Y-120396908D01*
X100981789Y-120724669D01*
X101051000Y-121072616D01*
X101051000Y-121427384D01*
X100981789Y-121775331D01*
X100846026Y-122103092D01*
X100648928Y-122398070D01*
X100398070Y-122648928D01*
X100103092Y-122846026D01*
X99775331Y-122981789D01*
X99427384Y-123051000D01*
X99072616Y-123051000D01*
X98724669Y-122981789D01*
X98396908Y-122846026D01*
X98101930Y-122648928D01*
X97851072Y-122398070D01*
X97653974Y-122103092D01*
X97518211Y-121775331D01*
X97449000Y-121427384D01*
X97449000Y-121072616D01*
X97518211Y-120724669D01*
X97653974Y-120396908D01*
X97851072Y-120101930D01*
X98101930Y-119851072D01*
X98396908Y-119653974D01*
X98724669Y-119518211D01*
X99072616Y-119449000D01*
X99427384Y-119449000D01*
X99775331Y-119518211D01*
X99775331Y-119518211D01*
G37*
G36*
X80525331Y-119518211D02*
G01*
X80853092Y-119653974D01*
X81148070Y-119851072D01*
X81398928Y-120101930D01*
X81596026Y-120396908D01*
X81731789Y-120724669D01*
X81801000Y-121072616D01*
X81801000Y-121427384D01*
X81731789Y-121775331D01*
X81596026Y-122103092D01*
X81398928Y-122398070D01*
X81148070Y-122648928D01*
X80853092Y-122846026D01*
X80525331Y-122981789D01*
X80177384Y-123051000D01*
X79822616Y-123051000D01*
X79474669Y-122981789D01*
X79146908Y-122846026D01*
X78851930Y-122648928D01*
X78601072Y-122398070D01*
X78403974Y-122103092D01*
X78268211Y-121775331D01*
X78199000Y-121427384D01*
X78199000Y-121072616D01*
X78268211Y-120724669D01*
X78403974Y-120396908D01*
X78601072Y-120101930D01*
X78851930Y-119851072D01*
X79146908Y-119653974D01*
X79474669Y-119518211D01*
X79822616Y-119449000D01*
X80177384Y-119449000D01*
X80525331Y-119518211D01*
X80525331Y-119518211D01*
G37*
G36*
X98777142Y-114863243D02*
G01*
X98925101Y-114924530D01*
X99058255Y-115013500D01*
X99171501Y-115126746D01*
X99260471Y-115259900D01*
X99321758Y-115407859D01*
X99353000Y-115564926D01*
X99353000Y-115725076D01*
X99321758Y-115882143D01*
X99260471Y-116030102D01*
X99171501Y-116163256D01*
X99058255Y-116276502D01*
X98925101Y-116365472D01*
X98777142Y-116426759D01*
X98620075Y-116458001D01*
X98459925Y-116458001D01*
X98302858Y-116426759D01*
X98154899Y-116365472D01*
X98021745Y-116276502D01*
X97908499Y-116163256D01*
X97819529Y-116030102D01*
X97758242Y-115882143D01*
X97727000Y-115725076D01*
X97727000Y-115564926D01*
X97758242Y-115407859D01*
X97819529Y-115259900D01*
X97908499Y-115126746D01*
X98021745Y-115013500D01*
X98154899Y-114924530D01*
X98302858Y-114863243D01*
X98459925Y-114832001D01*
X98620075Y-114832001D01*
X98777142Y-114863243D01*
X98777142Y-114863243D01*
G37*
G36*
X80997142Y-114863243D02*
G01*
X81145101Y-114924530D01*
X81278255Y-115013500D01*
X81391501Y-115126746D01*
X81480471Y-115259900D01*
X81541758Y-115407859D01*
X81573000Y-115564926D01*
X81573000Y-115725076D01*
X81541758Y-115882143D01*
X81480471Y-116030102D01*
X81391501Y-116163256D01*
X81278255Y-116276502D01*
X81145101Y-116365472D01*
X80997142Y-116426759D01*
X80840075Y-116458001D01*
X80679925Y-116458001D01*
X80522858Y-116426759D01*
X80374899Y-116365472D01*
X80241745Y-116276502D01*
X80128499Y-116163256D01*
X80039529Y-116030102D01*
X79978242Y-115882143D01*
X79947000Y-115725076D01*
X79947000Y-115564926D01*
X79978242Y-115407859D01*
X80039529Y-115259900D01*
X80128499Y-115126746D01*
X80241745Y-115013500D01*
X80374899Y-114924530D01*
X80522858Y-114863243D01*
X80679925Y-114832001D01*
X80840075Y-114832001D01*
X80997142Y-114863243D01*
X80997142Y-114863243D01*
G37*
G36*
X98777142Y-112323243D02*
G01*
X98925101Y-112384530D01*
X99058255Y-112473500D01*
X99171501Y-112586746D01*
X99260471Y-112719900D01*
X99321758Y-112867859D01*
X99353000Y-113024926D01*
X99353000Y-113185076D01*
X99321758Y-113342143D01*
X99260471Y-113490102D01*
X99171501Y-113623256D01*
X99058255Y-113736502D01*
X98925101Y-113825472D01*
X98777142Y-113886759D01*
X98620075Y-113918001D01*
X98459925Y-113918001D01*
X98302858Y-113886759D01*
X98154899Y-113825472D01*
X98021745Y-113736502D01*
X97908499Y-113623256D01*
X97819529Y-113490102D01*
X97758242Y-113342143D01*
X97727000Y-113185076D01*
X97727000Y-113024926D01*
X97758242Y-112867859D01*
X97819529Y-112719900D01*
X97908499Y-112586746D01*
X98021745Y-112473500D01*
X98154899Y-112384530D01*
X98302858Y-112323243D01*
X98459925Y-112292001D01*
X98620075Y-112292001D01*
X98777142Y-112323243D01*
X98777142Y-112323243D01*
G37*
G36*
X80997142Y-112323243D02*
G01*
X81145101Y-112384530D01*
X81278255Y-112473500D01*
X81391501Y-112586746D01*
X81480471Y-112719900D01*
X81541758Y-112867859D01*
X81573000Y-113024926D01*
X81573000Y-113185076D01*
X81541758Y-113342143D01*
X81480471Y-113490102D01*
X81391501Y-113623256D01*
X81278255Y-113736502D01*
X81145101Y-113825472D01*
X80997142Y-113886759D01*
X80840075Y-113918001D01*
X80679925Y-113918001D01*
X80522858Y-113886759D01*
X80374899Y-113825472D01*
X80241745Y-113736502D01*
X80128499Y-113623256D01*
X80039529Y-113490102D01*
X79978242Y-113342143D01*
X79947000Y-113185076D01*
X79947000Y-113024926D01*
X79978242Y-112867859D01*
X80039529Y-112719900D01*
X80128499Y-112586746D01*
X80241745Y-112473500D01*
X80374899Y-112384530D01*
X80522858Y-112323243D01*
X80679925Y-112292001D01*
X80840075Y-112292001D01*
X80997142Y-112323243D01*
X80997142Y-112323243D01*
G37*
G36*
X98777142Y-109783243D02*
G01*
X98925101Y-109844530D01*
X99058255Y-109933500D01*
X99171501Y-110046746D01*
X99260471Y-110179900D01*
X99321758Y-110327859D01*
X99353000Y-110484926D01*
X99353000Y-110645076D01*
X99321758Y-110802143D01*
X99260471Y-110950102D01*
X99171501Y-111083256D01*
X99058255Y-111196502D01*
X98925101Y-111285472D01*
X98777142Y-111346759D01*
X98620075Y-111378001D01*
X98459925Y-111378001D01*
X98302858Y-111346759D01*
X98154899Y-111285472D01*
X98021745Y-111196502D01*
X97908499Y-111083256D01*
X97819529Y-110950102D01*
X97758242Y-110802143D01*
X97727000Y-110645076D01*
X97727000Y-110484926D01*
X97758242Y-110327859D01*
X97819529Y-110179900D01*
X97908499Y-110046746D01*
X98021745Y-109933500D01*
X98154899Y-109844530D01*
X98302858Y-109783243D01*
X98459925Y-109752001D01*
X98620075Y-109752001D01*
X98777142Y-109783243D01*
X98777142Y-109783243D01*
G37*
G36*
X80997142Y-109783243D02*
G01*
X81145101Y-109844530D01*
X81278255Y-109933500D01*
X81391501Y-110046746D01*
X81480471Y-110179900D01*
X81541758Y-110327859D01*
X81573000Y-110484926D01*
X81573000Y-110645076D01*
X81541758Y-110802143D01*
X81480471Y-110950102D01*
X81391501Y-111083256D01*
X81278255Y-111196502D01*
X81145101Y-111285472D01*
X80997142Y-111346759D01*
X80840075Y-111378001D01*
X80679925Y-111378001D01*
X80522858Y-111346759D01*
X80374899Y-111285472D01*
X80241745Y-111196502D01*
X80128499Y-111083256D01*
X80039529Y-110950102D01*
X79978242Y-110802143D01*
X79947000Y-110645076D01*
X79947000Y-110484926D01*
X79978242Y-110327859D01*
X80039529Y-110179900D01*
X80128499Y-110046746D01*
X80241745Y-109933500D01*
X80374899Y-109844530D01*
X80522858Y-109783243D01*
X80679925Y-109752001D01*
X80840075Y-109752001D01*
X80997142Y-109783243D01*
X80997142Y-109783243D01*
G37*
G36*
X80997142Y-107243243D02*
G01*
X81145101Y-107304530D01*
X81278255Y-107393500D01*
X81391501Y-107506746D01*
X81480471Y-107639900D01*
X81541758Y-107787859D01*
X81573000Y-107944926D01*
X81573000Y-108105076D01*
X81541758Y-108262143D01*
X81480471Y-108410102D01*
X81391501Y-108543256D01*
X81278255Y-108656502D01*
X81145101Y-108745472D01*
X80997142Y-108806759D01*
X80840075Y-108838001D01*
X80679925Y-108838001D01*
X80522858Y-108806759D01*
X80374899Y-108745472D01*
X80241745Y-108656502D01*
X80128499Y-108543256D01*
X80039529Y-108410102D01*
X79978242Y-108262143D01*
X79947000Y-108105076D01*
X79947000Y-107944926D01*
X79978242Y-107787859D01*
X80039529Y-107639900D01*
X80128499Y-107506746D01*
X80241745Y-107393500D01*
X80374899Y-107304530D01*
X80522858Y-107243243D01*
X80679925Y-107212001D01*
X80840075Y-107212001D01*
X80997142Y-107243243D01*
X80997142Y-107243243D01*
G37*
G36*
X98777142Y-107243243D02*
G01*
X98925101Y-107304530D01*
X99058255Y-107393500D01*
X99171501Y-107506746D01*
X99260471Y-107639900D01*
X99321758Y-107787859D01*
X99353000Y-107944926D01*
X99353000Y-108105076D01*
X99321758Y-108262143D01*
X99260471Y-108410102D01*
X99171501Y-108543256D01*
X99058255Y-108656502D01*
X98925101Y-108745472D01*
X98777142Y-108806759D01*
X98620075Y-108838001D01*
X98459925Y-108838001D01*
X98302858Y-108806759D01*
X98154899Y-108745472D01*
X98021745Y-108656502D01*
X97908499Y-108543256D01*
X97819529Y-108410102D01*
X97758242Y-108262143D01*
X97727000Y-108105076D01*
X97727000Y-107944926D01*
X97758242Y-107787859D01*
X97819529Y-107639900D01*
X97908499Y-107506746D01*
X98021745Y-107393500D01*
X98154899Y-107304530D01*
X98302858Y-107243243D01*
X98459925Y-107212001D01*
X98620075Y-107212001D01*
X98777142Y-107243243D01*
X98777142Y-107243243D01*
G37*
G36*
X98777142Y-104703243D02*
G01*
X98925101Y-104764530D01*
X99058255Y-104853500D01*
X99171501Y-104966746D01*
X99260471Y-105099900D01*
X99321758Y-105247859D01*
X99353000Y-105404926D01*
X99353000Y-105565076D01*
X99321758Y-105722143D01*
X99260471Y-105870102D01*
X99171501Y-106003256D01*
X99058255Y-106116502D01*
X98925101Y-106205472D01*
X98777142Y-106266759D01*
X98620075Y-106298001D01*
X98459925Y-106298001D01*
X98302858Y-106266759D01*
X98154899Y-106205472D01*
X98021745Y-106116502D01*
X97908499Y-106003256D01*
X97819529Y-105870102D01*
X97758242Y-105722143D01*
X97727000Y-105565076D01*
X97727000Y-105404926D01*
X97758242Y-105247859D01*
X97819529Y-105099900D01*
X97908499Y-104966746D01*
X98021745Y-104853500D01*
X98154899Y-104764530D01*
X98302858Y-104703243D01*
X98459925Y-104672001D01*
X98620075Y-104672001D01*
X98777142Y-104703243D01*
X98777142Y-104703243D01*
G37*
G36*
X80997142Y-104703243D02*
G01*
X81145101Y-104764530D01*
X81278255Y-104853500D01*
X81391501Y-104966746D01*
X81480471Y-105099900D01*
X81541758Y-105247859D01*
X81573000Y-105404926D01*
X81573000Y-105565076D01*
X81541758Y-105722143D01*
X81480471Y-105870102D01*
X81391501Y-106003256D01*
X81278255Y-106116502D01*
X81145101Y-106205472D01*
X80997142Y-106266759D01*
X80840075Y-106298001D01*
X80679925Y-106298001D01*
X80522858Y-106266759D01*
X80374899Y-106205472D01*
X80241745Y-106116502D01*
X80128499Y-106003256D01*
X80039529Y-105870102D01*
X79978242Y-105722143D01*
X79947000Y-105565076D01*
X79947000Y-105404926D01*
X79978242Y-105247859D01*
X80039529Y-105099900D01*
X80128499Y-104966746D01*
X80241745Y-104853500D01*
X80374899Y-104764530D01*
X80522858Y-104703243D01*
X80679925Y-104672001D01*
X80840075Y-104672001D01*
X80997142Y-104703243D01*
X80997142Y-104703243D01*
G37*
G36*
X80997142Y-102163243D02*
G01*
X81145101Y-102224530D01*
X81278255Y-102313500D01*
X81391501Y-102426746D01*
X81480471Y-102559900D01*
X81541758Y-102707859D01*
X81573000Y-102864926D01*
X81573000Y-103025076D01*
X81541758Y-103182143D01*
X81480471Y-103330102D01*
X81391501Y-103463256D01*
X81278255Y-103576502D01*
X81145101Y-103665472D01*
X80997142Y-103726759D01*
X80840075Y-103758001D01*
X80679925Y-103758001D01*
X80522858Y-103726759D01*
X80374899Y-103665472D01*
X80241745Y-103576502D01*
X80128499Y-103463256D01*
X80039529Y-103330102D01*
X79978242Y-103182143D01*
X79947000Y-103025076D01*
X79947000Y-102864926D01*
X79978242Y-102707859D01*
X80039529Y-102559900D01*
X80128499Y-102426746D01*
X80241745Y-102313500D01*
X80374899Y-102224530D01*
X80522858Y-102163243D01*
X80679925Y-102132001D01*
X80840075Y-102132001D01*
X80997142Y-102163243D01*
X80997142Y-102163243D01*
G37*
G36*
X98777142Y-102163243D02*
G01*
X98925101Y-102224530D01*
X99058255Y-102313500D01*
X99171501Y-102426746D01*
X99260471Y-102559900D01*
X99321758Y-102707859D01*
X99353000Y-102864926D01*
X99353000Y-103025076D01*
X99321758Y-103182143D01*
X99260471Y-103330102D01*
X99171501Y-103463256D01*
X99058255Y-103576502D01*
X98925101Y-103665472D01*
X98777142Y-103726759D01*
X98620075Y-103758001D01*
X98459925Y-103758001D01*
X98302858Y-103726759D01*
X98154899Y-103665472D01*
X98021745Y-103576502D01*
X97908499Y-103463256D01*
X97819529Y-103330102D01*
X97758242Y-103182143D01*
X97727000Y-103025076D01*
X97727000Y-102864926D01*
X97758242Y-102707859D01*
X97819529Y-102559900D01*
X97908499Y-102426746D01*
X98021745Y-102313500D01*
X98154899Y-102224530D01*
X98302858Y-102163243D01*
X98459925Y-102132001D01*
X98620075Y-102132001D01*
X98777142Y-102163243D01*
X98777142Y-102163243D01*
G37*
G36*
X98777142Y-99623243D02*
G01*
X98925101Y-99684530D01*
X99058255Y-99773500D01*
X99171501Y-99886746D01*
X99260471Y-100019900D01*
X99321758Y-100167859D01*
X99353000Y-100324926D01*
X99353000Y-100485076D01*
X99321758Y-100642143D01*
X99260471Y-100790102D01*
X99171501Y-100923256D01*
X99058255Y-101036502D01*
X98925101Y-101125472D01*
X98777142Y-101186759D01*
X98620075Y-101218001D01*
X98459925Y-101218001D01*
X98302858Y-101186759D01*
X98154899Y-101125472D01*
X98021745Y-101036502D01*
X97908499Y-100923256D01*
X97819529Y-100790102D01*
X97758242Y-100642143D01*
X97727000Y-100485076D01*
X97727000Y-100324926D01*
X97758242Y-100167859D01*
X97819529Y-100019900D01*
X97908499Y-99886746D01*
X98021745Y-99773500D01*
X98154899Y-99684530D01*
X98302858Y-99623243D01*
X98459925Y-99592001D01*
X98620075Y-99592001D01*
X98777142Y-99623243D01*
X98777142Y-99623243D01*
G37*
G36*
X80997142Y-99623243D02*
G01*
X81145101Y-99684530D01*
X81278255Y-99773500D01*
X81391501Y-99886746D01*
X81480471Y-100019900D01*
X81541758Y-100167859D01*
X81573000Y-100324926D01*
X81573000Y-100485076D01*
X81541758Y-100642143D01*
X81480471Y-100790102D01*
X81391501Y-100923256D01*
X81278255Y-101036502D01*
X81145101Y-101125472D01*
X80997142Y-101186759D01*
X80840075Y-101218001D01*
X80679925Y-101218001D01*
X80522858Y-101186759D01*
X80374899Y-101125472D01*
X80241745Y-101036502D01*
X80128499Y-100923256D01*
X80039529Y-100790102D01*
X79978242Y-100642143D01*
X79947000Y-100485076D01*
X79947000Y-100324926D01*
X79978242Y-100167859D01*
X80039529Y-100019900D01*
X80128499Y-99886746D01*
X80241745Y-99773500D01*
X80374899Y-99684530D01*
X80522858Y-99623243D01*
X80679925Y-99592001D01*
X80840075Y-99592001D01*
X80997142Y-99623243D01*
X80997142Y-99623243D01*
G37*
G36*
X80997142Y-97083243D02*
G01*
X81145101Y-97144530D01*
X81278255Y-97233500D01*
X81391501Y-97346746D01*
X81480471Y-97479900D01*
X81541758Y-97627859D01*
X81573000Y-97784926D01*
X81573000Y-97945076D01*
X81541758Y-98102143D01*
X81480471Y-98250102D01*
X81391501Y-98383256D01*
X81278255Y-98496502D01*
X81145101Y-98585472D01*
X80997142Y-98646759D01*
X80840075Y-98678001D01*
X80679925Y-98678001D01*
X80522858Y-98646759D01*
X80374899Y-98585472D01*
X80241745Y-98496502D01*
X80128499Y-98383256D01*
X80039529Y-98250102D01*
X79978242Y-98102143D01*
X79947000Y-97945076D01*
X79947000Y-97784926D01*
X79978242Y-97627859D01*
X80039529Y-97479900D01*
X80128499Y-97346746D01*
X80241745Y-97233500D01*
X80374899Y-97144530D01*
X80522858Y-97083243D01*
X80679925Y-97052001D01*
X80840075Y-97052001D01*
X80997142Y-97083243D01*
X80997142Y-97083243D01*
G37*
G36*
X98777142Y-97083243D02*
G01*
X98925101Y-97144530D01*
X99058255Y-97233500D01*
X99171501Y-97346746D01*
X99260471Y-97479900D01*
X99321758Y-97627859D01*
X99353000Y-97784926D01*
X99353000Y-97945076D01*
X99321758Y-98102143D01*
X99260471Y-98250102D01*
X99171501Y-98383256D01*
X99058255Y-98496502D01*
X98925101Y-98585472D01*
X98777142Y-98646759D01*
X98620075Y-98678001D01*
X98459925Y-98678001D01*
X98302858Y-98646759D01*
X98154899Y-98585472D01*
X98021745Y-98496502D01*
X97908499Y-98383256D01*
X97819529Y-98250102D01*
X97758242Y-98102143D01*
X97727000Y-97945076D01*
X97727000Y-97784926D01*
X97758242Y-97627859D01*
X97819529Y-97479900D01*
X97908499Y-97346746D01*
X98021745Y-97233500D01*
X98154899Y-97144530D01*
X98302858Y-97083243D01*
X98459925Y-97052001D01*
X98620075Y-97052001D01*
X98777142Y-97083243D01*
X98777142Y-97083243D01*
G37*
G36*
X80997142Y-94543243D02*
G01*
X81145101Y-94604530D01*
X81278255Y-94693500D01*
X81391501Y-94806746D01*
X81480471Y-94939900D01*
X81541758Y-95087859D01*
X81573000Y-95244926D01*
X81573000Y-95405076D01*
X81541758Y-95562143D01*
X81480471Y-95710102D01*
X81391501Y-95843256D01*
X81278255Y-95956502D01*
X81145101Y-96045472D01*
X80997142Y-96106759D01*
X80840075Y-96138001D01*
X80679925Y-96138001D01*
X80522858Y-96106759D01*
X80374899Y-96045472D01*
X80241745Y-95956502D01*
X80128499Y-95843256D01*
X80039529Y-95710102D01*
X79978242Y-95562143D01*
X79947000Y-95405076D01*
X79947000Y-95244926D01*
X79978242Y-95087859D01*
X80039529Y-94939900D01*
X80128499Y-94806746D01*
X80241745Y-94693500D01*
X80374899Y-94604530D01*
X80522858Y-94543243D01*
X80679925Y-94512001D01*
X80840075Y-94512001D01*
X80997142Y-94543243D01*
X80997142Y-94543243D01*
G37*
G36*
X98777142Y-94543243D02*
G01*
X98925101Y-94604530D01*
X99058255Y-94693500D01*
X99171501Y-94806746D01*
X99260471Y-94939900D01*
X99321758Y-95087859D01*
X99353000Y-95244926D01*
X99353000Y-95405076D01*
X99321758Y-95562143D01*
X99260471Y-95710102D01*
X99171501Y-95843256D01*
X99058255Y-95956502D01*
X98925101Y-96045472D01*
X98777142Y-96106759D01*
X98620075Y-96138001D01*
X98459925Y-96138001D01*
X98302858Y-96106759D01*
X98154899Y-96045472D01*
X98021745Y-95956502D01*
X97908499Y-95843256D01*
X97819529Y-95710102D01*
X97758242Y-95562143D01*
X97727000Y-95405076D01*
X97727000Y-95244926D01*
X97758242Y-95087859D01*
X97819529Y-94939900D01*
X97908499Y-94806746D01*
X98021745Y-94693500D01*
X98154899Y-94604530D01*
X98302858Y-94543243D01*
X98459925Y-94512001D01*
X98620075Y-94512001D01*
X98777142Y-94543243D01*
X98777142Y-94543243D01*
G37*
G36*
X80997142Y-92003243D02*
G01*
X81145101Y-92064530D01*
X81278255Y-92153500D01*
X81391501Y-92266746D01*
X81480471Y-92399900D01*
X81541758Y-92547859D01*
X81573000Y-92704926D01*
X81573000Y-92865076D01*
X81541758Y-93022143D01*
X81480471Y-93170102D01*
X81391501Y-93303256D01*
X81278255Y-93416502D01*
X81145101Y-93505472D01*
X80997142Y-93566759D01*
X80840075Y-93598001D01*
X80679925Y-93598001D01*
X80522858Y-93566759D01*
X80374899Y-93505472D01*
X80241745Y-93416502D01*
X80128499Y-93303256D01*
X80039529Y-93170102D01*
X79978242Y-93022143D01*
X79947000Y-92865076D01*
X79947000Y-92704926D01*
X79978242Y-92547859D01*
X80039529Y-92399900D01*
X80128499Y-92266746D01*
X80241745Y-92153500D01*
X80374899Y-92064530D01*
X80522858Y-92003243D01*
X80679925Y-91972001D01*
X80840075Y-91972001D01*
X80997142Y-92003243D01*
X80997142Y-92003243D01*
G37*
G36*
X98777142Y-92003243D02*
G01*
X98925101Y-92064530D01*
X99058255Y-92153500D01*
X99171501Y-92266746D01*
X99260471Y-92399900D01*
X99321758Y-92547859D01*
X99353000Y-92704926D01*
X99353000Y-92865076D01*
X99321758Y-93022143D01*
X99260471Y-93170102D01*
X99171501Y-93303256D01*
X99058255Y-93416502D01*
X98925101Y-93505472D01*
X98777142Y-93566759D01*
X98620075Y-93598001D01*
X98459925Y-93598001D01*
X98302858Y-93566759D01*
X98154899Y-93505472D01*
X98021745Y-93416502D01*
X97908499Y-93303256D01*
X97819529Y-93170102D01*
X97758242Y-93022143D01*
X97727000Y-92865076D01*
X97727000Y-92704926D01*
X97758242Y-92547859D01*
X97819529Y-92399900D01*
X97908499Y-92266746D01*
X98021745Y-92153500D01*
X98154899Y-92064530D01*
X98302858Y-92003243D01*
X98459925Y-91972001D01*
X98620075Y-91972001D01*
X98777142Y-92003243D01*
X98777142Y-92003243D01*
G37*
G36*
X80997142Y-89463243D02*
G01*
X81145101Y-89524530D01*
X81278255Y-89613500D01*
X81391501Y-89726746D01*
X81480471Y-89859900D01*
X81541758Y-90007859D01*
X81573000Y-90164926D01*
X81573000Y-90325076D01*
X81541758Y-90482143D01*
X81480471Y-90630102D01*
X81391501Y-90763256D01*
X81278255Y-90876502D01*
X81145101Y-90965472D01*
X80997142Y-91026759D01*
X80840075Y-91058001D01*
X80679925Y-91058001D01*
X80522858Y-91026759D01*
X80374899Y-90965472D01*
X80241745Y-90876502D01*
X80128499Y-90763256D01*
X80039529Y-90630102D01*
X79978242Y-90482143D01*
X79947000Y-90325076D01*
X79947000Y-90164926D01*
X79978242Y-90007859D01*
X80039529Y-89859900D01*
X80128499Y-89726746D01*
X80241745Y-89613500D01*
X80374899Y-89524530D01*
X80522858Y-89463243D01*
X80679925Y-89432001D01*
X80840075Y-89432001D01*
X80997142Y-89463243D01*
X80997142Y-89463243D01*
G37*
G36*
X98777142Y-89463243D02*
G01*
X98925101Y-89524530D01*
X99058255Y-89613500D01*
X99171501Y-89726746D01*
X99260471Y-89859900D01*
X99321758Y-90007859D01*
X99353000Y-90164926D01*
X99353000Y-90325076D01*
X99321758Y-90482143D01*
X99260471Y-90630102D01*
X99171501Y-90763256D01*
X99058255Y-90876502D01*
X98925101Y-90965472D01*
X98777142Y-91026759D01*
X98620075Y-91058001D01*
X98459925Y-91058001D01*
X98302858Y-91026759D01*
X98154899Y-90965472D01*
X98021745Y-90876502D01*
X97908499Y-90763256D01*
X97819529Y-90630102D01*
X97758242Y-90482143D01*
X97727000Y-90325076D01*
X97727000Y-90164926D01*
X97758242Y-90007859D01*
X97819529Y-89859900D01*
X97908499Y-89726746D01*
X98021745Y-89613500D01*
X98154899Y-89524530D01*
X98302858Y-89463243D01*
X98459925Y-89432001D01*
X98620075Y-89432001D01*
X98777142Y-89463243D01*
X98777142Y-89463243D01*
G37*
G36*
X98777142Y-86923243D02*
G01*
X98925101Y-86984530D01*
X99058255Y-87073500D01*
X99171501Y-87186746D01*
X99260471Y-87319900D01*
X99321758Y-87467859D01*
X99353000Y-87624926D01*
X99353000Y-87785076D01*
X99321758Y-87942143D01*
X99260471Y-88090102D01*
X99171501Y-88223256D01*
X99058255Y-88336502D01*
X98925101Y-88425472D01*
X98777142Y-88486759D01*
X98620075Y-88518001D01*
X98459925Y-88518001D01*
X98302858Y-88486759D01*
X98154899Y-88425472D01*
X98021745Y-88336502D01*
X97908499Y-88223256D01*
X97819529Y-88090102D01*
X97758242Y-87942143D01*
X97727000Y-87785076D01*
X97727000Y-87624926D01*
X97758242Y-87467859D01*
X97819529Y-87319900D01*
X97908499Y-87186746D01*
X98021745Y-87073500D01*
X98154899Y-86984530D01*
X98302858Y-86923243D01*
X98459925Y-86892001D01*
X98620075Y-86892001D01*
X98777142Y-86923243D01*
X98777142Y-86923243D01*
G37*
G36*
X80997142Y-86923243D02*
G01*
X81145101Y-86984530D01*
X81278255Y-87073500D01*
X81391501Y-87186746D01*
X81480471Y-87319900D01*
X81541758Y-87467859D01*
X81573000Y-87624926D01*
X81573000Y-87785076D01*
X81541758Y-87942143D01*
X81480471Y-88090102D01*
X81391501Y-88223256D01*
X81278255Y-88336502D01*
X81145101Y-88425472D01*
X80997142Y-88486759D01*
X80840075Y-88518001D01*
X80679925Y-88518001D01*
X80522858Y-88486759D01*
X80374899Y-88425472D01*
X80241745Y-88336502D01*
X80128499Y-88223256D01*
X80039529Y-88090102D01*
X79978242Y-87942143D01*
X79947000Y-87785076D01*
X79947000Y-87624926D01*
X79978242Y-87467859D01*
X80039529Y-87319900D01*
X80128499Y-87186746D01*
X80241745Y-87073500D01*
X80374899Y-86984530D01*
X80522858Y-86923243D01*
X80679925Y-86892001D01*
X80840075Y-86892001D01*
X80997142Y-86923243D01*
X80997142Y-86923243D01*
G37*
G36*
X98777142Y-84383243D02*
G01*
X98925101Y-84444530D01*
X99058255Y-84533500D01*
X99171501Y-84646746D01*
X99260471Y-84779900D01*
X99321758Y-84927859D01*
X99353000Y-85084926D01*
X99353000Y-85245076D01*
X99321758Y-85402143D01*
X99260471Y-85550102D01*
X99171501Y-85683256D01*
X99058255Y-85796502D01*
X98925101Y-85885472D01*
X98777142Y-85946759D01*
X98620075Y-85978001D01*
X98459925Y-85978001D01*
X98302858Y-85946759D01*
X98154899Y-85885472D01*
X98021745Y-85796502D01*
X97908499Y-85683256D01*
X97819529Y-85550102D01*
X97758242Y-85402143D01*
X97727000Y-85245076D01*
X97727000Y-85084926D01*
X97758242Y-84927859D01*
X97819529Y-84779900D01*
X97908499Y-84646746D01*
X98021745Y-84533500D01*
X98154899Y-84444530D01*
X98302858Y-84383243D01*
X98459925Y-84352001D01*
X98620075Y-84352001D01*
X98777142Y-84383243D01*
X98777142Y-84383243D01*
G37*
G36*
X80997142Y-84383243D02*
G01*
X81145101Y-84444530D01*
X81278255Y-84533500D01*
X81391501Y-84646746D01*
X81480471Y-84779900D01*
X81541758Y-84927859D01*
X81573000Y-85084926D01*
X81573000Y-85245076D01*
X81541758Y-85402143D01*
X81480471Y-85550102D01*
X81391501Y-85683256D01*
X81278255Y-85796502D01*
X81145101Y-85885472D01*
X80997142Y-85946759D01*
X80840075Y-85978001D01*
X80679925Y-85978001D01*
X80522858Y-85946759D01*
X80374899Y-85885472D01*
X80241745Y-85796502D01*
X80128499Y-85683256D01*
X80039529Y-85550102D01*
X79978242Y-85402143D01*
X79947000Y-85245076D01*
X79947000Y-85084926D01*
X79978242Y-84927859D01*
X80039529Y-84779900D01*
X80128499Y-84646746D01*
X80241745Y-84533500D01*
X80374899Y-84444530D01*
X80522858Y-84383243D01*
X80679925Y-84352001D01*
X80840075Y-84352001D01*
X80997142Y-84383243D01*
X80997142Y-84383243D01*
G37*
G36*
X98777142Y-81843243D02*
G01*
X98925101Y-81904530D01*
X99058255Y-81993500D01*
X99171501Y-82106746D01*
X99260471Y-82239900D01*
X99321758Y-82387859D01*
X99353000Y-82544926D01*
X99353000Y-82705076D01*
X99321758Y-82862143D01*
X99260471Y-83010102D01*
X99171501Y-83143256D01*
X99058255Y-83256502D01*
X98925101Y-83345472D01*
X98777142Y-83406759D01*
X98620075Y-83438001D01*
X98459925Y-83438001D01*
X98302858Y-83406759D01*
X98154899Y-83345472D01*
X98021745Y-83256502D01*
X97908499Y-83143256D01*
X97819529Y-83010102D01*
X97758242Y-82862143D01*
X97727000Y-82705076D01*
X97727000Y-82544926D01*
X97758242Y-82387859D01*
X97819529Y-82239900D01*
X97908499Y-82106746D01*
X98021745Y-81993500D01*
X98154899Y-81904530D01*
X98302858Y-81843243D01*
X98459925Y-81812001D01*
X98620075Y-81812001D01*
X98777142Y-81843243D01*
X98777142Y-81843243D01*
G37*
G36*
X80997142Y-81843243D02*
G01*
X81145101Y-81904530D01*
X81278255Y-81993500D01*
X81391501Y-82106746D01*
X81480471Y-82239900D01*
X81541758Y-82387859D01*
X81573000Y-82544926D01*
X81573000Y-82705076D01*
X81541758Y-82862143D01*
X81480471Y-83010102D01*
X81391501Y-83143256D01*
X81278255Y-83256502D01*
X81145101Y-83345472D01*
X80997142Y-83406759D01*
X80840075Y-83438001D01*
X80679925Y-83438001D01*
X80522858Y-83406759D01*
X80374899Y-83345472D01*
X80241745Y-83256502D01*
X80128499Y-83143256D01*
X80039529Y-83010102D01*
X79978242Y-82862143D01*
X79947000Y-82705076D01*
X79947000Y-82544926D01*
X79978242Y-82387859D01*
X80039529Y-82239900D01*
X80128499Y-82106746D01*
X80241745Y-81993500D01*
X80374899Y-81904530D01*
X80522858Y-81843243D01*
X80679925Y-81812001D01*
X80840075Y-81812001D01*
X80997142Y-81843243D01*
X80997142Y-81843243D01*
G37*
G36*
X98777142Y-79303243D02*
G01*
X98925101Y-79364530D01*
X99058255Y-79453500D01*
X99171501Y-79566746D01*
X99260471Y-79699900D01*
X99321758Y-79847859D01*
X99353000Y-80004926D01*
X99353000Y-80165076D01*
X99321758Y-80322143D01*
X99260471Y-80470102D01*
X99171501Y-80603256D01*
X99058255Y-80716502D01*
X98925101Y-80805472D01*
X98777142Y-80866759D01*
X98620075Y-80898001D01*
X98459925Y-80898001D01*
X98302858Y-80866759D01*
X98154899Y-80805472D01*
X98021745Y-80716502D01*
X97908499Y-80603256D01*
X97819529Y-80470102D01*
X97758242Y-80322143D01*
X97727000Y-80165076D01*
X97727000Y-80004926D01*
X97758242Y-79847859D01*
X97819529Y-79699900D01*
X97908499Y-79566746D01*
X98021745Y-79453500D01*
X98154899Y-79364530D01*
X98302858Y-79303243D01*
X98459925Y-79272001D01*
X98620075Y-79272001D01*
X98777142Y-79303243D01*
X98777142Y-79303243D01*
G37*
G36*
X80997142Y-79303243D02*
G01*
X81145101Y-79364530D01*
X81278255Y-79453500D01*
X81391501Y-79566746D01*
X81480471Y-79699900D01*
X81541758Y-79847859D01*
X81573000Y-80004926D01*
X81573000Y-80165076D01*
X81541758Y-80322143D01*
X81480471Y-80470102D01*
X81391501Y-80603256D01*
X81278255Y-80716502D01*
X81145101Y-80805472D01*
X80997142Y-80866759D01*
X80840075Y-80898001D01*
X80679925Y-80898001D01*
X80522858Y-80866759D01*
X80374899Y-80805472D01*
X80241745Y-80716502D01*
X80128499Y-80603256D01*
X80039529Y-80470102D01*
X79978242Y-80322143D01*
X79947000Y-80165076D01*
X79947000Y-80004926D01*
X79978242Y-79847859D01*
X80039529Y-79699900D01*
X80128499Y-79566746D01*
X80241745Y-79453500D01*
X80374899Y-79364530D01*
X80522858Y-79303243D01*
X80679925Y-79272001D01*
X80840075Y-79272001D01*
X80997142Y-79303243D01*
X80997142Y-79303243D01*
G37*
G36*
X98777142Y-76763243D02*
G01*
X98925101Y-76824530D01*
X99058255Y-76913500D01*
X99171501Y-77026746D01*
X99260471Y-77159900D01*
X99321758Y-77307859D01*
X99353000Y-77464926D01*
X99353000Y-77625076D01*
X99321758Y-77782143D01*
X99260471Y-77930102D01*
X99171501Y-78063256D01*
X99058255Y-78176502D01*
X98925101Y-78265472D01*
X98777142Y-78326759D01*
X98620075Y-78358001D01*
X98459925Y-78358001D01*
X98302858Y-78326759D01*
X98154899Y-78265472D01*
X98021745Y-78176502D01*
X97908499Y-78063256D01*
X97819529Y-77930102D01*
X97758242Y-77782143D01*
X97727000Y-77625076D01*
X97727000Y-77464926D01*
X97758242Y-77307859D01*
X97819529Y-77159900D01*
X97908499Y-77026746D01*
X98021745Y-76913500D01*
X98154899Y-76824530D01*
X98302858Y-76763243D01*
X98459925Y-76732001D01*
X98620075Y-76732001D01*
X98777142Y-76763243D01*
X98777142Y-76763243D01*
G37*
G36*
X80997142Y-76763243D02*
G01*
X81145101Y-76824530D01*
X81278255Y-76913500D01*
X81391501Y-77026746D01*
X81480471Y-77159900D01*
X81541758Y-77307859D01*
X81573000Y-77464926D01*
X81573000Y-77625076D01*
X81541758Y-77782143D01*
X81480471Y-77930102D01*
X81391501Y-78063256D01*
X81278255Y-78176502D01*
X81145101Y-78265472D01*
X80997142Y-78326759D01*
X80840075Y-78358001D01*
X80679925Y-78358001D01*
X80522858Y-78326759D01*
X80374899Y-78265472D01*
X80241745Y-78176502D01*
X80128499Y-78063256D01*
X80039529Y-77930102D01*
X79978242Y-77782143D01*
X79947000Y-77625076D01*
X79947000Y-77464926D01*
X79978242Y-77307859D01*
X80039529Y-77159900D01*
X80128499Y-77026746D01*
X80241745Y-76913500D01*
X80374899Y-76824530D01*
X80522858Y-76763243D01*
X80679925Y-76732001D01*
X80840075Y-76732001D01*
X80997142Y-76763243D01*
X80997142Y-76763243D01*
G37*
G36*
X98777142Y-74223243D02*
G01*
X98925101Y-74284530D01*
X99058255Y-74373500D01*
X99171501Y-74486746D01*
X99260471Y-74619900D01*
X99321758Y-74767859D01*
X99353000Y-74924926D01*
X99353000Y-75085076D01*
X99321758Y-75242143D01*
X99260471Y-75390102D01*
X99171501Y-75523256D01*
X99058255Y-75636502D01*
X98925101Y-75725472D01*
X98777142Y-75786759D01*
X98620075Y-75818001D01*
X98459925Y-75818001D01*
X98302858Y-75786759D01*
X98154899Y-75725472D01*
X98021745Y-75636502D01*
X97908499Y-75523256D01*
X97819529Y-75390102D01*
X97758242Y-75242143D01*
X97727000Y-75085076D01*
X97727000Y-74924926D01*
X97758242Y-74767859D01*
X97819529Y-74619900D01*
X97908499Y-74486746D01*
X98021745Y-74373500D01*
X98154899Y-74284530D01*
X98302858Y-74223243D01*
X98459925Y-74192001D01*
X98620075Y-74192001D01*
X98777142Y-74223243D01*
X98777142Y-74223243D01*
G37*
G36*
X80997142Y-74223243D02*
G01*
X81145101Y-74284530D01*
X81278255Y-74373500D01*
X81391501Y-74486746D01*
X81480471Y-74619900D01*
X81541758Y-74767859D01*
X81573000Y-74924926D01*
X81573000Y-75085076D01*
X81541758Y-75242143D01*
X81480471Y-75390102D01*
X81391501Y-75523256D01*
X81278255Y-75636502D01*
X81145101Y-75725472D01*
X80997142Y-75786759D01*
X80840075Y-75818001D01*
X80679925Y-75818001D01*
X80522858Y-75786759D01*
X80374899Y-75725472D01*
X80241745Y-75636502D01*
X80128499Y-75523256D01*
X80039529Y-75390102D01*
X79978242Y-75242143D01*
X79947000Y-75085076D01*
X79947000Y-74924926D01*
X79978242Y-74767859D01*
X80039529Y-74619900D01*
X80128499Y-74486746D01*
X80241745Y-74373500D01*
X80374899Y-74284530D01*
X80522858Y-74223243D01*
X80679925Y-74192001D01*
X80840075Y-74192001D01*
X80997142Y-74223243D01*
X80997142Y-74223243D01*
G37*
G36*
X99775331Y-67268211D02*
G01*
X100103092Y-67403974D01*
X100398070Y-67601072D01*
X100648928Y-67851930D01*
X100846026Y-68146908D01*
X100981789Y-68474669D01*
X101051000Y-68822616D01*
X101051000Y-69177384D01*
X100981789Y-69525331D01*
X100846026Y-69853092D01*
X100648928Y-70148070D01*
X100398070Y-70398928D01*
X100103092Y-70596026D01*
X99775331Y-70731789D01*
X99427384Y-70801000D01*
X99072616Y-70801000D01*
X98724669Y-70731789D01*
X98396908Y-70596026D01*
X98101930Y-70398928D01*
X97851072Y-70148070D01*
X97653974Y-69853092D01*
X97518211Y-69525331D01*
X97449000Y-69177384D01*
X97449000Y-68822616D01*
X97518211Y-68474669D01*
X97653974Y-68146908D01*
X97851072Y-67851930D01*
X98101930Y-67601072D01*
X98396908Y-67403974D01*
X98724669Y-67268211D01*
X99072616Y-67199000D01*
X99427384Y-67199000D01*
X99775331Y-67268211D01*
X99775331Y-67268211D01*
G37*
G36*
X80525331Y-67268211D02*
G01*
X80853092Y-67403974D01*
X81148070Y-67601072D01*
X81398928Y-67851930D01*
X81596026Y-68146908D01*
X81731789Y-68474669D01*
X81801000Y-68822616D01*
X81801000Y-69177384D01*
X81731789Y-69525331D01*
X81596026Y-69853092D01*
X81398928Y-70148070D01*
X81148070Y-70398928D01*
X80853092Y-70596026D01*
X80525331Y-70731789D01*
X80177384Y-70801000D01*
X79822616Y-70801000D01*
X79474669Y-70731789D01*
X79146908Y-70596026D01*
X78851930Y-70398928D01*
X78601072Y-70148070D01*
X78403974Y-69853092D01*
X78268211Y-69525331D01*
X78199000Y-69177384D01*
X78199000Y-68822616D01*
X78268211Y-68474669D01*
X78403974Y-68146908D01*
X78601072Y-67851930D01*
X78851930Y-67601072D01*
X79146908Y-67403974D01*
X79474669Y-67268211D01*
X79822616Y-67199000D01*
X80177384Y-67199000D01*
X80525331Y-67268211D01*
X80525331Y-67268211D01*
G37*
G36*
X101026627Y-62012037D02*
G01*
X101196466Y-62063557D01*
X101352991Y-62147222D01*
X101388729Y-62176552D01*
X101490186Y-62259814D01*
X101573448Y-62361271D01*
X101602778Y-62397009D01*
X101686443Y-62553534D01*
X101737963Y-62723373D01*
X101751000Y-62855742D01*
X101751000Y-63744258D01*
X101737963Y-63876627D01*
X101686443Y-64046466D01*
X101602778Y-64202991D01*
X101573448Y-64238729D01*
X101490186Y-64340186D01*
X101352989Y-64452779D01*
X101196467Y-64536442D01*
X101196465Y-64536443D01*
X101026626Y-64587963D01*
X100850000Y-64605359D01*
X100673373Y-64587963D01*
X100503534Y-64536443D01*
X100347009Y-64452778D01*
X100311271Y-64423448D01*
X100209814Y-64340186D01*
X100097221Y-64202989D01*
X100013558Y-64046467D01*
X100013557Y-64046465D01*
X99962037Y-63876626D01*
X99949000Y-63744257D01*
X99949000Y-62855742D01*
X99962038Y-62723373D01*
X100013558Y-62553534D01*
X100097223Y-62397009D01*
X100126553Y-62361271D01*
X100209815Y-62259814D01*
X100311272Y-62176552D01*
X100347010Y-62147222D01*
X100503535Y-62063557D01*
X100673374Y-62012037D01*
X100850000Y-61994641D01*
X101026627Y-62012037D01*
X101026627Y-62012037D01*
G37*
G36*
X82776627Y-62012037D02*
G01*
X82946466Y-62063557D01*
X83102991Y-62147222D01*
X83138729Y-62176552D01*
X83240186Y-62259814D01*
X83323448Y-62361271D01*
X83352778Y-62397009D01*
X83436443Y-62553534D01*
X83487963Y-62723373D01*
X83501000Y-62855742D01*
X83501000Y-63744258D01*
X83487963Y-63876627D01*
X83436443Y-64046466D01*
X83352778Y-64202991D01*
X83323448Y-64238729D01*
X83240186Y-64340186D01*
X83102989Y-64452779D01*
X82946467Y-64536442D01*
X82946465Y-64536443D01*
X82776626Y-64587963D01*
X82600000Y-64605359D01*
X82423373Y-64587963D01*
X82253534Y-64536443D01*
X82097009Y-64452778D01*
X82061271Y-64423448D01*
X81959814Y-64340186D01*
X81847221Y-64202989D01*
X81763558Y-64046467D01*
X81763557Y-64046465D01*
X81712037Y-63876626D01*
X81699000Y-63744257D01*
X81699000Y-62855742D01*
X81712038Y-62723373D01*
X81763558Y-62553534D01*
X81847223Y-62397009D01*
X81876553Y-62361271D01*
X81959815Y-62259814D01*
X82061272Y-62176552D01*
X82097010Y-62147222D01*
X82253535Y-62063557D01*
X82423374Y-62012037D01*
X82600000Y-61994641D01*
X82776627Y-62012037D01*
X82776627Y-62012037D01*
G37*
G36*
X78576627Y-60512037D02*
G01*
X78746466Y-60563557D01*
X78902991Y-60647222D01*
X78907594Y-60651000D01*
X79040186Y-60759814D01*
X79123448Y-60861271D01*
X79152778Y-60897009D01*
X79236443Y-61053534D01*
X79287963Y-61223373D01*
X79301000Y-61355742D01*
X79301000Y-62244258D01*
X79287963Y-62376627D01*
X79236443Y-62546466D01*
X79152778Y-62702991D01*
X79136051Y-62723373D01*
X79040186Y-62840186D01*
X78902989Y-62952779D01*
X78746467Y-63036442D01*
X78746465Y-63036443D01*
X78576626Y-63087963D01*
X78400000Y-63105359D01*
X78223373Y-63087963D01*
X78053534Y-63036443D01*
X77897009Y-62952778D01*
X77861271Y-62923448D01*
X77759814Y-62840186D01*
X77647221Y-62702989D01*
X77563558Y-62546467D01*
X77518221Y-62397011D01*
X77512037Y-62376626D01*
X77499000Y-62244257D01*
X77499000Y-61355742D01*
X77512038Y-61223373D01*
X77563558Y-61053534D01*
X77647223Y-60897009D01*
X77676553Y-60861271D01*
X77759815Y-60759814D01*
X77892407Y-60651000D01*
X77897010Y-60647222D01*
X78053535Y-60563557D01*
X78223374Y-60512037D01*
X78400000Y-60494641D01*
X78576627Y-60512037D01*
X78576627Y-60512037D01*
G37*
G36*
X96826627Y-60512037D02*
G01*
X96996466Y-60563557D01*
X97152991Y-60647222D01*
X97157594Y-60651000D01*
X97290186Y-60759814D01*
X97373448Y-60861271D01*
X97402778Y-60897009D01*
X97486443Y-61053534D01*
X97537963Y-61223373D01*
X97551000Y-61355742D01*
X97551000Y-62244258D01*
X97537963Y-62376627D01*
X97486443Y-62546466D01*
X97402778Y-62702991D01*
X97386051Y-62723373D01*
X97290186Y-62840186D01*
X97152989Y-62952779D01*
X96996467Y-63036442D01*
X96996465Y-63036443D01*
X96826626Y-63087963D01*
X96650000Y-63105359D01*
X96473373Y-63087963D01*
X96303534Y-63036443D01*
X96147009Y-62952778D01*
X96111271Y-62923448D01*
X96009814Y-62840186D01*
X95897221Y-62702989D01*
X95813558Y-62546467D01*
X95768221Y-62397011D01*
X95762037Y-62376626D01*
X95749000Y-62244257D01*
X95749000Y-61355742D01*
X95762038Y-61223373D01*
X95813558Y-61053534D01*
X95897223Y-60897009D01*
X95926553Y-60861271D01*
X96009815Y-60759814D01*
X96142407Y-60651000D01*
X96147010Y-60647222D01*
X96303535Y-60563557D01*
X96473374Y-60512037D01*
X96650000Y-60494641D01*
X96826627Y-60512037D01*
X96826627Y-60512037D01*
G37*
G36*
X80689890Y-59374017D02*
G01*
X80808364Y-59423091D01*
X80914988Y-59494335D01*
X81005665Y-59585012D01*
X81076909Y-59691636D01*
X81125983Y-59810110D01*
X81151000Y-59935882D01*
X81151000Y-60064118D01*
X81125983Y-60189890D01*
X81076909Y-60308364D01*
X81005665Y-60414988D01*
X80914988Y-60505665D01*
X80808364Y-60576909D01*
X80808363Y-60576910D01*
X80808362Y-60576910D01*
X80689890Y-60625983D01*
X80564119Y-60651000D01*
X80435881Y-60651000D01*
X80310110Y-60625983D01*
X80191638Y-60576910D01*
X80191637Y-60576910D01*
X80191636Y-60576909D01*
X80085012Y-60505665D01*
X79994335Y-60414988D01*
X79923091Y-60308364D01*
X79874017Y-60189890D01*
X79849000Y-60064118D01*
X79849000Y-59935882D01*
X79874017Y-59810110D01*
X79923091Y-59691636D01*
X79994335Y-59585012D01*
X80085012Y-59494335D01*
X80191636Y-59423091D01*
X80310110Y-59374017D01*
X80435881Y-59349000D01*
X80564119Y-59349000D01*
X80689890Y-59374017D01*
X80689890Y-59374017D01*
G37*
G36*
X98939890Y-59374017D02*
G01*
X99058364Y-59423091D01*
X99164988Y-59494335D01*
X99255665Y-59585012D01*
X99326909Y-59691636D01*
X99375983Y-59810110D01*
X99401000Y-59935882D01*
X99401000Y-60064118D01*
X99375983Y-60189890D01*
X99326909Y-60308364D01*
X99255665Y-60414988D01*
X99164988Y-60505665D01*
X99058364Y-60576909D01*
X99058363Y-60576910D01*
X99058362Y-60576910D01*
X98939890Y-60625983D01*
X98814119Y-60651000D01*
X98685881Y-60651000D01*
X98560110Y-60625983D01*
X98441638Y-60576910D01*
X98441637Y-60576910D01*
X98441636Y-60576909D01*
X98335012Y-60505665D01*
X98244335Y-60414988D01*
X98173091Y-60308364D01*
X98124017Y-60189890D01*
X98099000Y-60064118D01*
X98099000Y-59935882D01*
X98124017Y-59810110D01*
X98173091Y-59691636D01*
X98244335Y-59585012D01*
X98335012Y-59494335D01*
X98441636Y-59423091D01*
X98560110Y-59374017D01*
X98685881Y-59349000D01*
X98814119Y-59349000D01*
X98939890Y-59374017D01*
X98939890Y-59374017D01*
G37*
G36*
X78576627Y-56512037D02*
G01*
X78746466Y-56563557D01*
X78902991Y-56647222D01*
X78938729Y-56676552D01*
X79040186Y-56759814D01*
X79095319Y-56826995D01*
X79152778Y-56897009D01*
X79236443Y-57053534D01*
X79287963Y-57223373D01*
X79301000Y-57355742D01*
X79301000Y-58244258D01*
X79287963Y-58376627D01*
X79236443Y-58546466D01*
X79152778Y-58702991D01*
X79123448Y-58738729D01*
X79040186Y-58840186D01*
X78902989Y-58952779D01*
X78746467Y-59036442D01*
X78746465Y-59036443D01*
X78576626Y-59087963D01*
X78400000Y-59105359D01*
X78223373Y-59087963D01*
X78053534Y-59036443D01*
X77897009Y-58952778D01*
X77861271Y-58923448D01*
X77759814Y-58840186D01*
X77647221Y-58702989D01*
X77563558Y-58546467D01*
X77561444Y-58539499D01*
X77512037Y-58376626D01*
X77499000Y-58244257D01*
X77499000Y-57355742D01*
X77512038Y-57223373D01*
X77563558Y-57053534D01*
X77647223Y-56897009D01*
X77704682Y-56826995D01*
X77759815Y-56759814D01*
X77861272Y-56676552D01*
X77897010Y-56647222D01*
X78053535Y-56563557D01*
X78223374Y-56512037D01*
X78400000Y-56494641D01*
X78576627Y-56512037D01*
X78576627Y-56512037D01*
G37*
G36*
X96826627Y-56512037D02*
G01*
X96996466Y-56563557D01*
X97152991Y-56647222D01*
X97188729Y-56676552D01*
X97290186Y-56759814D01*
X97345319Y-56826995D01*
X97402778Y-56897009D01*
X97486443Y-57053534D01*
X97537963Y-57223373D01*
X97551000Y-57355742D01*
X97551000Y-58244258D01*
X97537963Y-58376627D01*
X97486443Y-58546466D01*
X97402778Y-58702991D01*
X97373448Y-58738729D01*
X97290186Y-58840186D01*
X97152989Y-58952779D01*
X96996467Y-59036442D01*
X96996465Y-59036443D01*
X96826626Y-59087963D01*
X96650000Y-59105359D01*
X96473373Y-59087963D01*
X96303534Y-59036443D01*
X96147009Y-58952778D01*
X96111271Y-58923448D01*
X96009814Y-58840186D01*
X95897221Y-58702989D01*
X95813558Y-58546467D01*
X95811444Y-58539499D01*
X95762037Y-58376626D01*
X95749000Y-58244257D01*
X95749000Y-57355742D01*
X95762038Y-57223373D01*
X95813558Y-57053534D01*
X95897223Y-56897009D01*
X95954682Y-56826995D01*
X96009815Y-56759814D01*
X96111272Y-56676552D01*
X96147010Y-56647222D01*
X96303535Y-56563557D01*
X96473374Y-56512037D01*
X96650000Y-56494641D01*
X96826627Y-56512037D01*
X96826627Y-56512037D01*
G37*
G36*
X93864499Y-57553445D02*
G01*
X93901995Y-57564820D01*
X93936554Y-57583292D01*
X93966847Y-57608153D01*
X93991708Y-57638446D01*
X94010180Y-57673005D01*
X94021555Y-57710501D01*
X94026000Y-57755638D01*
X94026000Y-58494362D01*
X94021555Y-58539499D01*
X94010180Y-58576995D01*
X93991708Y-58611554D01*
X93966847Y-58641847D01*
X93936554Y-58666708D01*
X93901995Y-58685180D01*
X93864499Y-58696555D01*
X93819362Y-58701000D01*
X93180638Y-58701000D01*
X93135501Y-58696555D01*
X93098005Y-58685180D01*
X93063446Y-58666708D01*
X93033153Y-58641847D01*
X93008292Y-58611554D01*
X92989820Y-58576995D01*
X92978445Y-58539499D01*
X92974000Y-58494362D01*
X92974000Y-57755638D01*
X92978445Y-57710501D01*
X92989820Y-57673005D01*
X93008292Y-57638446D01*
X93033153Y-57608153D01*
X93063446Y-57583292D01*
X93098005Y-57564820D01*
X93135501Y-57553445D01*
X93180638Y-57549000D01*
X93819362Y-57549000D01*
X93864499Y-57553445D01*
X93864499Y-57553445D01*
G37*
G36*
X86364499Y-57553445D02*
G01*
X86401995Y-57564820D01*
X86436554Y-57583292D01*
X86466847Y-57608153D01*
X86491708Y-57638446D01*
X86510180Y-57673005D01*
X86521555Y-57710501D01*
X86526000Y-57755638D01*
X86526000Y-58494362D01*
X86521555Y-58539499D01*
X86510180Y-58576995D01*
X86491708Y-58611554D01*
X86466847Y-58641847D01*
X86436554Y-58666708D01*
X86401995Y-58685180D01*
X86364499Y-58696555D01*
X86319362Y-58701000D01*
X85680638Y-58701000D01*
X85635501Y-58696555D01*
X85598005Y-58685180D01*
X85563446Y-58666708D01*
X85533153Y-58641847D01*
X85508292Y-58611554D01*
X85489820Y-58576995D01*
X85478445Y-58539499D01*
X85474000Y-58494362D01*
X85474000Y-57755638D01*
X85478445Y-57710501D01*
X85489820Y-57673005D01*
X85508292Y-57638446D01*
X85533153Y-57608153D01*
X85563446Y-57583292D01*
X85598005Y-57564820D01*
X85635501Y-57553445D01*
X85680638Y-57549000D01*
X86319362Y-57549000D01*
X86364499Y-57553445D01*
X86364499Y-57553445D01*
G37*
G36*
X91364499Y-57553445D02*
G01*
X91401995Y-57564820D01*
X91436554Y-57583292D01*
X91466847Y-57608153D01*
X91491708Y-57638446D01*
X91510180Y-57673005D01*
X91521555Y-57710501D01*
X91526000Y-57755638D01*
X91526000Y-58494362D01*
X91521555Y-58539499D01*
X91510180Y-58576995D01*
X91491708Y-58611554D01*
X91466847Y-58641847D01*
X91436554Y-58666708D01*
X91401995Y-58685180D01*
X91364499Y-58696555D01*
X91319362Y-58701000D01*
X90680638Y-58701000D01*
X90635501Y-58696555D01*
X90598005Y-58685180D01*
X90563446Y-58666708D01*
X90533153Y-58641847D01*
X90508292Y-58611554D01*
X90489820Y-58576995D01*
X90478445Y-58539499D01*
X90474000Y-58494362D01*
X90474000Y-57755638D01*
X90478445Y-57710501D01*
X90489820Y-57673005D01*
X90508292Y-57638446D01*
X90533153Y-57608153D01*
X90563446Y-57583292D01*
X90598005Y-57564820D01*
X90635501Y-57553445D01*
X90680638Y-57549000D01*
X91319362Y-57549000D01*
X91364499Y-57553445D01*
X91364499Y-57553445D01*
G37*
G36*
X88864499Y-57553445D02*
G01*
X88901995Y-57564820D01*
X88936554Y-57583292D01*
X88966847Y-57608153D01*
X88991708Y-57638446D01*
X89010180Y-57673005D01*
X89021555Y-57710501D01*
X89026000Y-57755638D01*
X89026000Y-58494362D01*
X89021555Y-58539499D01*
X89010180Y-58576995D01*
X88991708Y-58611554D01*
X88966847Y-58641847D01*
X88936554Y-58666708D01*
X88901995Y-58685180D01*
X88864499Y-58696555D01*
X88819362Y-58701000D01*
X88180638Y-58701000D01*
X88135501Y-58696555D01*
X88098005Y-58685180D01*
X88063446Y-58666708D01*
X88033153Y-58641847D01*
X88008292Y-58611554D01*
X87989820Y-58576995D01*
X87978445Y-58539499D01*
X87974000Y-58494362D01*
X87974000Y-57755638D01*
X87978445Y-57710501D01*
X87989820Y-57673005D01*
X88008292Y-57638446D01*
X88033153Y-57608153D01*
X88063446Y-57583292D01*
X88098005Y-57564820D01*
X88135501Y-57553445D01*
X88180638Y-57549000D01*
X88819362Y-57549000D01*
X88864499Y-57553445D01*
X88864499Y-57553445D01*
G37*
G36*
X93864499Y-55803445D02*
G01*
X93901995Y-55814820D01*
X93936554Y-55833292D01*
X93966847Y-55858153D01*
X93991708Y-55888446D01*
X94010180Y-55923005D01*
X94021555Y-55960501D01*
X94026000Y-56005638D01*
X94026000Y-56744362D01*
X94021555Y-56789499D01*
X94010180Y-56826995D01*
X93991708Y-56861554D01*
X93966847Y-56891847D01*
X93936554Y-56916708D01*
X93901995Y-56935180D01*
X93864499Y-56946555D01*
X93819362Y-56951000D01*
X93180638Y-56951000D01*
X93135501Y-56946555D01*
X93098005Y-56935180D01*
X93063446Y-56916708D01*
X93033153Y-56891847D01*
X93008292Y-56861554D01*
X92989820Y-56826995D01*
X92978445Y-56789499D01*
X92974000Y-56744362D01*
X92974000Y-56005638D01*
X92978445Y-55960501D01*
X92989820Y-55923005D01*
X93008292Y-55888446D01*
X93033153Y-55858153D01*
X93063446Y-55833292D01*
X93098005Y-55814820D01*
X93135501Y-55803445D01*
X93180638Y-55799000D01*
X93819362Y-55799000D01*
X93864499Y-55803445D01*
X93864499Y-55803445D01*
G37*
G36*
X91364499Y-55803445D02*
G01*
X91401995Y-55814820D01*
X91436554Y-55833292D01*
X91466847Y-55858153D01*
X91491708Y-55888446D01*
X91510180Y-55923005D01*
X91521555Y-55960501D01*
X91526000Y-56005638D01*
X91526000Y-56744362D01*
X91521555Y-56789499D01*
X91510180Y-56826995D01*
X91491708Y-56861554D01*
X91466847Y-56891847D01*
X91436554Y-56916708D01*
X91401995Y-56935180D01*
X91364499Y-56946555D01*
X91319362Y-56951000D01*
X90680638Y-56951000D01*
X90635501Y-56946555D01*
X90598005Y-56935180D01*
X90563446Y-56916708D01*
X90533153Y-56891847D01*
X90508292Y-56861554D01*
X90489820Y-56826995D01*
X90478445Y-56789499D01*
X90474000Y-56744362D01*
X90474000Y-56005638D01*
X90478445Y-55960501D01*
X90489820Y-55923005D01*
X90508292Y-55888446D01*
X90533153Y-55858153D01*
X90563446Y-55833292D01*
X90598005Y-55814820D01*
X90635501Y-55803445D01*
X90680638Y-55799000D01*
X91319362Y-55799000D01*
X91364499Y-55803445D01*
X91364499Y-55803445D01*
G37*
G36*
X88864499Y-55803445D02*
G01*
X88901995Y-55814820D01*
X88936554Y-55833292D01*
X88966847Y-55858153D01*
X88991708Y-55888446D01*
X89010180Y-55923005D01*
X89021555Y-55960501D01*
X89026000Y-56005638D01*
X89026000Y-56744362D01*
X89021555Y-56789499D01*
X89010180Y-56826995D01*
X88991708Y-56861554D01*
X88966847Y-56891847D01*
X88936554Y-56916708D01*
X88901995Y-56935180D01*
X88864499Y-56946555D01*
X88819362Y-56951000D01*
X88180638Y-56951000D01*
X88135501Y-56946555D01*
X88098005Y-56935180D01*
X88063446Y-56916708D01*
X88033153Y-56891847D01*
X88008292Y-56861554D01*
X87989820Y-56826995D01*
X87978445Y-56789499D01*
X87974000Y-56744362D01*
X87974000Y-56005638D01*
X87978445Y-55960501D01*
X87989820Y-55923005D01*
X88008292Y-55888446D01*
X88033153Y-55858153D01*
X88063446Y-55833292D01*
X88098005Y-55814820D01*
X88135501Y-55803445D01*
X88180638Y-55799000D01*
X88819362Y-55799000D01*
X88864499Y-55803445D01*
X88864499Y-55803445D01*
G37*
G36*
X86364499Y-55803445D02*
G01*
X86401995Y-55814820D01*
X86436554Y-55833292D01*
X86466847Y-55858153D01*
X86491708Y-55888446D01*
X86510180Y-55923005D01*
X86521555Y-55960501D01*
X86526000Y-56005638D01*
X86526000Y-56744362D01*
X86521555Y-56789499D01*
X86510180Y-56826995D01*
X86491708Y-56861554D01*
X86466847Y-56891847D01*
X86436554Y-56916708D01*
X86401995Y-56935180D01*
X86364499Y-56946555D01*
X86319362Y-56951000D01*
X85680638Y-56951000D01*
X85635501Y-56946555D01*
X85598005Y-56935180D01*
X85563446Y-56916708D01*
X85533153Y-56891847D01*
X85508292Y-56861554D01*
X85489820Y-56826995D01*
X85478445Y-56789499D01*
X85474000Y-56744362D01*
X85474000Y-56005638D01*
X85478445Y-55960501D01*
X85489820Y-55923005D01*
X85508292Y-55888446D01*
X85533153Y-55858153D01*
X85563446Y-55833292D01*
X85598005Y-55814820D01*
X85635501Y-55803445D01*
X85680638Y-55799000D01*
X86319362Y-55799000D01*
X86364499Y-55803445D01*
X86364499Y-55803445D01*
G37*
G36*
X78576627Y-53512037D02*
G01*
X78746466Y-53563557D01*
X78902991Y-53647222D01*
X78907594Y-53651000D01*
X79040186Y-53759814D01*
X79123448Y-53861271D01*
X79152778Y-53897009D01*
X79236443Y-54053534D01*
X79287963Y-54223373D01*
X79301000Y-54355742D01*
X79301000Y-55244258D01*
X79287963Y-55376627D01*
X79236443Y-55546466D01*
X79152778Y-55702991D01*
X79123448Y-55738729D01*
X79040186Y-55840186D01*
X78902989Y-55952779D01*
X78746467Y-56036442D01*
X78746465Y-56036443D01*
X78576626Y-56087963D01*
X78400000Y-56105359D01*
X78223373Y-56087963D01*
X78053534Y-56036443D01*
X77897009Y-55952778D01*
X77852055Y-55915885D01*
X77759814Y-55840186D01*
X77647221Y-55702989D01*
X77563558Y-55546467D01*
X77563557Y-55546465D01*
X77512037Y-55376626D01*
X77499000Y-55244257D01*
X77499000Y-54355742D01*
X77512038Y-54223373D01*
X77563558Y-54053534D01*
X77647223Y-53897009D01*
X77676553Y-53861271D01*
X77759815Y-53759814D01*
X77892407Y-53651000D01*
X77897010Y-53647222D01*
X78053535Y-53563557D01*
X78223374Y-53512037D01*
X78400000Y-53494641D01*
X78576627Y-53512037D01*
X78576627Y-53512037D01*
G37*
G36*
X96826627Y-53512037D02*
G01*
X96996466Y-53563557D01*
X97152991Y-53647222D01*
X97157594Y-53651000D01*
X97290186Y-53759814D01*
X97373448Y-53861271D01*
X97402778Y-53897009D01*
X97486443Y-54053534D01*
X97537963Y-54223373D01*
X97551000Y-54355742D01*
X97551000Y-55244258D01*
X97537963Y-55376627D01*
X97486443Y-55546466D01*
X97402778Y-55702991D01*
X97373448Y-55738729D01*
X97290186Y-55840186D01*
X97152989Y-55952779D01*
X96996467Y-56036442D01*
X96996465Y-56036443D01*
X96826626Y-56087963D01*
X96650000Y-56105359D01*
X96473373Y-56087963D01*
X96303534Y-56036443D01*
X96147009Y-55952778D01*
X96102055Y-55915885D01*
X96009814Y-55840186D01*
X95897221Y-55702989D01*
X95813558Y-55546467D01*
X95813557Y-55546465D01*
X95762037Y-55376626D01*
X95749000Y-55244257D01*
X95749000Y-54355742D01*
X95762038Y-54223373D01*
X95813558Y-54053534D01*
X95897223Y-53897009D01*
X95926553Y-53861271D01*
X96009815Y-53759814D01*
X96142407Y-53651000D01*
X96147010Y-53647222D01*
X96303535Y-53563557D01*
X96473374Y-53512037D01*
X96650000Y-53494641D01*
X96826627Y-53512037D01*
X96826627Y-53512037D01*
G37*
G36*
X80689890Y-52374017D02*
G01*
X80808364Y-52423091D01*
X80914988Y-52494335D01*
X81005665Y-52585012D01*
X81076909Y-52691636D01*
X81125983Y-52810110D01*
X81151000Y-52935882D01*
X81151000Y-53064118D01*
X81125983Y-53189890D01*
X81076909Y-53308364D01*
X81005665Y-53414988D01*
X80914988Y-53505665D01*
X80808364Y-53576909D01*
X80808363Y-53576910D01*
X80808362Y-53576910D01*
X80689890Y-53625983D01*
X80564119Y-53651000D01*
X80435881Y-53651000D01*
X80310110Y-53625983D01*
X80191638Y-53576910D01*
X80191637Y-53576910D01*
X80191636Y-53576909D01*
X80085012Y-53505665D01*
X79994335Y-53414988D01*
X79923091Y-53308364D01*
X79874017Y-53189890D01*
X79849000Y-53064118D01*
X79849000Y-52935882D01*
X79874017Y-52810110D01*
X79923091Y-52691636D01*
X79994335Y-52585012D01*
X80085012Y-52494335D01*
X80191636Y-52423091D01*
X80310110Y-52374017D01*
X80435881Y-52349000D01*
X80564119Y-52349000D01*
X80689890Y-52374017D01*
X80689890Y-52374017D01*
G37*
G36*
X98939890Y-52374017D02*
G01*
X99058364Y-52423091D01*
X99164988Y-52494335D01*
X99255665Y-52585012D01*
X99326909Y-52691636D01*
X99375983Y-52810110D01*
X99401000Y-52935882D01*
X99401000Y-53064118D01*
X99375983Y-53189890D01*
X99326909Y-53308364D01*
X99255665Y-53414988D01*
X99164988Y-53505665D01*
X99058364Y-53576909D01*
X99058363Y-53576910D01*
X99058362Y-53576910D01*
X98939890Y-53625983D01*
X98814119Y-53651000D01*
X98685881Y-53651000D01*
X98560110Y-53625983D01*
X98441638Y-53576910D01*
X98441637Y-53576910D01*
X98441636Y-53576909D01*
X98335012Y-53505665D01*
X98244335Y-53414988D01*
X98173091Y-53308364D01*
X98124017Y-53189890D01*
X98099000Y-53064118D01*
X98099000Y-52935882D01*
X98124017Y-52810110D01*
X98173091Y-52691636D01*
X98244335Y-52585012D01*
X98335012Y-52494335D01*
X98441636Y-52423091D01*
X98560110Y-52374017D01*
X98685881Y-52349000D01*
X98814119Y-52349000D01*
X98939890Y-52374017D01*
X98939890Y-52374017D01*
G37*
M02*
