G04 #@! TF.GenerationSoftware,KiCad,Pcbnew,(5.1.0-0)*
G04 #@! TF.CreationDate,2019-06-09T21:10:29+02:00*
G04 #@! TF.ProjectId,blackpill-pendant,626c6163-6b70-4696-9c6c-2d70656e6461,rev?*
G04 #@! TF.SameCoordinates,Original*
G04 #@! TF.FileFunction,Legend,Bot*
G04 #@! TF.FilePolarity,Positive*
%FSLAX46Y46*%
G04 Gerber Fmt 4.6, Leading zero omitted, Abs format (unit mm)*
G04 Created by KiCad (PCBNEW (5.1.0-0)) date 2019-06-09 21:10:29*
%MOMM*%
%LPD*%
G04 APERTURE LIST*
%ADD10C,0.150000*%
%ADD11C,0.120000*%
G04 APERTURE END LIST*
D10*
X85095238Y-115154761D02*
X85047619Y-115250000D01*
X85047619Y-115440476D01*
X85095238Y-115535714D01*
X85190476Y-115583333D01*
X85571428Y-115583333D01*
X85666666Y-115535714D01*
X85714285Y-115440476D01*
X85714285Y-115250000D01*
X85666666Y-115154761D01*
X85571428Y-115107142D01*
X85476190Y-115107142D01*
X85380952Y-115583333D01*
X85095238Y-114726190D02*
X85047619Y-114630952D01*
X85047619Y-114440476D01*
X85095238Y-114345238D01*
X85190476Y-114297619D01*
X85238095Y-114297619D01*
X85333333Y-114345238D01*
X85380952Y-114440476D01*
X85380952Y-114583333D01*
X85428571Y-114678571D01*
X85523809Y-114726190D01*
X85571428Y-114726190D01*
X85666666Y-114678571D01*
X85714285Y-114583333D01*
X85714285Y-114440476D01*
X85666666Y-114345238D01*
X85714285Y-113964285D02*
X85047619Y-113773809D01*
X85523809Y-113583333D01*
X85047619Y-113392857D01*
X85714285Y-113202380D01*
X85047619Y-112392857D02*
X85571428Y-112392857D01*
X85666666Y-112440476D01*
X85714285Y-112535714D01*
X85714285Y-112726190D01*
X85666666Y-112821428D01*
X85095238Y-112392857D02*
X85047619Y-112488095D01*
X85047619Y-112726190D01*
X85095238Y-112821428D01*
X85190476Y-112869047D01*
X85285714Y-112869047D01*
X85380952Y-112821428D01*
X85428571Y-112726190D01*
X85428571Y-112488095D01*
X85476190Y-112392857D01*
X85047619Y-111916666D02*
X85714285Y-111916666D01*
X86047619Y-111916666D02*
X86000000Y-111964285D01*
X85952380Y-111916666D01*
X86000000Y-111869047D01*
X86047619Y-111916666D01*
X85952380Y-111916666D01*
X85952380Y-110726190D02*
X86000000Y-110678571D01*
X86047619Y-110583333D01*
X86047619Y-110345238D01*
X86000000Y-110250000D01*
X85952380Y-110202380D01*
X85857142Y-110154761D01*
X85761904Y-110154761D01*
X85619047Y-110202380D01*
X85047619Y-110773809D01*
X85047619Y-110154761D01*
X86047619Y-109535714D02*
X86047619Y-109440476D01*
X86000000Y-109345238D01*
X85952380Y-109297619D01*
X85857142Y-109250000D01*
X85666666Y-109202380D01*
X85428571Y-109202380D01*
X85238095Y-109250000D01*
X85142857Y-109297619D01*
X85095238Y-109345238D01*
X85047619Y-109440476D01*
X85047619Y-109535714D01*
X85095238Y-109630952D01*
X85142857Y-109678571D01*
X85238095Y-109726190D01*
X85428571Y-109773809D01*
X85666666Y-109773809D01*
X85857142Y-109726190D01*
X85952380Y-109678571D01*
X86000000Y-109630952D01*
X86047619Y-109535714D01*
X85047619Y-108250000D02*
X85047619Y-108821428D01*
X85047619Y-108535714D02*
X86047619Y-108535714D01*
X85904761Y-108630952D01*
X85809523Y-108726190D01*
X85761904Y-108821428D01*
X85047619Y-107773809D02*
X85047619Y-107583333D01*
X85095238Y-107488095D01*
X85142857Y-107440476D01*
X85285714Y-107345238D01*
X85476190Y-107297619D01*
X85857142Y-107297619D01*
X85952380Y-107345238D01*
X86000000Y-107392857D01*
X86047619Y-107488095D01*
X86047619Y-107678571D01*
X86000000Y-107773809D01*
X85952380Y-107821428D01*
X85857142Y-107869047D01*
X85619047Y-107869047D01*
X85523809Y-107821428D01*
X85476190Y-107773809D01*
X85428571Y-107678571D01*
X85428571Y-107488095D01*
X85476190Y-107392857D01*
X85523809Y-107345238D01*
X85619047Y-107297619D01*
X85142857Y-106869047D02*
X85095238Y-106821428D01*
X85047619Y-106869047D01*
X85095238Y-106916666D01*
X85142857Y-106869047D01*
X85047619Y-106869047D01*
X86047619Y-106202380D02*
X86047619Y-106107142D01*
X86000000Y-106011904D01*
X85952380Y-105964285D01*
X85857142Y-105916666D01*
X85666666Y-105869047D01*
X85428571Y-105869047D01*
X85238095Y-105916666D01*
X85142857Y-105964285D01*
X85095238Y-106011904D01*
X85047619Y-106107142D01*
X85047619Y-106202380D01*
X85095238Y-106297619D01*
X85142857Y-106345238D01*
X85238095Y-106392857D01*
X85428571Y-106440476D01*
X85666666Y-106440476D01*
X85857142Y-106392857D01*
X85952380Y-106345238D01*
X86000000Y-106297619D01*
X86047619Y-106202380D01*
X86047619Y-105011904D02*
X86047619Y-105202380D01*
X86000000Y-105297619D01*
X85952380Y-105345238D01*
X85809523Y-105440476D01*
X85619047Y-105488095D01*
X85238095Y-105488095D01*
X85142857Y-105440476D01*
X85095238Y-105392857D01*
X85047619Y-105297619D01*
X85047619Y-105107142D01*
X85095238Y-105011904D01*
X85142857Y-104964285D01*
X85238095Y-104916666D01*
X85476190Y-104916666D01*
X85571428Y-104964285D01*
X85619047Y-105011904D01*
X85666666Y-105107142D01*
X85666666Y-105297619D01*
X85619047Y-105392857D01*
X85571428Y-105440476D01*
X85476190Y-105488095D01*
X101750000Y-63500000D02*
X101750000Y-51500000D01*
X95750000Y-63500000D02*
X101750000Y-63500000D01*
X95750000Y-51500000D02*
X95750000Y-63500000D01*
X101750000Y-51500000D02*
X95750000Y-51500000D01*
X83500000Y-63500000D02*
X83500000Y-51500000D01*
X77500000Y-63500000D02*
X83500000Y-63500000D01*
X77500000Y-51500000D02*
X77500000Y-63500000D01*
X83500000Y-51500000D02*
X77500000Y-51500000D01*
D11*
X94010000Y-57078733D02*
X94010000Y-57421267D01*
X92990000Y-57078733D02*
X92990000Y-57421267D01*
X91510000Y-57078733D02*
X91510000Y-57421267D01*
X90490000Y-57078733D02*
X90490000Y-57421267D01*
X86510000Y-57078733D02*
X86510000Y-57421267D01*
X85490000Y-57078733D02*
X85490000Y-57421267D01*
X89010000Y-57078733D02*
X89010000Y-57421267D01*
X87990000Y-57078733D02*
X87990000Y-57421267D01*
D10*
X101261904Y-57402380D02*
X100690476Y-57402380D01*
X100976190Y-58402380D02*
X100976190Y-57402380D01*
X99785714Y-58402380D02*
X100119047Y-57926190D01*
X100357142Y-58402380D02*
X100357142Y-57402380D01*
X99976190Y-57402380D01*
X99880952Y-57450000D01*
X99833333Y-57497619D01*
X99785714Y-57592857D01*
X99785714Y-57735714D01*
X99833333Y-57830952D01*
X99880952Y-57878571D01*
X99976190Y-57926190D01*
X100357142Y-57926190D01*
X98785714Y-58402380D02*
X99119047Y-57926190D01*
X99357142Y-58402380D02*
X99357142Y-57402380D01*
X98976190Y-57402380D01*
X98880952Y-57450000D01*
X98833333Y-57497619D01*
X98785714Y-57592857D01*
X98785714Y-57735714D01*
X98833333Y-57830952D01*
X98880952Y-57878571D01*
X98976190Y-57926190D01*
X99357142Y-57926190D01*
X98404761Y-58354761D02*
X98261904Y-58402380D01*
X98023809Y-58402380D01*
X97928571Y-58354761D01*
X97880952Y-58307142D01*
X97833333Y-58211904D01*
X97833333Y-58116666D01*
X97880952Y-58021428D01*
X97928571Y-57973809D01*
X98023809Y-57926190D01*
X98214285Y-57878571D01*
X98309523Y-57830952D01*
X98357142Y-57783333D01*
X98404761Y-57688095D01*
X98404761Y-57592857D01*
X98357142Y-57497619D01*
X98309523Y-57450000D01*
X98214285Y-57402380D01*
X97976190Y-57402380D01*
X97833333Y-57450000D01*
X83011904Y-57402380D02*
X82440476Y-57402380D01*
X82726190Y-58402380D02*
X82726190Y-57402380D01*
X81535714Y-58402380D02*
X81869047Y-57926190D01*
X82107142Y-58402380D02*
X82107142Y-57402380D01*
X81726190Y-57402380D01*
X81630952Y-57450000D01*
X81583333Y-57497619D01*
X81535714Y-57592857D01*
X81535714Y-57735714D01*
X81583333Y-57830952D01*
X81630952Y-57878571D01*
X81726190Y-57926190D01*
X82107142Y-57926190D01*
X80535714Y-58402380D02*
X80869047Y-57926190D01*
X81107142Y-58402380D02*
X81107142Y-57402380D01*
X80726190Y-57402380D01*
X80630952Y-57450000D01*
X80583333Y-57497619D01*
X80535714Y-57592857D01*
X80535714Y-57735714D01*
X80583333Y-57830952D01*
X80630952Y-57878571D01*
X80726190Y-57926190D01*
X81107142Y-57926190D01*
X80154761Y-58354761D02*
X80011904Y-58402380D01*
X79773809Y-58402380D01*
X79678571Y-58354761D01*
X79630952Y-58307142D01*
X79583333Y-58211904D01*
X79583333Y-58116666D01*
X79630952Y-58021428D01*
X79678571Y-57973809D01*
X79773809Y-57926190D01*
X79964285Y-57878571D01*
X80059523Y-57830952D01*
X80107142Y-57783333D01*
X80154761Y-57688095D01*
X80154761Y-57592857D01*
X80107142Y-57497619D01*
X80059523Y-57450000D01*
X79964285Y-57402380D01*
X79726190Y-57402380D01*
X79583333Y-57450000D01*
X94202380Y-54333333D02*
X93726190Y-54000000D01*
X94202380Y-53761904D02*
X93202380Y-53761904D01*
X93202380Y-54142857D01*
X93250000Y-54238095D01*
X93297619Y-54285714D01*
X93392857Y-54333333D01*
X93535714Y-54333333D01*
X93630952Y-54285714D01*
X93678571Y-54238095D01*
X93726190Y-54142857D01*
X93726190Y-53761904D01*
X93535714Y-55190476D02*
X94202380Y-55190476D01*
X93154761Y-54952380D02*
X93869047Y-54714285D01*
X93869047Y-55333333D01*
X91702380Y-54333333D02*
X91226190Y-54000000D01*
X91702380Y-53761904D02*
X90702380Y-53761904D01*
X90702380Y-54142857D01*
X90750000Y-54238095D01*
X90797619Y-54285714D01*
X90892857Y-54333333D01*
X91035714Y-54333333D01*
X91130952Y-54285714D01*
X91178571Y-54238095D01*
X91226190Y-54142857D01*
X91226190Y-53761904D01*
X90702380Y-54666666D02*
X90702380Y-55285714D01*
X91083333Y-54952380D01*
X91083333Y-55095238D01*
X91130952Y-55190476D01*
X91178571Y-55238095D01*
X91273809Y-55285714D01*
X91511904Y-55285714D01*
X91607142Y-55238095D01*
X91654761Y-55190476D01*
X91702380Y-55095238D01*
X91702380Y-54809523D01*
X91654761Y-54714285D01*
X91607142Y-54666666D01*
X86452380Y-54333333D02*
X85976190Y-54000000D01*
X86452380Y-53761904D02*
X85452380Y-53761904D01*
X85452380Y-54142857D01*
X85500000Y-54238095D01*
X85547619Y-54285714D01*
X85642857Y-54333333D01*
X85785714Y-54333333D01*
X85880952Y-54285714D01*
X85928571Y-54238095D01*
X85976190Y-54142857D01*
X85976190Y-53761904D01*
X85547619Y-54714285D02*
X85500000Y-54761904D01*
X85452380Y-54857142D01*
X85452380Y-55095238D01*
X85500000Y-55190476D01*
X85547619Y-55238095D01*
X85642857Y-55285714D01*
X85738095Y-55285714D01*
X85880952Y-55238095D01*
X86452380Y-54666666D01*
X86452380Y-55285714D01*
X88952380Y-54333333D02*
X88476190Y-54000000D01*
X88952380Y-53761904D02*
X87952380Y-53761904D01*
X87952380Y-54142857D01*
X88000000Y-54238095D01*
X88047619Y-54285714D01*
X88142857Y-54333333D01*
X88285714Y-54333333D01*
X88380952Y-54285714D01*
X88428571Y-54238095D01*
X88476190Y-54142857D01*
X88476190Y-53761904D01*
X88952380Y-55285714D02*
X88952380Y-54714285D01*
X88952380Y-55000000D02*
X87952380Y-55000000D01*
X88095238Y-54904761D01*
X88190476Y-54809523D01*
X88238095Y-54714285D01*
X79523621Y-114216375D02*
X79624636Y-114250047D01*
X79725651Y-114351062D01*
X79792995Y-114485749D01*
X79792995Y-114620436D01*
X79759323Y-114721451D01*
X79658308Y-114889810D01*
X79557293Y-114990825D01*
X79388934Y-115091841D01*
X79287919Y-115125512D01*
X79153232Y-115125512D01*
X79018545Y-115058169D01*
X78951201Y-114990825D01*
X78883858Y-114856138D01*
X78883858Y-114788795D01*
X79119560Y-114553093D01*
X79254247Y-114687780D01*
X78513468Y-114553093D02*
X79220575Y-113845986D01*
X78109407Y-114149032D01*
X78816514Y-113441925D01*
X77772690Y-113812314D02*
X78479797Y-113105207D01*
X78311438Y-112936849D01*
X78176751Y-112869505D01*
X78042064Y-112869505D01*
X77941049Y-112903177D01*
X77772690Y-113004192D01*
X77671675Y-113105207D01*
X77570659Y-113273566D01*
X77536988Y-113374581D01*
X77536988Y-113509268D01*
X77604331Y-113643955D01*
X77772690Y-113812314D01*
X79968225Y-112017534D02*
X79025416Y-112488939D01*
X79496821Y-111546130D01*
X79328462Y-111377771D02*
X78890729Y-110940038D01*
X78857058Y-111445114D01*
X78756042Y-111344099D01*
X78655027Y-111310427D01*
X78587684Y-111310427D01*
X78486668Y-111344099D01*
X78318310Y-111512458D01*
X78284638Y-111613473D01*
X78284638Y-111680817D01*
X78318310Y-111781832D01*
X78520340Y-111983862D01*
X78621355Y-112017534D01*
X78688699Y-112017534D01*
X79363350Y-109509991D02*
X79228663Y-109442647D01*
X79161320Y-109442647D01*
X79060304Y-109476319D01*
X78959289Y-109577334D01*
X78925617Y-109678350D01*
X78925617Y-109745693D01*
X78959289Y-109846708D01*
X79228663Y-110116082D01*
X79935770Y-109408976D01*
X79700068Y-109173273D01*
X79599052Y-109139601D01*
X79531709Y-109139601D01*
X79430694Y-109173273D01*
X79363350Y-109240617D01*
X79329678Y-109341632D01*
X79329678Y-109408976D01*
X79363350Y-109509991D01*
X79599052Y-109745693D01*
X79296007Y-108769212D02*
X78824602Y-108297808D01*
X78420541Y-109307960D01*
X79381401Y-106951940D02*
X79246714Y-106884596D01*
X79179371Y-106884596D01*
X79078355Y-106918268D01*
X78977340Y-107019283D01*
X78943668Y-107120299D01*
X78943668Y-107187642D01*
X78977340Y-107288657D01*
X79246714Y-107558031D01*
X79953821Y-106850925D01*
X79718119Y-106615222D01*
X79617103Y-106581550D01*
X79549760Y-106581550D01*
X79448745Y-106615222D01*
X79381401Y-106682566D01*
X79347729Y-106783581D01*
X79347729Y-106850925D01*
X79381401Y-106951940D01*
X79617103Y-107187642D01*
X78943668Y-105840772D02*
X79078355Y-105975459D01*
X79112027Y-106076474D01*
X79112027Y-106143818D01*
X79078355Y-106312176D01*
X78977340Y-106480535D01*
X78707966Y-106749909D01*
X78606951Y-106783581D01*
X78539607Y-106783581D01*
X78438592Y-106749909D01*
X78303905Y-106615222D01*
X78270233Y-106514207D01*
X78270233Y-106446863D01*
X78303905Y-106345848D01*
X78472264Y-106177489D01*
X78573279Y-106143818D01*
X78640622Y-106143818D01*
X78741638Y-106177489D01*
X78876325Y-106312176D01*
X78909996Y-106413192D01*
X78909996Y-106480535D01*
X78876325Y-106581550D01*
X79399452Y-104393888D02*
X79264765Y-104326544D01*
X79197422Y-104326544D01*
X79096406Y-104360216D01*
X78995391Y-104461231D01*
X78961719Y-104562247D01*
X78961719Y-104629590D01*
X78995391Y-104730605D01*
X79264765Y-104999979D01*
X79971872Y-104292873D01*
X79736170Y-104057170D01*
X79635154Y-104023498D01*
X79567811Y-104023498D01*
X79466796Y-104057170D01*
X79399452Y-104124514D01*
X79365780Y-104225529D01*
X79365780Y-104292873D01*
X79399452Y-104393888D01*
X79635154Y-104629590D01*
X78928047Y-103249048D02*
X79264765Y-103585766D01*
X78961719Y-103956155D01*
X78961719Y-103888811D01*
X78928047Y-103787796D01*
X78759689Y-103619437D01*
X78658673Y-103585766D01*
X78591330Y-103585766D01*
X78490315Y-103619437D01*
X78321956Y-103787796D01*
X78288284Y-103888811D01*
X78288284Y-103956155D01*
X78321956Y-104057170D01*
X78490315Y-104225529D01*
X78591330Y-104259201D01*
X78658673Y-104259201D01*
X79435555Y-99277786D02*
X79300868Y-99210442D01*
X79233525Y-99210442D01*
X79132509Y-99244114D01*
X79031494Y-99345129D01*
X78997822Y-99446145D01*
X78997822Y-99513488D01*
X79031494Y-99614503D01*
X79300868Y-99883877D01*
X80007975Y-99176771D01*
X79772273Y-98941068D01*
X79671257Y-98907396D01*
X79603914Y-98907396D01*
X79502899Y-98941068D01*
X79435555Y-99008412D01*
X79401883Y-99109427D01*
X79401883Y-99176771D01*
X79435555Y-99277786D01*
X79671257Y-99513488D01*
X79368212Y-98537007D02*
X78930479Y-98099274D01*
X78896807Y-98604351D01*
X78795792Y-98503335D01*
X78694776Y-98469664D01*
X78627433Y-98469664D01*
X78526418Y-98503335D01*
X78358059Y-98671694D01*
X78324387Y-98772709D01*
X78324387Y-98840053D01*
X78358059Y-98941068D01*
X78560089Y-99143099D01*
X78661105Y-99176771D01*
X78728448Y-99176771D01*
X79735620Y-97338467D02*
X79398903Y-97001750D01*
X79600933Y-97607841D02*
X80072338Y-96665032D01*
X79129529Y-97136437D01*
X78523437Y-96530345D02*
X78927498Y-96934406D01*
X78725468Y-96732376D02*
X79432574Y-96025269D01*
X79398903Y-96193628D01*
X79398903Y-96328315D01*
X79432574Y-96429330D01*
X78590781Y-95183475D02*
X78927498Y-95520193D01*
X78624452Y-95890582D01*
X78624452Y-95823239D01*
X78590781Y-95722223D01*
X78422422Y-95553865D01*
X78321407Y-95520193D01*
X78254063Y-95520193D01*
X78153048Y-95553865D01*
X77984689Y-95722223D01*
X77951017Y-95823239D01*
X77951017Y-95890582D01*
X77984689Y-95991597D01*
X78153048Y-96159956D01*
X78254063Y-96193628D01*
X78321407Y-96193628D01*
X79499672Y-94526415D02*
X79162955Y-94189698D01*
X79364985Y-94795789D02*
X79836390Y-93852980D01*
X78893581Y-94324385D01*
X78287489Y-93718293D02*
X78691550Y-94122354D01*
X78489520Y-93920324D02*
X79196626Y-93213217D01*
X79162955Y-93381576D01*
X79162955Y-93516263D01*
X79196626Y-93617278D01*
X78657878Y-92809156D02*
X78657878Y-92741813D01*
X78624207Y-92640797D01*
X78455848Y-92472439D01*
X78354833Y-92438767D01*
X78287489Y-92438767D01*
X78186474Y-92472439D01*
X78119130Y-92539782D01*
X78051787Y-92674469D01*
X78051787Y-93482591D01*
X77614054Y-93044858D01*
X79517723Y-92222364D02*
X79181006Y-91885647D01*
X79383036Y-92491738D02*
X79854441Y-91548929D01*
X78911632Y-92020334D01*
X78305540Y-91414242D02*
X78709601Y-91818303D01*
X78507571Y-91616273D02*
X79214677Y-90909166D01*
X79181006Y-91077525D01*
X79181006Y-91212212D01*
X79214677Y-91313227D01*
X77632105Y-90740807D02*
X78036166Y-91144868D01*
X77834136Y-90942838D02*
X78541242Y-90235731D01*
X78507571Y-90404090D01*
X78507571Y-90538777D01*
X78541242Y-90639792D01*
X79535774Y-89410313D02*
X79199057Y-89073596D01*
X79401087Y-89679687D02*
X79872492Y-88736878D01*
X78929683Y-89208283D01*
X78323591Y-88602191D02*
X78727652Y-89006252D01*
X78525622Y-88804222D02*
X79232728Y-88097115D01*
X79199057Y-88265474D01*
X79199057Y-88400161D01*
X79232728Y-88501176D01*
X78592965Y-87457352D02*
X78525622Y-87390008D01*
X78424606Y-87356337D01*
X78357263Y-87356337D01*
X78256248Y-87390008D01*
X78087889Y-87491024D01*
X77919530Y-87659382D01*
X77818515Y-87827741D01*
X77784843Y-87928756D01*
X77784843Y-87996100D01*
X77818515Y-88097115D01*
X77885858Y-88164459D01*
X77986874Y-88198130D01*
X78054217Y-88198130D01*
X78155232Y-88164459D01*
X78323591Y-88063443D01*
X78491950Y-87895085D01*
X78592965Y-87726726D01*
X78626637Y-87625711D01*
X78626637Y-87558367D01*
X78592965Y-87457352D01*
X79576319Y-86874755D02*
X79239601Y-86538037D01*
X79441632Y-87144129D02*
X79913036Y-86201320D01*
X78970227Y-86672724D01*
X78700853Y-86403350D02*
X78566166Y-86268663D01*
X78532494Y-86167648D01*
X78532494Y-86100305D01*
X78566166Y-85931946D01*
X78667181Y-85763587D01*
X78936555Y-85494213D01*
X79037571Y-85460541D01*
X79104914Y-85460541D01*
X79205929Y-85494213D01*
X79340616Y-85628900D01*
X79374288Y-85729915D01*
X79374288Y-85797259D01*
X79340616Y-85898274D01*
X79172258Y-86066633D01*
X79071242Y-86100305D01*
X79003899Y-86100305D01*
X78902884Y-86066633D01*
X78768197Y-85931946D01*
X78734525Y-85830931D01*
X78734525Y-85763587D01*
X78768197Y-85662572D01*
X79594370Y-84316704D02*
X79257652Y-83979986D01*
X79459683Y-84586078D02*
X79931087Y-83643269D01*
X78988278Y-84114673D01*
X79055622Y-83373895D02*
X79156637Y-83407567D01*
X79223980Y-83407567D01*
X79324996Y-83373895D01*
X79358667Y-83340223D01*
X79392339Y-83239208D01*
X79392339Y-83171864D01*
X79358667Y-83070849D01*
X79223980Y-82936162D01*
X79122965Y-82902490D01*
X79055622Y-82902490D01*
X78954606Y-82936162D01*
X78920935Y-82969834D01*
X78887263Y-83070849D01*
X78887263Y-83138193D01*
X78920935Y-83239208D01*
X79055622Y-83373895D01*
X79089293Y-83474910D01*
X79089293Y-83542254D01*
X79055622Y-83643269D01*
X78920935Y-83777956D01*
X78819919Y-83811628D01*
X78752576Y-83811628D01*
X78651561Y-83777956D01*
X78516874Y-83643269D01*
X78483202Y-83542254D01*
X78483202Y-83474910D01*
X78516874Y-83373895D01*
X78651561Y-83239208D01*
X78752576Y-83205536D01*
X78819919Y-83205536D01*
X78920935Y-83239208D01*
X79417503Y-101835837D02*
X79282816Y-101768493D01*
X79215473Y-101768493D01*
X79114457Y-101802165D01*
X79013442Y-101903180D01*
X78979770Y-102004196D01*
X78979770Y-102071539D01*
X79013442Y-102172554D01*
X79282816Y-102441928D01*
X79989923Y-101734822D01*
X79754221Y-101499119D01*
X79653205Y-101465447D01*
X79585862Y-101465447D01*
X79484847Y-101499119D01*
X79417503Y-101566463D01*
X79383831Y-101667478D01*
X79383831Y-101734822D01*
X79417503Y-101835837D01*
X79653205Y-102071539D01*
X78744068Y-100960371D02*
X78272663Y-101431776D01*
X79181801Y-100859356D02*
X78845083Y-101532791D01*
X78407350Y-101095058D01*
X79539421Y-81602934D02*
X79404734Y-81535591D01*
X79337390Y-81535591D01*
X79236375Y-81569263D01*
X79135360Y-81670278D01*
X79101688Y-81771293D01*
X79101688Y-81838637D01*
X79135360Y-81939652D01*
X79404734Y-82209026D01*
X80111840Y-81501919D01*
X79876138Y-81266217D01*
X79775123Y-81232545D01*
X79707779Y-81232545D01*
X79606764Y-81266217D01*
X79539421Y-81333560D01*
X79505749Y-81434576D01*
X79505749Y-81501919D01*
X79539421Y-81602934D01*
X79775123Y-81838637D01*
X78327237Y-81131530D02*
X78731298Y-81535591D01*
X78529268Y-81333560D02*
X79236375Y-80626453D01*
X79202703Y-80794812D01*
X79202703Y-80929499D01*
X79236375Y-81030515D01*
X78394581Y-79784660D02*
X78731298Y-80121377D01*
X78428253Y-80491766D01*
X78428253Y-80424423D01*
X78394581Y-80323408D01*
X78226222Y-80155049D01*
X78125207Y-80121377D01*
X78057863Y-80121377D01*
X77956848Y-80155049D01*
X77788489Y-80323408D01*
X77754818Y-80424423D01*
X77754818Y-80491766D01*
X77788489Y-80592782D01*
X77956848Y-80761140D01*
X78057863Y-80794812D01*
X78125207Y-80794812D01*
X79557472Y-79044883D02*
X79422785Y-78977540D01*
X79355441Y-78977540D01*
X79254426Y-79011212D01*
X79153411Y-79112227D01*
X79119739Y-79213242D01*
X79119739Y-79280586D01*
X79153411Y-79381601D01*
X79422785Y-79650975D01*
X80129891Y-78943868D01*
X79894189Y-78708166D01*
X79793174Y-78674494D01*
X79725830Y-78674494D01*
X79624815Y-78708166D01*
X79557472Y-78775509D01*
X79523800Y-78876525D01*
X79523800Y-78943868D01*
X79557472Y-79044883D01*
X79793174Y-79280586D01*
X78345288Y-78573479D02*
X78749349Y-78977540D01*
X78547319Y-78775509D02*
X79254426Y-78068402D01*
X79220754Y-78236761D01*
X79220754Y-78371448D01*
X79254426Y-78472464D01*
X78210601Y-77495983D02*
X77739197Y-77967387D01*
X78648334Y-77394967D02*
X78311617Y-78068402D01*
X77873884Y-77630670D01*
X79575523Y-76486832D02*
X79440836Y-76419489D01*
X79373492Y-76419489D01*
X79272477Y-76453161D01*
X79171462Y-76554176D01*
X79137790Y-76655191D01*
X79137790Y-76722535D01*
X79171462Y-76823550D01*
X79440836Y-77092924D01*
X80147942Y-76385817D01*
X79912240Y-76150115D01*
X79811225Y-76116443D01*
X79743881Y-76116443D01*
X79642866Y-76150115D01*
X79575523Y-76217458D01*
X79541851Y-76318474D01*
X79541851Y-76385817D01*
X79575523Y-76486832D01*
X79811225Y-76722535D01*
X78363339Y-76015428D02*
X78767400Y-76419489D01*
X78565370Y-76217458D02*
X79272477Y-75510351D01*
X79238805Y-75678710D01*
X79238805Y-75813397D01*
X79272477Y-75914413D01*
X78834744Y-75072619D02*
X78397011Y-74634886D01*
X78363339Y-75139962D01*
X78262324Y-75038947D01*
X78161309Y-75005275D01*
X78093965Y-75005275D01*
X77992950Y-75038947D01*
X77824591Y-75207306D01*
X77790920Y-75308321D01*
X77790920Y-75375664D01*
X77824591Y-75476680D01*
X78026622Y-75678710D01*
X78127637Y-75712382D01*
X78194981Y-75712382D01*
X79593575Y-73928780D02*
X79458888Y-73861437D01*
X79391544Y-73861437D01*
X79290529Y-73895109D01*
X79189514Y-73996124D01*
X79155842Y-74097139D01*
X79155842Y-74164483D01*
X79189514Y-74265498D01*
X79458888Y-74534872D01*
X80165994Y-73827765D01*
X79930292Y-73592063D01*
X79829277Y-73558391D01*
X79761933Y-73558391D01*
X79660918Y-73592063D01*
X79593575Y-73659406D01*
X79559903Y-73760422D01*
X79559903Y-73827765D01*
X79593575Y-73928780D01*
X79829277Y-74164483D01*
X78381391Y-73457376D02*
X78785452Y-73861437D01*
X78583422Y-73659406D02*
X79290529Y-72952299D01*
X79256857Y-73120658D01*
X79256857Y-73255345D01*
X79290529Y-73356361D01*
X78751781Y-72548238D02*
X78751781Y-72480895D01*
X78718109Y-72379880D01*
X78549750Y-72211521D01*
X78448735Y-72177849D01*
X78381391Y-72177849D01*
X78280376Y-72211521D01*
X78213033Y-72278864D01*
X78145689Y-72413551D01*
X78145689Y-73221673D01*
X77707956Y-72783941D01*
X100929575Y-77230780D02*
X100794888Y-77163437D01*
X100727544Y-77163437D01*
X100626529Y-77197109D01*
X100525514Y-77298124D01*
X100491842Y-77399139D01*
X100491842Y-77466483D01*
X100525514Y-77567498D01*
X100794888Y-77836872D01*
X101501994Y-77129765D01*
X101266292Y-76894063D01*
X101165277Y-76860391D01*
X101097933Y-76860391D01*
X100996918Y-76894063D01*
X100929575Y-76961406D01*
X100895903Y-77062422D01*
X100895903Y-77129765D01*
X100929575Y-77230780D01*
X101165277Y-77466483D01*
X99717391Y-76759376D02*
X100121452Y-77163437D01*
X99919422Y-76961406D02*
X100626529Y-76254299D01*
X100592857Y-76422658D01*
X100592857Y-76557345D01*
X100626529Y-76658361D01*
X99043956Y-76085941D02*
X99448017Y-76490002D01*
X99245987Y-76287971D02*
X99953094Y-75580864D01*
X99919422Y-75749223D01*
X99919422Y-75883910D01*
X99953094Y-75984925D01*
X100911523Y-79788832D02*
X100776836Y-79721489D01*
X100709492Y-79721489D01*
X100608477Y-79755161D01*
X100507462Y-79856176D01*
X100473790Y-79957191D01*
X100473790Y-80024535D01*
X100507462Y-80125550D01*
X100776836Y-80394924D01*
X101483942Y-79687817D01*
X101248240Y-79452115D01*
X101147225Y-79418443D01*
X101079881Y-79418443D01*
X100978866Y-79452115D01*
X100911523Y-79519458D01*
X100877851Y-79620474D01*
X100877851Y-79687817D01*
X100911523Y-79788832D01*
X101147225Y-80024535D01*
X99699339Y-79317428D02*
X100103400Y-79721489D01*
X99901370Y-79519458D02*
X100608477Y-78812351D01*
X100574805Y-78980710D01*
X100574805Y-79115397D01*
X100608477Y-79216413D01*
X99968713Y-78172588D02*
X99901370Y-78105245D01*
X99800355Y-78071573D01*
X99733011Y-78071573D01*
X99631996Y-78105245D01*
X99463637Y-78206260D01*
X99295278Y-78374619D01*
X99194263Y-78542977D01*
X99160591Y-78643993D01*
X99160591Y-78711336D01*
X99194263Y-78812351D01*
X99261607Y-78879695D01*
X99362622Y-78913367D01*
X99429965Y-78913367D01*
X99530981Y-78879695D01*
X99699339Y-78778680D01*
X99867698Y-78610321D01*
X99968713Y-78441962D01*
X100002385Y-78340947D01*
X100002385Y-78273603D01*
X99968713Y-78172588D01*
X100197544Y-81650956D02*
X100062857Y-81583612D01*
X99995514Y-81583612D01*
X99894498Y-81617284D01*
X99793483Y-81718299D01*
X99759811Y-81819315D01*
X99759811Y-81886658D01*
X99793483Y-81987673D01*
X100062857Y-82257047D01*
X100769964Y-81549941D01*
X100534262Y-81314238D01*
X100433246Y-81280566D01*
X100365903Y-81280566D01*
X100264888Y-81314238D01*
X100197544Y-81381582D01*
X100163872Y-81482597D01*
X100163872Y-81549941D01*
X100197544Y-81650956D01*
X100433246Y-81886658D01*
X98985361Y-81179551D02*
X99389422Y-81583612D01*
X99187391Y-81381582D02*
X99894498Y-80674475D01*
X99860827Y-80842834D01*
X99860827Y-80977521D01*
X99894498Y-81078536D01*
X100433493Y-84209007D02*
X100298806Y-84141663D01*
X100231463Y-84141663D01*
X100130447Y-84175335D01*
X100029432Y-84276350D01*
X99995760Y-84377366D01*
X99995760Y-84444709D01*
X100029432Y-84545724D01*
X100298806Y-84815098D01*
X101005913Y-84107992D01*
X100770211Y-83872289D01*
X100669195Y-83838617D01*
X100601852Y-83838617D01*
X100500837Y-83872289D01*
X100433493Y-83939633D01*
X100399821Y-84040648D01*
X100399821Y-84107992D01*
X100433493Y-84209007D01*
X100669195Y-84444709D01*
X100164119Y-83266198D02*
X100096776Y-83198854D01*
X99995760Y-83165182D01*
X99928417Y-83165182D01*
X99827401Y-83198854D01*
X99659043Y-83299869D01*
X99490684Y-83468228D01*
X99389669Y-83636587D01*
X99355997Y-83737602D01*
X99355997Y-83804946D01*
X99389669Y-83905961D01*
X99457012Y-83973305D01*
X99558027Y-84006976D01*
X99625371Y-84006976D01*
X99726386Y-83973305D01*
X99894745Y-83872289D01*
X100063104Y-83703930D01*
X100164119Y-83535572D01*
X100197791Y-83434556D01*
X100197791Y-83367213D01*
X100164119Y-83266198D01*
X100211949Y-87154283D02*
X99875231Y-86817565D01*
X100077262Y-87423657D02*
X100548666Y-86480848D01*
X99605857Y-86952252D01*
X100144605Y-86076787D02*
X99673201Y-85605382D01*
X99269140Y-86615535D01*
X100447898Y-89712334D02*
X100111180Y-89375616D01*
X100313211Y-89981708D02*
X100784615Y-89038899D01*
X99841806Y-89510303D01*
X100010165Y-88264449D02*
X100144852Y-88399136D01*
X100178524Y-88500151D01*
X100178524Y-88567494D01*
X100144852Y-88735853D01*
X100043837Y-88904212D01*
X99774463Y-89173586D01*
X99673447Y-89207258D01*
X99606104Y-89207258D01*
X99505089Y-89173586D01*
X99370402Y-89038899D01*
X99336730Y-88937884D01*
X99336730Y-88870540D01*
X99370402Y-88769525D01*
X99538760Y-88601166D01*
X99639776Y-88567494D01*
X99707119Y-88567494D01*
X99808134Y-88601166D01*
X99942821Y-88735853D01*
X99976493Y-88836868D01*
X99976493Y-88904212D01*
X99942821Y-89005227D01*
X100429847Y-92270386D02*
X100093129Y-91933668D01*
X100295160Y-92539760D02*
X100766564Y-91596951D01*
X99823755Y-92068355D01*
X99958442Y-90788829D02*
X100295160Y-91125546D01*
X99992114Y-91495936D01*
X99992114Y-91428592D01*
X99958442Y-91327577D01*
X99790083Y-91159218D01*
X99689068Y-91125546D01*
X99621725Y-91125546D01*
X99520709Y-91159218D01*
X99352351Y-91327577D01*
X99318679Y-91428592D01*
X99318679Y-91495936D01*
X99352351Y-91596951D01*
X99520709Y-91765310D01*
X99621725Y-91798981D01*
X99689068Y-91798981D01*
X100411796Y-94828437D02*
X100075078Y-94491719D01*
X100277109Y-95097811D02*
X100748513Y-94155002D01*
X99805704Y-94626406D01*
X99738361Y-93616254D02*
X99266956Y-94087658D01*
X100176093Y-93515239D02*
X99839376Y-94188674D01*
X99401643Y-93750941D01*
X100393744Y-97386488D02*
X100057026Y-97049770D01*
X100259057Y-97655862D02*
X100730461Y-96713053D01*
X99787652Y-97184457D01*
X100326400Y-96308992D02*
X99888667Y-95871259D01*
X99854996Y-96376335D01*
X99753980Y-96275320D01*
X99652965Y-96241648D01*
X99585622Y-96241648D01*
X99484606Y-96275320D01*
X99316248Y-96443679D01*
X99282576Y-96544694D01*
X99282576Y-96612038D01*
X99316248Y-96713053D01*
X99518278Y-96915083D01*
X99619293Y-96948755D01*
X99686637Y-96948755D01*
X100375693Y-99690539D02*
X100038975Y-99353821D01*
X100241006Y-99959913D02*
X100712410Y-99017104D01*
X99769601Y-99488508D01*
X100207334Y-98646715D02*
X100207334Y-98579371D01*
X100173662Y-98478356D01*
X100005303Y-98309997D01*
X99904288Y-98276325D01*
X99836945Y-98276325D01*
X99735929Y-98309997D01*
X99668586Y-98377341D01*
X99601242Y-98512028D01*
X99601242Y-99320150D01*
X99163510Y-98882417D01*
X100357642Y-102248590D02*
X100020924Y-101911872D01*
X100222955Y-102517964D02*
X100694359Y-101575155D01*
X99751550Y-102046559D01*
X99145459Y-101440468D02*
X99549520Y-101844529D01*
X99347489Y-101642498D02*
X100054596Y-100935392D01*
X100020924Y-101103750D01*
X100020924Y-101238437D01*
X100054596Y-101339453D01*
X100339591Y-104806642D02*
X100002873Y-104469924D01*
X100204904Y-105076016D02*
X100676308Y-104133207D01*
X99733499Y-104604611D01*
X100070217Y-103527115D02*
X100002873Y-103459772D01*
X99901858Y-103426100D01*
X99834514Y-103426100D01*
X99733499Y-103459772D01*
X99565140Y-103560787D01*
X99396782Y-103729146D01*
X99295766Y-103897505D01*
X99262095Y-103998520D01*
X99262095Y-104065863D01*
X99295766Y-104166879D01*
X99363110Y-104234222D01*
X99464125Y-104267894D01*
X99531469Y-104267894D01*
X99632484Y-104234222D01*
X99800843Y-104133207D01*
X99969201Y-103964848D01*
X100070217Y-103796489D01*
X100103888Y-103695474D01*
X100103888Y-103628131D01*
X100070217Y-103527115D01*
X100360868Y-107808082D02*
X100933288Y-107707067D01*
X100764929Y-108212143D02*
X101472036Y-107505037D01*
X101202662Y-107235663D01*
X101101647Y-107201991D01*
X101034303Y-107201991D01*
X100933288Y-107235663D01*
X100832273Y-107336678D01*
X100798601Y-107437693D01*
X100798601Y-107505037D01*
X100832273Y-107606052D01*
X101101647Y-107875426D01*
X100125166Y-107505037D02*
X99990479Y-107437693D01*
X99822120Y-107269334D01*
X99788448Y-107168319D01*
X99788448Y-107100976D01*
X99822120Y-106999960D01*
X99889463Y-106932617D01*
X99990479Y-106898945D01*
X100057822Y-106898945D01*
X100158837Y-106932617D01*
X100327196Y-107033632D01*
X100428212Y-107067304D01*
X100495555Y-107067304D01*
X100596570Y-107033632D01*
X100663914Y-106966288D01*
X100697586Y-106865273D01*
X100697586Y-106797930D01*
X100663914Y-106696914D01*
X100495555Y-106528556D01*
X100360868Y-106461212D01*
X100192509Y-106225510D02*
X99788448Y-105821449D01*
X99283372Y-106730586D02*
X99990479Y-106023479D01*
X100477504Y-110366133D02*
X100477504Y-110433477D01*
X100544848Y-110568164D01*
X100612191Y-110635507D01*
X100746878Y-110702851D01*
X100881565Y-110702851D01*
X100982580Y-110669179D01*
X101150939Y-110568164D01*
X101251954Y-110467149D01*
X101352970Y-110298790D01*
X101386641Y-110197775D01*
X101386641Y-110063088D01*
X101319298Y-109928401D01*
X101251954Y-109861057D01*
X101117267Y-109793714D01*
X101049924Y-109793714D01*
X99736725Y-109760042D02*
X100140786Y-110164103D01*
X99938756Y-109962072D02*
X100645863Y-109254965D01*
X100612191Y-109423324D01*
X100612191Y-109558011D01*
X100645863Y-109659027D01*
X100208130Y-108817233D02*
X99770397Y-108379500D01*
X99736725Y-108884576D01*
X99635710Y-108783561D01*
X99534695Y-108749889D01*
X99467351Y-108749889D01*
X99366336Y-108783561D01*
X99197977Y-108951920D01*
X99164306Y-109052935D01*
X99164306Y-109120278D01*
X99197977Y-109221294D01*
X99400008Y-109423324D01*
X99501023Y-109456996D01*
X99568367Y-109456996D01*
X100488929Y-112093570D02*
X100354242Y-112026226D01*
X100286899Y-112026226D01*
X100185883Y-112059898D01*
X100084868Y-112160913D01*
X100051196Y-112261929D01*
X100051196Y-112329272D01*
X100084868Y-112430287D01*
X100354242Y-112699661D01*
X101061349Y-111992555D01*
X100825647Y-111756852D01*
X100724631Y-111723180D01*
X100657288Y-111723180D01*
X100556273Y-111756852D01*
X100488929Y-111824196D01*
X100455257Y-111925211D01*
X100455257Y-111992555D01*
X100488929Y-112093570D01*
X100724631Y-112329272D01*
X99613463Y-111958883D02*
X99478776Y-111824196D01*
X99445105Y-111723180D01*
X99445105Y-111655837D01*
X99478776Y-111487478D01*
X99579792Y-111319119D01*
X99849166Y-111049745D01*
X99950181Y-111016074D01*
X100017524Y-111016074D01*
X100118540Y-111049745D01*
X100253227Y-111184432D01*
X100286899Y-111285448D01*
X100286899Y-111352791D01*
X100253227Y-111453806D01*
X100084868Y-111622165D01*
X99983853Y-111655837D01*
X99916509Y-111655837D01*
X99815494Y-111622165D01*
X99680807Y-111487478D01*
X99647135Y-111386463D01*
X99647135Y-111319119D01*
X99680807Y-111218104D01*
X100470878Y-114651622D02*
X100336191Y-114584278D01*
X100268848Y-114584278D01*
X100167832Y-114617950D01*
X100066817Y-114718965D01*
X100033145Y-114819981D01*
X100033145Y-114887324D01*
X100066817Y-114988339D01*
X100336191Y-115257713D01*
X101043298Y-114550607D01*
X100807596Y-114314904D01*
X100706580Y-114281232D01*
X100639237Y-114281232D01*
X100538222Y-114314904D01*
X100470878Y-114382248D01*
X100437206Y-114483263D01*
X100437206Y-114550607D01*
X100470878Y-114651622D01*
X100706580Y-114887324D01*
X99932130Y-114045530D02*
X100033145Y-114079202D01*
X100100489Y-114079202D01*
X100201504Y-114045530D01*
X100235176Y-114011858D01*
X100268848Y-113910843D01*
X100268848Y-113843500D01*
X100235176Y-113742484D01*
X100100489Y-113607797D01*
X99999473Y-113574126D01*
X99932130Y-113574126D01*
X99831115Y-113607797D01*
X99797443Y-113641469D01*
X99763771Y-113742484D01*
X99763771Y-113809828D01*
X99797443Y-113910843D01*
X99932130Y-114045530D01*
X99965802Y-114146545D01*
X99965802Y-114213889D01*
X99932130Y-114314904D01*
X99797443Y-114449591D01*
X99696428Y-114483263D01*
X99629084Y-114483263D01*
X99528069Y-114449591D01*
X99393382Y-114314904D01*
X99359710Y-114213889D01*
X99359710Y-114146545D01*
X99393382Y-114045530D01*
X99528069Y-113910843D01*
X99629084Y-113877171D01*
X99696428Y-113877171D01*
X99797443Y-113910843D01*
X101367621Y-117518375D02*
X101468636Y-117552047D01*
X101569651Y-117653062D01*
X101636995Y-117787749D01*
X101636995Y-117922436D01*
X101603323Y-118023451D01*
X101502308Y-118191810D01*
X101401293Y-118292825D01*
X101232934Y-118393841D01*
X101131919Y-118427512D01*
X100997232Y-118427512D01*
X100862545Y-118360169D01*
X100795201Y-118292825D01*
X100727858Y-118158138D01*
X100727858Y-118090795D01*
X100963560Y-117855093D01*
X101098247Y-117989780D01*
X100357468Y-117855093D02*
X101064575Y-117147986D01*
X99953407Y-117451032D01*
X100660514Y-116743925D01*
X99616690Y-117114314D02*
X100323797Y-116407207D01*
X100155438Y-116238849D01*
X100020751Y-116171505D01*
X99886064Y-116171505D01*
X99785049Y-116205177D01*
X99616690Y-116306192D01*
X99515675Y-116407207D01*
X99414659Y-116575566D01*
X99380988Y-116676581D01*
X99380988Y-116811268D01*
X99448331Y-116945955D01*
X99616690Y-117114314D01*
M02*
